<?xml version="1.0" encoding="UTF-8" standalone="no"?>
<!-- Created with Inkscape (http://www.inkscape.org/) -->
<svg
   xmlns:svg="http://www.w3.org/2000/svg"
   xmlns="http://www.w3.org/2000/svg"
   version="1.0"
   width="285.91846"
   height="322.7832"
   viewBox="0 0 285.91846 322.7832"
   id="svg2"
   xml:space="preserve"><defs
   id="defs204" />
	<g
   id="Ebene_1">
		<path
   d="M 279.14893,6.6396484 L 6.6333008,6.9130859 C 6.6333008,113.04785 12.134766,157.85938 19.019531,181.44727 C 24.937988,201.74316 44.57959,289.1543 142.90918,315.87891 C 240.39209,286.00488 261.28076,201.80176 266.86377,181.4082 C 281.479,128.09863 279.14893,6.6396484 279.14893,6.6396484 z "
   style="fill:none;stroke:white;stroke-width:13.26665688"
   id="path5" />
		<path
   d="M 279.14893,6.6396484 L 6.6333008,6.9130859 C 6.6333008,113.04785 12.134766,157.85938 19.019531,181.44727 C 24.937988,201.74316 44.57959,289.1543 142.90918,315.87891 C 240.39209,286.00488 261.28076,201.80176 266.86377,181.4082 C 281.479,128.09863 279.14893,6.6396484 279.14893,6.6396484 z "
   style="fill:white"
   id="path7" />
		<path
   d="M 279.14893,6.6396484 L 6.6333008,6.9130859 C 6.6333008,113.04785 12.134766,157.85938 19.019531,181.44727 C 24.937988,201.74316 44.57959,289.1543 142.90918,315.87891 C 240.39209,286.00488 261.28076,201.80176 266.86377,181.4082 C 281.479,128.09863 279.14893,6.6396484 279.14893,6.6396484 z "
   style="fill:none;stroke:black;stroke-width:2.80525517"
   id="path9" />
		<path
   d="M 6.3110352,6.6396484 C 6.3110352,112.77441 11.815918,157.54346 18.694336,181.13574 C 20.691895,187.99414 24.817383,203.5459 32.473145,220.81543 C 69.433594,220.81543 213.92139,220.81543 252.48975,220.81543 C 260.68213,203.31152 264.48877,188.14355 266.53857,181.09668 C 273.42236,157.51758 279.14893,112.77441 279.14893,6.6396484 L 6.3110352,6.6396484 L 6.3110352,6.6396484 z "
   style="fill:#ed1c24"
   id="path11" />
		<path
   d="M 6.3110352,6.6396484 C 6.3110352,112.77441 11.815918,157.54346 18.694336,181.13574 C 20.691895,187.99414 24.817383,203.5459 32.473145,220.81543 C 69.433594,220.81543 213.92139,220.81543 252.48975,220.81543 C 260.68213,203.31152 264.48877,188.14355 266.53857,181.09668 C 273.42236,157.51758 279.14893,112.77441 279.14893,6.6396484 L 6.3110352,6.6396484 L 6.3110352,6.6396484 z "
   style="fill:none;stroke:black;stroke-width:2.80525517"
   id="path13" />
		<rect
   width="73.375"
   height="75.580566"
   x="106.18896"
   y="60.460449"
   style="fill:white"
   id="rect15" /> 
		
			<rect
   width="73.375"
   height="75.580566"
   x="106.18896"
   y="60.460449"
   style="fill:none;stroke:black;stroke-width:1.31933618"
   id="rect17" /> 
		<rect
   width="39.566895"
   height="128.94189"
   x="40.03418"
   y="91.372559"
   style="fill:white"
   id="rect19" /> 
		
			<rect
   width="39.566895"
   height="128.94189"
   x="40.03418"
   y="91.372559"
   style="fill:none;stroke:black;stroke-width:1.31933618"
   id="rect21" /> 
		<rect
   width="39.570313"
   height="129.0459"
   x="206.77002"
   y="91.170898"
   style="fill:white"
   id="rect23" /> 
		
			<rect
   width="39.570313"
   height="129.0459"
   x="206.77002"
   y="91.170898"
   style="fill:none;stroke:black;stroke-width:1.31933618"
   id="rect25" /> 
		<path
   d="M 143.18896,21.492188 C 144.6167,21.492188 145.7749,20.347168 145.7749,18.935059 C 145.7749,17.516602 144.6167,16.374512 143.18896,16.374512 C 141.75732,16.374512 140.59912,17.516602 140.59912,18.935059 C 140.59912,20.347168 141.75732,21.492188 143.18896,21.492188 z "
   style="fill:#fff200"
   id="path27" />
		<path
   d="M 143.18896,21.492188 C 144.6167,21.492188 145.7749,20.347168 145.7749,18.935059 C 145.7749,17.516602 144.6167,16.374512 143.18896,16.374512 C 141.75732,16.374512 140.59912,17.516602 140.59912,18.935059 C 140.59912,20.347168 141.75732,21.492188 143.18896,21.492188 z "
   style="fill:none;stroke:black;stroke-width:1.5858686"
   id="path29" />
		<polygon
   points="143.16943,25.269531 103.78467,60.460449 182.89502,60.460449 143.16943,25.269531 "
   style="fill:#fff200"
   id="polygon31" />
		<polygon
   points="143.16943,25.269531 103.78467,60.460449 182.89502,60.460449 143.16943,25.269531 "
   style="fill:none;stroke:black;stroke-width:1.31933618"
   id="polygon33" />
		<path
   d="M 226.31104,61.638184 C 227.5083,61.638184 228.47119,60.681641 228.47119,59.500488 C 228.47119,58.329102 227.5083,57.369629 226.31104,57.369629 C 225.12646,57.369629 224.15674,58.329102 224.15674,59.500488 C 224.15674,60.681641 225.12646,61.638184 226.31104,61.638184 z "
   style="fill:#fff200"
   id="path35" />
		<path
   d="M 226.31104,61.638184 C 227.5083,61.638184 228.47119,60.681641 228.47119,59.500488 C 228.47119,58.329102 227.5083,57.369629 226.31104,57.369629 C 225.12646,57.369629 224.15674,58.329102 224.15674,59.500488 C 224.15674,60.681641 225.12646,61.638184 226.31104,61.638184 z "
   style="fill:none;stroke:black;stroke-width:1.31933618"
   id="path37" />
		<polyline
   points="226.3374023,61.4589844 226.3374023,65.503418 204.7270508,91.203125 247.9018555,91.1577148     226.3374023,65.503418 "
   id="polyline39"
   fill="#FFF200"
   style="fill:#fff200" />
		<polyline
   points="226.3374023,61.4589844 226.3374023,65.503418     204.7270508,91.203125 247.9018555,91.1577148 226.3374023,65.503418 "
   id="polyline41"
   stroke-width="1.3193362"
   stroke="#000000"
   fill="none"
   style="fill:none;stroke:black;stroke-width:1.31933618" />
		<path
   d="M 59.897461,61.661133 C 61.091309,61.661133 62.057617,60.701172 62.057617,59.520019 C 62.057617,58.342285 61.091309,57.38916 59.897461,57.38916 C 58.706543,57.38916 57.740234,58.342285 57.740234,59.520019 C 57.740234,60.701172 58.706543,61.661133 59.897461,61.661133 z "
   style="fill:#fff200"
   id="path43" />
		<path
   d="M 59.897461,61.661133 C 61.091309,61.661133 62.057617,60.701172 62.057617,59.520019 C 62.057617,58.342285 61.091309,57.38916 59.897461,57.38916 C 58.706543,57.38916 57.740234,58.342285 57.740234,59.520019 C 57.740234,60.701172 58.706543,61.661133 59.897461,61.661133 z "
   style="fill:none;stroke:black;stroke-width:1.31933618"
   id="path45" />
		<polyline
   points="59.9204102,61.472168 59.9204102,65.5229492 38.3100586,91.2260742 81.4882813,91.1772461     59.9204102,65.5229492 "
   id="polyline47"
   fill="#FFF200"
   style="fill:#fff200" />
		<polyline
   points="59.9204102,61.472168 59.9204102,65.5229492     38.3100586,91.2260742 81.4882813,91.1772461 59.9204102,65.5229492 "
   id="polyline49"
   stroke-width="1.3193362"
   stroke="#000000"
   fill="none"
   style="fill:none;stroke:black;stroke-width:1.31933618" />
		<path
   d="M 40.447754,193.92871 L 79.65625,193.92871 M 71.440918,179.9375 L 71.440918,186.5293 M 60.07959,179.84082 L 60.07959,186.41895 M 49.069336,179.86035 L 49.069336,186.45117 M 76.991699,173.4375 L 76.991699,180.01563 M 54.613769,173.61328 L 54.613769,180.21094 M 65.522949,173.20313 L 65.522949,179.79492 M 43.073242,173.17676 L 43.073242,179.76855 M 40.541992,186.97852 L 79.747559,186.97852 M 40.268555,180.01563 L 79.467773,180.01563 M 71.685059,166.40332 L 71.685059,172.98828 M 60.323731,166.29883 L 60.323731,172.88379 M 49.310059,166.31836 L 49.310059,172.91016 M 77.229004,159.88965 L 77.229004,166.48145 M 54.854492,160.07813 L 54.854492,166.66309 M 65.77002,159.55127 L 65.77002,166.14258 M 43.313965,159.5249 L 43.313965,166.11719 M 40.454102,173.32715 L 79.65625,173.32715 M 40.516113,166.48145 L 79.708496,166.48145 M 71.359863,152.86182 L 71.359863,159.44385 M 59.998047,152.75439 L 59.998047,159.34277 M 48.984863,152.78027 L 48.984863,159.36914 M 76.910156,146.35156 L 76.910156,152.93994 M 54.535644,146.53662 L 54.535644,153.12207 M 65.441406,146.00977 L 65.441406,152.59521 M 42.988769,145.98389 L 42.988769,152.57568 M 40.460449,159.78516 L 79.662598,159.78516 M 40.187012,152.93994 L 79.389648,152.93994 M 71.499512,139.24219 L 71.499512,145.83105 M 60.138184,139.36621 L 60.138184,145.95117 M 49.125,139.28125 L 49.125,145.86328 M 77.043945,132.63086 L 77.043945,139.21289 M 54.675293,132.81006 L 54.675293,139.39502 M 65.581543,132.28271 L 65.581543,138.87451 M 43.128418,132.25684 L 43.128418,138.84863 M 40.600586,146.17236 L 79.802734,146.17236 M 40.327148,139.21289 L 79.529297,139.21289 M 71.252441,125.22607 L 71.252441,132.02588 M 59.891113,125.12207 L 59.891113,131.71045 M 48.877441,125.14795 L 48.877441,131.73633 M 76.802734,118.7251 L 76.802734,125.30713 M 54.428223,118.9043 L 54.428223,125.48633 M 65.34375,118.37695 L 65.34375,124.96875 M 42.887695,118.35107 L 42.887695,124.93945 M 40.362793,132.25684 L 79.562012,132.25684 M 40.07666,125.30713 L 79.282227,125.30713 M 71.252441,111.76904 L 71.252441,118.35107 M 59.891113,111.66162 L 59.891113,118.25049 M 48.877441,111.68799 L 48.877441,118.27637 M 76.802734,105.25879 L 76.802734,111.84717 M 54.428223,105.21631 L 54.428223,111.80811 M 65.34375,104.91699 L 65.34375,111.50879 M 42.887695,104.89111 L 42.887695,111.48291 M 40.362793,118.5791 L 79.562012,118.5791 M 40.07666,111.84717 L 79.282227,111.84717 M 71.359863,97.987305 L 71.359863,104.57861 M 59.998047,97.674805 L 59.998047,104.2666 M 48.984863,97.700684 L 48.984863,104.29248 M 76.910156,91.271484 L 76.910156,97.853516 M 54.535644,91.457031 L 54.535644,98.04248 M 65.441406,90.933105 L 65.441406,97.515137 M 42.988769,90.903809 L 42.988769,97.489258 M 40.460449,104.81299 L 79.662598,104.81299 M 40.187012,97.853516 L 79.389648,97.853516"
   style="fill:none;stroke:black;stroke-width:1.31933618"
   id="path51" />
		<path
   d="M 60.704102,263.71777 L 60.704102,255.17383 M 59.757324,263.91309 L 225.45166,263.91309 M 190.80811,255.6748 L 190.80811,247.13086 M 177.36475,255.77246 L 177.36475,247.24121 M 109.56006,255.55078 L 109.56006,247.24121 M 204.25146,255.78516 L 204.25146,247.24805 M 218.04053,255.53809 L 218.04053,247.00098 M 231.1333,255.53809 L 231.1333,247.00098 M 244.19287,237.81934 L 244.19287,229.73047 M 96.015137,255.53809 L 96.015137,247.00098 M 81.875488,255.29688 L 81.875488,246.75977 M 68.001953,255.29688 L 68.001953,246.75977 M 53.448731,255.41406 L 53.448731,246.88379 M 52.609375,255.29688 L 125.03369,255.29688 M 183.66943,247.28027 L 183.66943,238.73633 M 102.43115,247.07227 L 102.43115,238.52832 M 197.11963,247.39063 L 197.11963,238.85352 M 210.90869,247.14355 L 210.90869,238.60645 M 224.22217,247.14355 L 224.22217,238.60645 M 237.07373,247.14355 L 237.07373,238.60645 M 88.876953,246.83105 L 88.876953,238.29395 M 75.078613,246.90918 L 75.078613,238.36523 M 61.758301,246.90918 L 61.758301,238.36523 M 47.878906,247.02637 L 47.878906,238.48242 M 46.938477,247.00684 L 114.86328,247.00684 M 95.907715,238.55469 L 95.907715,230.12109 M 190.59326,238.67188 L 190.59326,230.12793 M 204.38232,238.42383 L 204.38232,229.88672 M 217.6958,238.42383 L 217.6958,229.88672 M 230.7749,238.42383 L 230.7749,229.88672 M 82.353516,238.32031 L 82.353516,229.77637 M 68.555176,238.17676 L 68.555176,229.63965 M 55.234863,238.17676 L 55.234863,229.63965 M 41.915039,238.30664 L 41.915039,229.76953 M 41.020019,238.17676 L 106.36182,238.20313 M 197.10693,229.93848 L 197.10693,221.40137 M 211.24072,230.03027 L 211.24072,221.48633 M 224.21533,230.03027 L 224.21533,221.48633 M 237.28857,230.03027 L 237.28857,221.48633 M 88.870605,229.60742 L 88.870605,221.06348 M 75.290039,229.78223 L 75.290039,221.24512 M 61.751953,229.78223 L 61.751953,221.24512 M 48.204102,229.89941 L 48.204102,221.3623 M 77.01123,214.6084 L 77.01123,221.19336 M 54.854492,214.79004 L 54.854492,221.375 M 65.77002,214.59473 L 65.77002,220.85449 M 43.313965,214.36035 L 43.313965,220.93945 M 71.359863,207.65234 L 71.359863,214.24414 M 59.998047,207.54785 L 59.998047,214.13965 M 48.984863,207.57422 L 48.984863,214.16602 M 76.910156,201.14453 L 76.910156,207.73633 M 54.535644,201.33301 L 54.535644,207.91211 M 65.441406,200.7998 L 65.441406,207.38477 M 42.988769,200.78711 L 42.988769,207.36523 M 40.460449,214.68652 L 79.662598,214.68652 M 40.187012,207.73633 L 79.389648,207.73633 M 71.626465,193.85059 L 71.626465,200.43555 M 60.265137,193.97363 L 60.265137,200.55273 M 49.251465,193.76563 L 49.251465,200.5791 M 77.17041,187.34277 L 77.17041,193.92871 M 54.802246,187.4082 L 54.802246,194 M 65.708496,187.00488 L 65.708496,193.58984 M 43.255371,186.97852 L 43.255371,193.56348 M 40.516113,200.88477 L 79.714844,200.88477"
   style="fill:none;stroke:black;stroke-width:1.31933618"
   id="path53" />
		<path
   d="M 136.49951,69.303711 L 136.49951,60.766113 M 122.80859,69.303711 L 122.80859,60.766113 M 106.29004,69.004395 L 179.75928,69.004395 M 156.07275,311.8252 L 156.07275,306.86621 M 129.05859,311.07031 L 129.05859,306.82715 M 176.46631,302.18164 L 176.46631,298.36133 M 162.64502,306.79492 L 162.64502,298.25098 M 149.08447,306.63184 L 149.08447,298.08789 M 135.38672,306.63184 L 135.38672,298.08789 M 121.72803,306.69727 L 121.72803,298.15332 M 108.66846,302.37598 L 108.66846,298.36133 M 117.01074,306.52832 L 168.02002,306.52832 M 183.28564,298.14648 L 183.28564,289.60938 M 169.71826,297.95117 L 169.71826,289.85645 M 156.021,298.0625 L 156.021,289.85645 M 142.37207,298.15332 L 142.37207,289.62207 M 129.2959,298.15332 L 129.2959,289.62207 M 115.75146,297.91211 L 115.75146,289.375 M 101.50391,297.87988 L 101.50391,289.34863 M 100.42383,297.99023 L 183.95654,297.99023 M 190.09912,289.58984 L 190.09912,281.50195 M 176.29736,289.93457 L 176.29736,281.39746 M 162.72314,289.97363 L 162.72314,281.43652 M 149.02588,289.73926 L 149.02588,281.53418 M 135.36719,289.48535 L 135.36719,281.50195 M 122.30078,289.7002 L 122.30078,281.50195 M 108.75293,289.6875 L 108.75293,281.15625 M 94.95459,289.55762 L 94.95459,281.01953 M 88.356445,289.66113 L 196.84717,289.66113 M 209.20361,279.45215 L 209.20361,272.96387 M 196.76904,281.60547 L 196.76904,273.06836 M 182.96045,281.50195 L 182.96045,272.96387 M 169.38623,281.33203 L 169.38623,272.78809 M 155.68896,281.53418 L 155.68896,272.99023 M 142.03711,281.60547 L 142.03711,273.06836 M 128.9707,281.60547 L 128.9707,273.06836 M 115.4165,281.15625 L 115.4165,272.6123 M 101.61768,281.12402 L 101.61768,272.58008 M 88.297852,281.12402 L 88.297852,272.58008 M 74.75,278.95703 L 74.75,272.7041 M 77.508789,281.22852 L 207.11475,281.22852 M 203.64014,272.88574 L 203.64014,264.34863 M 190.19678,272.65137 L 190.19678,264.11426 M 176.38818,272.88574 L 176.38818,264.34863 M 162.81396,272.82129 L 162.81396,264.27734 M 149.12354,272.91895 L 149.12354,264.375 M 135.46826,272.67773 L 135.46826,264.14063 M 122.39502,272.78223 L 122.39502,264.23828 M 108.84717,272.01367 L 108.84717,263.81543 M 95.048828,272.50879 L 95.048828,263.96484 M 81.729004,272.50879 L 81.729004,263.96484 M 68.181152,272.62598 L 68.181152,264.08789 M 68.38916,272.6123 L 217.0708,272.6123 M 196.71631,263.97168 L 196.71631,255.42773 M 183.28564,264.0752 L 183.28564,255.53809 M 169.46436,263.97168 L 169.46436,255.42773 M 155.89697,264.11426 L 155.89697,258.46582 M 128.55078,264.0752 L 128.55078,257.54199 M 115.47803,264.0752 L 115.47803,255.53809 M 210.17334,264.0752 L 210.17334,255.53809 M 223.9624,263.84082 L 223.9624,255.29688 M 101.93018,263.82813 L 101.93018,255.29102 M 88.125488,263.59375 L 88.125488,255.05664 M 74.812012,263.59375 L 74.812012,255.05664"
   style="fill:none;stroke:black;stroke-width:1.31933618"
   id="path55" />
		<path
   d="M 109.15967,86.394531 L 109.15967,77.850586 M 106.29004,86.121094 L 179.75928,86.121094 M 170.80518,77.671875 L 170.80518,69.12793 M 157.37451,77.671875 L 157.37451,69.12793 M 143.55615,77.671875 L 143.55615,69.12793 M 129.98926,77.606445 L 129.98926,69.062988 M 116.29785,77.606445 L 116.29785,69.062988 M 106.04297,77.398438 L 179.75928,77.398438"
   style="fill:none;stroke:black;stroke-width:1.31933618"
   id="path57" />
		<path
   d="M 177.32568,69.267578 L 177.32568,60.733887 M 163.88818,69.26123 L 163.88818,60.720703 M 150.07373,69.267578 L 150.07373,60.733887 M 109.14648,69.26123 L 109.14648,60.720703 M 203.1001,284.6377 L 203.1001,281.39746 M 80.629395,284.89844 L 80.629395,281.01953 M 216.64795,272.89258 L 216.64795,264.34863 M 143.24414,21.339356 L 143.24414,25.269531 M 37.415039,229.88672 L 100.69727,229.88672 M 176.94775,136.36279 L 176.94775,128.82422 M 163.38721,136.06348 L 163.38721,128.97412 M 149.68311,136.28174 L 149.68311,128.97412 M 136.03418,136.13525 L 136.03418,128.93164 M 122.96777,136.02148 L 122.96777,128.93164 M 109.41357,135.68311 L 109.41357,128.48584 M 170.28467,129.04541 L 170.28467,120.50195 M 156.72412,129.07813 L 156.72412,120.54395 M 143.02295,129.07813 L 143.02295,120.54395 M 129.36426,129.03906 L 129.36426,120.49512 M 116.30469,128.92529 L 116.30469,120.38477 M 106.1499,128.77246 L 179.86279,128.65869 M 176.94775,120.60938 L 176.94775,112.0752 M 163.38721,120.54395 L 163.38721,112 M 149.68311,120.54395 L 149.68311,112 M 136.03418,120.60938 L 136.03418,112.0752 M 122.96777,120.50195 L 122.96777,111.96777 M 109.41357,120.26416 L 109.41357,111.72705 M 106.29004,120.34229 L 179.72607,120.34229 M 170.05029,111.88623 L 170.05029,103.35205 M 156.48291,111.82129 L 156.48291,103.28369 M 142.78223,111.82129 L 142.78223,103.28369 M 129.13037,111.78857 L 129.13037,103.24463 M 116.06396,111.88623 L 116.06396,103.35205 M 106.04297,111.72705 L 179.75928,111.72705 M 176.94775,103.0791 L 176.94775,94.544922 M 163.12646,103.0791 L 163.12646,94.544922 M 149.55908,103.01074 L 149.55908,94.469727 M 135.86816,103.21875 L 135.86816,94.681641 M 122.20654,103.18604 L 122.20654,94.642578 M 109.14014,103.0791 L 109.14014,94.544922 M 106.04297,102.91309 L 179.75928,102.91309 M 171.02686,94.889648 L 171.02686,86.345703 M 157.20557,94.782227 L 157.20557,86.248047 M 143.65088,94.717285 L 143.65088,86.179688 M 129.9502,94.717285 L 129.9502,86.179688 M 116.29785,94.681641 L 116.29785,86.140625 M 106.04297,94.508789 L 179.75928,94.508789 M 177.33154,86.394531 L 177.33154,77.850586 M 163.89404,86.287109 L 163.89404,77.743164 M 150.07959,86.394531 L 150.07959,77.850586 M 136.50586,86.319824 L 136.50586,77.785645 M 122.82129,86.319824 L 122.82129,77.785645"
   style="fill:none;stroke:black;stroke-width:1.31933618"
   id="path59" />
		<path
   style="fill:none;stroke:black;stroke-width:1.31933618;stroke-linecap:round"
   id="path61" />
		<path
   d="M 243.62646,173.41797 L 243.62646,180.00293 M 221.26123,173.59961 L 221.26123,180.18555 M 232.16748,173.18359 L 232.16748,179.77539 M 209.71143,173.25488 L 209.71143,179.84668 M 206.96533,186.95313 L 246.16455,186.95313 M 206.6792,180.00293 L 245.88428,180.00293 M 238.32275,166.38965 L 238.32275,172.96875 M 226.96143,166.4873 L 226.96143,173.06641 M 215.95166,166.50684 L 215.95166,173.09277 M 243.87354,159.87646 L 243.87354,166.46191 M 221.49561,160.05566 L 221.49561,166.65039 M 232.40186,159.53174 L 232.40186,166.11719 M 209.95166,159.51221 L 209.95166,166.09082 M 207.08936,173.41797 L 246.2876,173.41797 M 206.92627,166.46191 L 246.13135,166.46191 M 237.99756,152.83887 L 237.99756,159.43066 M 226.64307,152.74121 L 226.64307,159.32324 M 215.62646,152.76074 L 215.62646,159.34961 M 243.5415,146.32861 L 243.5415,152.92041 M 221.17041,146.51709 L 221.17041,153.10596 M 232.07666,145.99023 L 232.07666,152.58203 M 209.62646,145.9707 L 209.62646,152.55273 M 206.88037,159.7627 L 246.07959,159.7627 M 206.60693,152.92041 L 245.80615,152.92041 M 238.14111,139.1123 L 238.14111,145.7041 M 226.77979,139.21973 L 226.77979,145.81152 M 215.76904,139.37256 L 215.76904,145.95752 M 243.68506,132.61133 L 243.68506,139.19336 M 221.31396,132.58545 L 221.31396,139.16748 M 232.22607,132.26318 L 232.22607,138.85498 M 209.77002,132.24414 L 209.77002,138.82568 M 207.01709,146.14941 L 246.22314,146.14941 M 206.73779,139.19336 L 245.94971,139.19336 M 237.89404,125.20654 L 237.89404,131.79834 M 226.53271,125.31396 L 226.53271,131.90576 M 215.52881,125.12842 L 215.52881,131.7168 M 243.43799,118.70557 L 243.43799,125.2876 M 221.06592,118.88477 L 221.06592,125.47314 M 231.979,118.35742 L 231.979,124.94629 M 209.52295,118.33789 L 209.52295,124.91992 M 206.77686,132.24414 L 245.97607,132.24414 M 206.49658,125.2876 L 245.70264,125.2876 M 237.89404,111.74658 L 237.89404,118.33789 M 226.53271,111.64893 L 226.53271,118.23096 M 215.52881,111.87305 L 215.52881,118.46484 M 243.43799,105.23584 L 243.43799,111.82764 M 221.06592,105.31104 L 221.06592,111.89941 M 231.979,104.89746 L 231.979,111.48926 M 209.52295,104.87793 L 209.52295,111.45996 M 206.77686,118.57227 L 245.97607,118.57227 M 206.60693,111.82764 L 245.81299,111.82764 M 237.99756,97.762695 L 237.99756,104.35107 M 226.64307,97.655273 L 226.64307,104.24365 M 215.62646,97.681152 L 215.62646,104.27295 M 243.5415,91.251953 L 243.5415,97.84082 M 221.17041,91.431152 L 221.17041,98.019531 M 232.07666,90.910645 L 232.07666,97.502441 M 209.62646,90.891113 L 209.62646,97.476074 M 206.88037,104.79004 L 246.07959,104.79004 M 206.60693,97.84082 L 245.80615,97.84082 M 160.22412,255.58984 L 232.28467,255.58984 M 171.23486,247.24121 L 237.86768,247.24121 M 180.01904,238.33301 L 244.03662,238.3457 M 186.27881,229.92578 L 248.21436,229.92578"
   style="fill:none;stroke:black;stroke-width:1.31933618"
   id="path63" />
		<path
   d="M 143.08447,263.78906 L 143.08447,262.0127 M 250.42627,224.66797 L 250.42627,221.03711 M 34.818848,224.81738 L 34.818848,221.19336 M 142.896,315.24707 L 142.896,306.70996 M 243.87354,214.58203 L 243.87354,221.17383 M 221.49561,214.77051 L 221.49561,221.3623 M 232.40186,214.24414 L 232.40186,220.8291 M 209.84814,214.42578 L 209.84814,221.01074 M 237.99756,207.63281 L 237.99756,214.22461 M 226.64307,207.52832 L 226.64307,214.11328 M 215.62646,207.55469 L 215.62646,214.13965 M 243.5415,201.125 L 243.5415,207.71094 M 221.17041,201.30762 L 221.17041,207.89258 M 232.07666,200.78711 L 232.07666,207.37207 M 209.62646,200.76074 L 209.62646,207.3457 M 206.88037,214.46484 L 246.07959,214.46484 M 206.60693,207.71094 L 245.80615,207.71094 M 238.271,193.83691 L 238.271,200.41602 M 226.90967,193.72656 L 226.90967,200.31836 M 215.89307,193.75293 L 215.89307,200.33789 M 243.81494,187.32324 L 243.81494,193.91504 M 221.43701,187.39551 L 221.43701,193.9873 M 232.3501,186.97852 L 232.3501,193.56348 M 209.8999,186.95313 L 209.8999,193.53809 M 207.14111,200.86523 L 246.35303,200.86523 M 206.86768,193.91504 L 246.07373,193.91504 M 238.08252,179.91895 L 238.08252,186.50977 M 226.72119,179.91895 L 226.72119,186.50977 M 215.70459,180.05469 L 215.70459,186.64063"
   style="fill:none;stroke:black;stroke-width:1.31933618"
   id="path65" />
		<path
   d="M 88.03125,135.80322 L 198.76025,135.80322 C 198.76025,135.80322 198.47314,176.28125 198.47314,183.86816 C 198.47314,200.70215 193.85303,222.68945 176.77197,241.65137 C 162.72314,257.27539 150.48975,261.05566 143.24414,262.70898 L 143.35791,262.74805 C 136.11865,261.08203 123.87891,257.30762 109.82666,241.69043 C 92.748535,222.71582 88.131836,200.72852 88.131836,183.89453 C 88.131836,176.31348 88.03125,135.80322 88.03125,135.80322 z "
   style="fill:white"
   id="path67" />
		<path
   d="M 88.03125,135.80322 L 198.76025,135.80322 C 198.76025,135.80322 198.47314,176.28125 198.47314,183.86816 C 198.47314,200.70215 193.85303,222.68945 176.77197,241.65137 C 162.72314,257.27539 150.48975,261.05566 143.24414,262.70898 L 143.35791,262.74805 C 136.11865,261.08203 123.87891,257.30762 109.82666,241.69043 C 92.748535,222.71582 88.131836,200.72852 88.131836,183.89453 C 88.131836,176.31348 88.03125,135.80322 88.03125,135.80322 z "
   style="fill:none;stroke:black;stroke-width:1.31933618"
   id="path69" />
		<path
   d="M 89.73584,137.61572 L 197.1333,137.61572 C 197.1333,137.61572 196.85986,176.87988 196.85986,184.23926 C 196.85986,200.56543 192.38232,221.89648 175.81592,240.29785 C 162.17627,255.44043 150.31396,259.11719 143.28955,260.71777 L 143.40381,260.74414 C 136.37891,259.14258 124.51318,255.47266 110.88086,240.32422 C 94.313476,221.92188 89.836914,200.59863 89.836914,184.26563 C 89.836914,176.91895 89.73584,137.61572 89.73584,137.61572 z "
   style="fill:#ed1c24"
   id="path71" />
		<path
   d="M 89.73584,137.61572 L 197.1333,137.61572 C 197.1333,137.61572 196.85986,176.87988 196.85986,184.23926 C 196.85986,200.56543 192.38232,221.89648 175.81592,240.29785 C 162.17627,255.44043 150.31396,259.11719 143.28955,260.71777 L 143.40381,260.74414 C 136.37891,259.14258 124.51318,255.47266 110.88086,240.32422 C 94.313476,221.92188 89.836914,200.59863 89.836914,184.26563 C 89.836914,176.91895 89.73584,137.61572 89.73584,137.61572 z "
   style="fill:none;stroke:black;stroke-width:1.27935624"
   id="path73" />
		<path
   d="M 143.39697,148.77539 C 143.39697,148.77539 149.61768,147.26904 150.82861,150.02148 C 156.72998,145.271 156.14404,151.88916 155.25342,153.75342 C 158.79248,153.56152 160.62842,154.54053 155.55225,156.05371 C 156.95752,155.59131 158.13525,156.69775 159.24854,156.37891 C 158.79248,159.71729 155.22705,158.53613 154.53076,158.34424 C 156.89307,159.71729 156.93213,161.90332 157.55029,162.99707 C 155.84522,163.44922 155.55908,162.83398 155.05811,162.04297 C 157.2251,164.89355 157.15283,166.00586 157.73877,166.66309 C 158.3374,167.31445 156.45068,167.04688 155.94287,166.36426 C 158.6626,168.75879 158.13525,172.82617 158.50635,173.73633 C 156.0083,174.70605 153.97803,170.78906 152.89795,169.9043 C 155.31787,172.55859 156.17041,183.2373 153.78272,180.12695 C 152.56592,183.2373 155.6499,185.53418 155.6499,185.53418 C 155.6499,185.53418 155.25342,186.21777 154.36768,186.02246 C 153.48291,185.82031 148.27783,193.98047 148.27783,193.98047 L 123.31299,181.5 C 123.31299,181.5 130.09619,169.70898 131.57666,168.23145 C 133.04736,166.76074 133.52881,168.47266 133.63623,169.61133 C 133.76953,170.98437 136.38574,166.40332 139.33984,165.97363 C 142.48291,162.40137 143.53076,158.14551 142.74316,156.89941 C 141.95898,155.65967 143.39697,148.77539 143.39697,148.77539 z "
   style="fill:white"
   id="path75" />
		<path
   d="M 143.39697,148.77539 C 143.39697,148.77539 149.61768,147.26904 150.82861,150.02148 C 156.72998,145.271 156.14404,151.88916 155.25342,153.75342 C 158.79248,153.56152 160.62842,154.54053 155.55225,156.05371 C 156.95752,155.59131 158.13525,156.69775 159.24854,156.37891 C 158.79248,159.71729 155.22705,158.53613 154.53076,158.34424 C 156.89307,159.71729 156.93213,161.90332 157.55029,162.99707 C 155.84522,163.44922 155.55908,162.83398 155.05811,162.04297 C 157.2251,164.89355 157.15283,166.00586 157.73877,166.66309 C 158.3374,167.31445 156.45068,167.04688 155.94287,166.36426 C 158.6626,168.75879 158.13525,172.82617 158.50635,173.73633 C 156.0083,174.70605 153.97803,170.78906 152.89795,169.9043 C 155.31787,172.55859 156.17041,183.2373 153.78272,180.12695 C 152.56592,183.2373 155.6499,185.53418 155.6499,185.53418 C 155.6499,185.53418 155.25342,186.21777 154.36768,186.02246 C 153.48291,185.82031 148.27783,193.98047 148.27783,193.98047 L 123.31299,181.5 C 123.31299,181.5 130.09619,169.70898 131.57666,168.23145 C 133.04736,166.76074 133.52881,168.47266 133.63623,169.61133 C 133.76953,170.98437 136.38574,166.40332 139.33984,165.97363 C 142.48291,162.40137 143.53076,158.14551 142.74316,156.89941 C 141.95898,155.65967 143.39697,148.77539 143.39697,148.77539 z "
   style="fill:none;stroke:black;stroke-width:1.27935624;stroke-linecap:round"
   id="path77" />
		<path
   d="M 156.37256,166.92383 C 153.80811,163.51367 152.83936,163.85547 151.90869,161.94922 C 151.06201,160.17578 150.47705,159.71729 149.35791,158.53613 M 149.55322,172.88379 C 151.90869,175.04492 153.61963,178.38965 153.78271,180.12695 M 153.80811,150.3501 C 151.84326,151.06885 151.5835,153.35938 153.22314,154.14697"
   style="fill:none;stroke:black;stroke-width:1.27935624;stroke-linecap:round"
   id="path79" />
		<path
   d="M 155.84521,156.02441 C 153.74365,156.22607 154.40674,155.19775 151.5835,155.52637"
   style="fill:none;stroke:black;stroke-width:1.27935624"
   id="path81" />
		<path
   d="M 147.854,170.33301 C 149.61768,168.88867 150.28174,166.20117 150.28174,164.69824 M 135.00586,181.34375 C 136.38574,179.7041 136.7793,179.30664 137.24121,177.66699 M 138.41895,185.59961 C 139.40479,183.89453 139.85693,182.9707 139.99072,181.13574 M 143.69678,182.58594 C 143.98291,179.83398 143.39014,180.58887 144.44775,179.24219 M 149.09717,183.36035 C 148.25146,181.13574 148.70654,180.875 148.90186,179.96387 M 139.07324,174.3291 C 142.67822,178.84473 143.39697,180.09375 147.59424,177.99902 M 142.54443,169.68262 C 145.23486,172.75391 145.5542,177.27637 147.65283,177.80371 M 146.07764,165.4209 C 147.78955,168.04297 148.51123,172.16895 145.75635,174.6543 M 153.68506,164.4375 C 150.40479,164.82813 150.28174,164.69824 149.22705,163.64746 M 150.93213,154.47217 C 152.44189,156.5708 152.83252,158.86475 152.16846,162.01074"
   style="fill:none;stroke:black;stroke-width:1.27935624;stroke-linecap:round"
   id="path83" />
		<path
   d="M 140.38428,159.1377 C 136.4541,159.65527 136.95166,159.21582 134.22217,160.57617 C 131.08252,162.14063 131.60937,160.07813 129.11719,158.89697 C 126.625,157.71924 127.54541,159.88281 128.03711,161.35693 C 128.60937,163.0752 131.08252,164.11621 133.17432,163.06836 C 135.74805,161.7832 139.59033,160.04883 140.51758,160.18213 C 141.43213,160.30908 140.38428,159.1377 140.38428,159.1377 z "
   style="fill:#fff200"
   id="path85" />
		<path
   d="M 140.38428,159.1377 C 136.4541,159.65527 136.95166,159.21582 134.22217,160.57617 C 131.08252,162.14063 131.60937,160.07813 129.11719,158.89697 C 126.625,157.71924 127.54541,159.88281 128.03711,161.35693 C 128.60937,163.0752 131.08252,164.11621 133.17432,163.06836 C 135.74805,161.7832 139.59033,160.04883 140.51758,160.18213 C 141.43213,160.30908 140.38428,159.1377 140.38428,159.1377 z "
   style="fill:none;stroke:black;stroke-width:1.40595925;stroke-linecap:round"
   id="path87" />
		<path
   d="M 135.99512,163.67676 C 137.48535,165.27051 137.89209,164.37305 137.05908,162.6416 C 135.06152,160.99561 135.99512,163.67676 135.99512,163.67676 z "
   style="fill:white"
   id="path89" />
		<path
   d="M 135.99512,163.67676 C 137.48535,165.27051 137.89209,164.37305 137.05908,162.6416 C 135.06152,160.99561 135.99512,163.67676 135.99512,163.67676 z "
   style="fill:none;stroke:black;stroke-width:1.40595925;stroke-linecap:round"
   id="path91" />
		<path
   d="M 133.24268,158.5293 C 134.55371,160.625 136.12842,160.75488 134.55371,157.48535 C 132.72217,155.25293 133.24268,158.5293 133.24268,158.5293 z "
   style="fill:white"
   id="path93" />
		<path
   d="M 133.24268,158.5293 C 134.55371,160.625 136.12842,160.75488 134.55371,157.48535 C 132.72217,155.25293 133.24268,158.5293 133.24268,158.5293 z "
   style="fill:none;stroke:black;stroke-width:1.40595925;stroke-linecap:round"
   id="path95" />
		<path
   d="M 108.021,222.28613 C 108.021,224.6416 107.94922,225.60547 110.69873,225.00684 C 110.25293,226.2168 110.63379,227.92188 111.87988,228.35156 C 113.75049,232.68457 115.81641,231.5918 116.6626,228.83301 C 117.64844,229.09277 118.46826,228 119.02783,227.45313 C 118.74805,228.96289 119.94189,233.16016 123.66748,230.9082 C 125.45996,229.82813 124.25928,227.96094 124.25928,227.96094 L 126.02637,227.76563 C 126.02637,227.76563 128.72363,232.69824 129.771,229.36621 C 132.19482,229.41797 131.66797,229.02832 131.47607,227.84961 C 133.30762,227.79199 132.70898,226.58105 132.70898,226.58105 C 132.70898,226.58105 134.42041,228.18164 135.20801,226.47754 C 139.53174,228.05176 136.84131,224.22559 136.84131,224.22559 C 136.84131,224.22559 135.78027,224.06934 136.24561,222.45605 C 136.71436,220.8418 137.43311,218.71387 137.17285,216.54687 C 141.73096,216.78125 148.47217,214.97266 148.47217,214.97266 L 152.44189,212.81836 L 153.54834,197.20801 L 146.36475,199.45898 C 145.18994,199.26465 143.61475,200.05176 146.36475,202.21875 C 147.35986,202.98633 147.44482,204.66504 147.44482,204.66504 C 147.44482,204.66504 140.83643,203.91016 134.93457,205.48535 C 133.73389,205.81055 131.20264,205.94727 130.84131,204.57422 C 130.57812,203.5459 130.4834,203.06445 131.01074,201.55469 C 129.104,201.82129 126.81055,203.72168 127.01221,206.92969 C 125.83105,206.73437 122.48633,206.34375 122.09912,207.72363 C 121.11328,207.25488 119.21631,208.56934 118.62109,209.87695 C 122.09912,209.41504 124.91357,211.05469 129.56299,210.4043 C 128.125,211.84277 125.87354,215.1416 126.35791,217.73145 C 126.74512,219.83984 122.07324,220.33398 120.3291,220.62109 C 116.39551,221.27832 119.8833,213.4043 116.20361,217.93359 C 110.1748,217.34766 111.97412,219.01367 111.97412,219.01367 C 105.59717,218.55176 107.49365,222.41699 108.021,222.28613 z "
   style="fill:white"
   id="path97" />
		<path
   d="M 108.021,222.28613 C 108.021,224.6416 107.94922,225.60547 110.69873,225.00684 C 110.25293,226.2168 110.63379,227.92188 111.87988,228.35156 C 113.75049,232.68457 115.81641,231.5918 116.6626,228.83301 C 117.64844,229.09277 118.46826,228 119.02783,227.45313 C 118.74805,228.96289 119.94189,233.16016 123.66748,230.9082 C 125.45996,229.82813 124.25928,227.96094 124.25928,227.96094 L 126.02637,227.76563 C 126.02637,227.76563 128.72363,232.69824 129.771,229.36621 C 132.19482,229.41797 131.66797,229.02832 131.47607,227.84961 C 133.30762,227.79199 132.70898,226.58105 132.70898,226.58105 C 132.70898,226.58105 134.42041,228.18164 135.20801,226.47754 C 139.53174,228.05176 136.84131,224.22559 136.84131,224.22559 C 136.84131,224.22559 135.78027,224.06934 136.24561,222.45605 C 136.71436,220.8418 137.43311,218.71387 137.17285,216.54687 C 141.73096,216.78125 148.47217,214.97266 148.47217,214.97266 L 152.44189,212.81836 L 153.54834,197.20801 L 146.36475,199.45898 C 145.18994,199.26465 143.61475,200.05176 146.36475,202.21875 C 147.35986,202.98633 147.44482,204.66504 147.44482,204.66504 C 147.44482,204.66504 140.83643,203.91016 134.93457,205.48535 C 133.73389,205.81055 131.20264,205.94727 130.84131,204.57422 C 130.57812,203.5459 130.4834,203.06445 131.01074,201.55469 C 129.104,201.82129 126.81055,203.72168 127.01221,206.92969 C 125.83105,206.73437 122.48633,206.34375 122.09912,207.72363 C 121.11328,207.25488 119.21631,208.56934 118.62109,209.87695 C 122.09912,209.41504 124.91357,211.05469 129.56299,210.4043 C 128.125,211.84277 125.87354,215.1416 126.35791,217.73145 C 126.74512,219.83984 122.07324,220.33398 120.3291,220.62109 C 116.39551,221.27832 119.8833,213.4043 116.20361,217.93359 C 110.1748,217.34766 111.97412,219.01367 111.97412,219.01367 C 105.59717,218.55176 107.49365,222.41699 108.021,222.28613 z "
   style="fill:none;stroke:black;stroke-width:1.40595925;stroke-linecap:round"
   id="path99" />
		<path
   d="M 124.59131,182.51465 C 121.08057,184.85742 120.39404,183.55566 117.05615,187.22559 C 115.17871,189.30176 111.23242,189.66016 110.25293,188.86621 C 109.26709,188.08496 109.00049,186.31543 107.56201,187.03711 C 106.12109,187.75977 105.47021,186.8418 103.95703,187.03711 C 102.45068,187.22559 101.79687,190.7793 103.03662,191.49512 C 102.71094,192.08008 100.59326,192.33398 101.59863,193.91504 C 100.67773,194.89746 99.633301,197.97559 104.67627,198.30078 C 104.94287,200.20117 108.28125,202.23145 108.8667,202.04297 C 110.58154,201.46973 113.39258,200.46777 112.21143,197.52051 C 113.25928,197.91113 113.78613,197.58496 114.70361,197.52051 C 114.70361,198.62695 114.50537,200.7998 117.44971,199.87598 C 120.40088,198.96484 123.02002,196.93457 120.98633,195.1582 C 120.26758,194.37109 124.65967,193.45996 126.03271,194.96973 C 126.69336,194.57227 127.0835,194.0459 127.15186,193.33008 C 126.9502,195.36035 125.9707,195.29492 127.67236,196.93457 C 128.32959,195.1582 129.6377,196.34863 129.771,192.53613 C 129.83594,193.4668 130.36328,195.29492 130.36328,195.29492 C 130.36328,195.29492 131.73633,195.1582 131.93457,191.75488 C 131.99023,193.19336 130.81543,195.41895 133.96143,196.40137 C 132.98242,194.57227 134.68066,194.43555 133.76953,192.08008 C 134.68066,193.19336 134.62207,193.91504 135.86182,192.7959 C 139.07324,194.11035 143.26367,196.93457 145.68799,198.96484 C 148.11475,200.98828 151.97998,204.99023 150.07959,209.24609 C 148.18018,213.50195 148.18018,217.04199 148.18018,218.1543 C 148.18018,219.26758 147.39209,224.0498 142.08252,224.57715 C 142.67822,225.22754 143.07178,226.15137 146.7417,225.16309 C 146.14307,226.03418 145.95459,226.54199 146.28662,229.22949 C 147.06689,227.98633 147.26221,227.45313 147.52881,227.19238 C 146.21436,228.96973 144.96826,232.24219 147.13232,232.7627 C 148.25146,227.72656 150.86768,228.76758 151.78467,223.79004 C 151.71924,225.55273 152.30518,227.00391 153.94482,228.37695 C 155.58447,229.75684 153.35303,234.0127 150.34033,236.76465 C 147.32764,239.51758 146.54639,236.10742 144.50928,238.20313 C 142.67822,240.09668 141.49707,241.67773 144.50928,243.44727 C 143.59521,244.16309 142.41748,246.64941 144.05127,247.70313 C 146.4751,249.25195 148.57666,249.21289 150.5415,247.24805 C 151.5835,247.89844 161.74072,248.68555 157.2251,242.53027 C 157.94678,242.32813 158.53272,242.32813 158.27197,240.89063 C 159.6001,240.33691 163.05518,242.26953 162.65772,236.76465 C 164.28467,236.56348 168.03272,234.07715 161.47998,234.66309 C 164.8833,234.86523 169.34717,232.1123 162.98389,232.24219 C 165.14404,232.1123 171.11084,230.34277 163.84229,230.21191 C 166.84912,229.95215 173.14111,228.44238 164.94873,228.57227 C 166.19775,228.44238 173.00439,226.2168 166.39307,226.15137 C 169.21045,225.8916 173.47314,224.77832 166.00244,224.18652 C 163.77783,223.32715 163.64111,221.23242 161.01807,220.05469 C 159.00146,219.01367 162.26807,212.85156 160.43311,208.53027 C 163.05518,211.3418 163.51709,212.38867 167.10889,214.42578 C 170.71436,216.45605 174.521,220.44531 174.64404,225.8916 C 177.07178,224.51172 177.26709,220.97168 176.21924,217.75781 C 178.31397,218.08984 183.88428,219.00684 185.52393,216.25391 C 183.68897,216.18945 180.28564,214.49121 177.92432,214.68652 C 178.646,213.76855 182.1792,214.16602 184.21631,209.96191 C 183.03857,210.16406 180.50049,209.67578 176.62256,212.55859 C 177.61768,211.28906 179.30322,208.27051 178.57471,207.02051 C 177.26709,207.02051 172.71826,206.89063 172.06104,206.95605 C 172.84229,207.89258 173.23877,211.0293 171.57275,211.27637 C 168.74854,211.56934 167.05029,209.11621 164.55811,205.12109 C 163.36768,203.20117 159.77588,198.17773 158.40283,194.17578 C 157.53076,191.65039 156.37256,189.46484 154.66748,185.98926 C 153.68506,186.12012 150.93213,185.53418 149.09717,183.36035 C 148.51123,185.07227 147.26221,185.79395 148.11475,189.5293 C 147.13232,188.80762 143.32861,187.16113 143.59521,182.9707 C 141.23682,184.74023 139.85693,185.59961 138.61084,185.39746 C 137.36475,186.5752 138.22705,186.77734 134.48877,187.95508 C 133.96143,184.41504 136.38574,183.8291 135.00586,181.34375 C 131.47607,183.89453 124.59131,182.51465 124.59131,182.51465 z "
   style="fill:white"
   id="path101" />
		<path
   d="M 124.59131,182.51465 C 121.08057,184.85742 120.39404,183.55566 117.05615,187.22559 C 115.17871,189.30176 111.23242,189.66016 110.25293,188.86621 C 109.26709,188.08496 109.00049,186.31543 107.56201,187.03711 C 106.12109,187.75977 105.47021,186.8418 103.95703,187.03711 C 102.45068,187.22559 101.79687,190.7793 103.03662,191.49512 C 102.71094,192.08008 100.59326,192.33398 101.59863,193.91504 C 100.67773,194.89746 99.633301,197.97559 104.67627,198.30078 C 104.94287,200.20117 108.28125,202.23145 108.8667,202.04297 C 110.58154,201.46973 113.39258,200.46777 112.21143,197.52051 C 113.25928,197.91113 113.78613,197.58496 114.70361,197.52051 C 114.70361,198.62695 114.50537,200.7998 117.44971,199.87598 C 120.40088,198.96484 123.02002,196.93457 120.98633,195.1582 C 120.26758,194.37109 124.65967,193.45996 126.03271,194.96973 C 126.69336,194.57227 127.0835,194.0459 127.15186,193.33008 C 126.9502,195.36035 125.9707,195.29492 127.67236,196.93457 C 128.32959,195.1582 129.6377,196.34863 129.771,192.53613 C 129.83594,193.4668 130.36328,195.29492 130.36328,195.29492 C 130.36328,195.29492 131.73633,195.1582 131.93457,191.75488 C 131.99023,193.19336 130.81543,195.41895 133.96143,196.40137 C 132.98242,194.57227 134.68066,194.43555 133.76953,192.08008 C 134.68066,193.19336 134.62207,193.91504 135.86182,192.7959 C 139.07324,194.11035 143.26367,196.93457 145.68799,198.96484 C 148.11475,200.98828 151.97998,204.99023 150.07959,209.24609 C 148.18018,213.50195 148.18018,217.04199 148.18018,218.1543 C 148.18018,219.26758 147.39209,224.0498 142.08252,224.57715 C 142.67822,225.22754 143.07178,226.15137 146.7417,225.16309 C 146.14307,226.03418 145.95459,226.54199 146.28662,229.22949 C 147.06689,227.98633 147.26221,227.45313 147.52881,227.19238 C 146.21436,228.96973 144.96826,232.24219 147.13232,232.7627 C 148.25146,227.72656 150.86768,228.76758 151.78467,223.79004 C 151.71924,225.55273 152.30518,227.00391 153.94482,228.37695 C 155.58447,229.75684 153.35303,234.0127 150.34033,236.76465 C 147.32764,239.51758 146.54639,236.10742 144.50928,238.20313 C 142.67822,240.09668 141.49707,241.67773 144.50928,243.44727 C 143.59521,244.16309 142.41748,246.64941 144.05127,247.70313 C 146.4751,249.25195 148.57666,249.21289 150.5415,247.24805 C 151.5835,247.89844 161.74072,248.68555 157.2251,242.53027 C 157.94678,242.32813 158.53272,242.32813 158.27197,240.89063 C 159.6001,240.33691 163.05518,242.26953 162.65772,236.76465 C 164.28467,236.56348 168.03272,234.07715 161.47998,234.66309 C 164.8833,234.86523 169.34717,232.1123 162.98389,232.24219 C 165.14404,232.1123 171.11084,230.34277 163.84229,230.21191 C 166.84912,229.95215 173.14111,228.44238 164.94873,228.57227 C 166.19775,228.44238 173.00439,226.2168 166.39307,226.15137 C 169.21045,225.8916 173.47314,224.77832 166.00244,224.18652 C 163.77783,223.32715 163.64111,221.23242 161.01807,220.05469 C 159.00146,219.01367 162.26807,212.85156 160.43311,208.53027 C 163.05518,211.3418 163.51709,212.38867 167.10889,214.42578 C 170.71436,216.45605 174.521,220.44531 174.64404,225.8916 C 177.07178,224.51172 177.26709,220.97168 176.21924,217.75781 C 178.31397,218.08984 183.88428,219.00684 185.52393,216.25391 C 183.68897,216.18945 180.28564,214.49121 177.92432,214.68652 C 178.646,213.76855 182.1792,214.16602 184.21631,209.96191 C 183.03857,210.16406 180.50049,209.67578 176.62256,212.55859 C 177.61768,211.28906 179.30322,208.27051 178.57471,207.02051 C 177.26709,207.02051 172.71826,206.89063 172.06104,206.95605 C 172.84229,207.89258 173.23877,211.0293 171.57275,211.27637 C 168.74854,211.56934 167.05029,209.11621 164.55811,205.12109 C 163.36768,203.20117 159.77588,198.17773 158.40283,194.17578 C 157.53076,191.65039 156.37256,189.46484 154.66748,185.98926 C 153.68506,186.12012 150.93213,185.53418 149.09717,183.36035 C 148.51123,185.07227 147.26221,185.79395 148.11475,189.5293 C 147.13232,188.80762 143.32861,187.16113 143.59521,182.9707 C 141.23682,184.74023 139.85693,185.59961 138.61084,185.39746 C 137.36475,186.5752 138.22705,186.77734 134.48877,187.95508 C 133.96143,184.41504 136.38574,183.8291 135.00586,181.34375 C 131.47607,183.89453 124.59131,182.51465 124.59131,182.51465 z "
   style="fill:none;stroke:black;stroke-width:1.40595925;stroke-linecap:round"
   id="path103" />
		<path
   d="M 131.27734,168.43359 C 124.79297,161.15527 121.10693,160.73535 119.68164,158.40576 C 116.6626,153.49316 119.29443,153.08643 119.35645,151.33594 C 119.41504,149.4292 116.7959,147.40234 115.94336,147.46387 C 115.09766,147.5293 112.99902,148.97705 112.99902,148.97705 C 112.99902,148.97705 112.31885,147.04443 111.5249,146.61816 C 110.43848,146.02295 105.06982,145.56397 106.51465,151.52783 C 103.03662,151.78809 102.84473,161.75098 108.34619,157.81689 C 108.99365,157.3584 108.80811,158.99805 109.7876,159.64893 C 108.5415,160.43604 108.14795,160.37109 109.06885,162.40137 C 111.2583,167.24902 113.98486,165.28418 114.57031,165.28418 C 115.16602,165.28418 114.96387,167.05371 116.33691,167.44434 C 115.68311,168.43359 110.11279,169.40918 116.604,169.40918 C 114.04346,170.07324 111.56104,174.91406 119.28809,172.09668 C 115.02588,174.6543 118.30859,174.71973 119.8833,174.52441 C 116.86426,176.55469 119.09619,175.70215 121.84863,175.70215 C 114.63867,178.64941 122.10889,179.7041 124.26611,177.80371 C 122.36572,179.10547 121.58203,181.79883 122.82813,183.56934 C 125.11865,183.49707 130.16455,174.6416 131.66797,173.54785 C 129.6377,170.26855 131.27734,168.43359 131.27734,168.43359 z "
   style="fill:white"
   id="path105" />
		<path
   d="M 131.27734,168.43359 C 124.79297,161.15527 121.10693,160.73535 119.68164,158.40576 C 116.6626,153.49316 119.29443,153.08643 119.35645,151.33594 C 119.41504,149.4292 116.7959,147.40234 115.94336,147.46387 C 115.09766,147.5293 112.99902,148.97705 112.99902,148.97705 C 112.99902,148.97705 112.31885,147.04443 111.5249,146.61816 C 110.43848,146.02295 105.06982,145.56397 106.51465,151.52783 C 103.03662,151.78809 102.84473,161.75098 108.34619,157.81689 C 108.99365,157.3584 108.80811,158.99805 109.7876,159.64893 C 108.5415,160.43604 108.14795,160.37109 109.06885,162.40137 C 111.2583,167.24902 113.98486,165.28418 114.57031,165.28418 C 115.16602,165.28418 114.96387,167.05371 116.33691,167.44434 C 115.68311,168.43359 110.11279,169.40918 116.604,169.40918 C 114.04346,170.07324 111.56104,174.91406 119.28809,172.09668 C 115.02588,174.6543 118.30859,174.71973 119.8833,174.52441 C 116.86426,176.55469 119.09619,175.70215 121.84863,175.70215 C 114.63867,178.64941 122.10889,179.7041 124.26611,177.80371 C 122.36572,179.10547 121.58203,181.79883 122.82813,183.56934 C 125.11865,183.49707 130.16455,174.6416 131.66797,173.54785 C 129.6377,170.26855 131.27734,168.43359 131.27734,168.43359 z "
   style="fill:none;stroke:black;stroke-width:1.40595925;stroke-linecap:round"
   id="path107" />
		<path
   d="M 103.95703,144.94238 C 109.16602,142.68457 112.11377,144.64307 111.5249,146.61816 C 110.93311,148.57666 107.78027,148.99658 106.9082,147.10303 C 106.31592,145.83105 103.95703,144.94238 103.95703,144.94238 z "
   style="fill:#fff200"
   id="path109" />
		<path
   d="M 103.95703,144.94238 C 109.16602,142.68457 112.11377,144.64307 111.5249,146.61816 C 110.93311,148.57666 107.78027,148.99658 106.9082,147.10303 C 106.31592,145.83105 103.95703,144.94238 103.95703,144.94238 z "
   style="fill:none;stroke:black;stroke-width:1.40595925;stroke-linecap:round"
   id="path111" />
		<path
   d="M 99.437988,155.16553 C 102.97803,150.72754 106.50146,151.08203 106.9082,153.09277 C 107.30859,155.10693 104.71533,156.95801 103.04932,155.69238 C 101.93701,154.83984 99.437988,155.16553 99.437988,155.16553 z "
   style="fill:#fff200"
   id="path113" />
		<path
   d="M 99.437988,155.16553 C 102.97803,150.72754 106.50146,151.08203 106.9082,153.09277 C 107.30859,155.10693 104.71533,156.95801 103.04932,155.69238 C 101.93701,154.83984 99.437988,155.16553 99.437988,155.16553 z "
   style="fill:none;stroke:black;stroke-width:1.40595925;stroke-linecap:round"
   id="path115" />
		<path
   d="M 116.05078,143.16602 C 120.55371,146.61816 120.25439,151.09521 118.26953,150.59424 C 116.14502,150.05371 114.36523,148.47607 115.5918,146.79053 C 116.41846,145.6582 116.05078,143.16602 116.05078,143.16602 z "
   style="fill:#fff200"
   id="path117" />
		<path
   d="M 116.05078,143.16602 C 120.55371,146.61816 120.25439,151.09521 118.26953,150.59424 C 116.14502,150.05371 114.36523,148.47607 115.5918,146.79053 C 116.41846,145.6582 116.05078,143.16602 116.05078,143.16602 z "
   style="fill:none;stroke:black;stroke-width:1.40595925;stroke-linecap:round"
   id="path119" />
		<path
   d="M 101.29248,184.44141 C 106.92773,183.78418 109.1792,186.5166 108.04688,188.22852 C 106.92139,189.93262 103.7749,189.42578 103.48242,187.3623 C 103.29053,185.96973 101.29248,184.44141 101.29248,184.44141 z "
   style="fill:#fff200"
   id="path121" />
		<path
   d="M 101.29248,184.44141 C 106.92773,183.78418 109.1792,186.5166 108.04688,188.22852 C 106.92139,189.93262 103.7749,189.42578 103.48242,187.3623 C 103.29053,185.96973 101.29248,184.44141 101.29248,184.44141 z "
   style="fill:none;stroke:black;stroke-width:1.40595925;stroke-linecap:round"
   id="path123" />
		<path
   d="M 105.01465,164.34082 C 109.94727,167.1582 113.09326,165.53125 112.71924,163.50781 C 112.35156,161.49658 109.26074,160.729 108.18701,162.51465 C 107.46143,163.72266 105.01465,164.34082 105.01465,164.34082 z "
   style="fill:#fff200"
   id="path125" />
		<path
   d="M 105.01465,164.34082 C 109.94727,167.1582 113.09326,165.53125 112.71924,163.50781 C 112.35156,161.49658 109.26074,160.729 108.18701,162.51465 C 107.46143,163.72266 105.01465,164.34082 105.01465,164.34082 z "
   style="fill:none;stroke:black;stroke-width:1.40595925;stroke-linecap:round"
   id="path127" />
		<path
   d="M 97.840332,199.5957 C 98.432617,193.94824 101.5918,192.34668 103.01709,193.82422 C 104.43555,195.30762 103.25146,198.26172 101.17236,198.09277 C 99.766602,197.97559 97.840332,199.5957 97.840332,199.5957 z "
   style="fill:#fff200"
   id="path129" />
		<path
   d="M 97.840332,199.5957 C 98.432617,193.94824 101.5918,192.34668 103.01709,193.82422 C 104.43555,195.30762 103.25146,198.26172 101.17236,198.09277 C 99.766602,197.97559 97.840332,199.5957 97.840332,199.5957 z "
   style="fill:none;stroke:black;stroke-width:1.40595925;stroke-linecap:round"
   id="path131" />
		<path
   d="M 105.82813,206.80566 C 103.73584,201.52832 105.79541,198.63965 107.74121,199.29688 C 109.68701,199.94141 110.00586,203.11621 108.08936,203.92969 C 106.78809,204.47656 105.82813,206.80566 105.82813,206.80566 z "
   style="fill:#fff200"
   id="path133" />
		<path
   d="M 105.82813,206.80566 C 103.73584,201.52832 105.79541,198.63965 107.74121,199.29688 C 109.68701,199.94141 110.00586,203.11621 108.08936,203.92969 C 106.78809,204.47656 105.82813,206.80566 105.82813,206.80566 z "
   style="fill:none;stroke:black;stroke-width:1.40595925;stroke-linecap:round"
   id="path135" />
		<path
   d="M 116.28516,204.41797 C 121.0874,201.39844 121.13623,197.85254 119.17432,197.2207 C 117.21533,196.60938 115.09766,198.97168 116.16455,200.76074 C 116.88379,201.9707 116.28516,204.41797 116.28516,204.41797 z "
   style="fill:#fff200"
   id="path137" />
		<path
   d="M 116.28516,204.41797 C 121.0874,201.39844 121.13623,197.85254 119.17432,197.2207 C 117.21533,196.60938 115.09766,198.97168 116.16455,200.76074 C 116.88379,201.9707 116.28516,204.41797 116.28516,204.41797 z "
   style="fill:none;stroke:black;stroke-width:1.40595925;stroke-linecap:round"
   id="path139" />
		<path
   d="M 118.20117,234.83203 C 123.57959,233.00977 124.43848,229.56836 122.68164,228.50684 C 120.92773,227.45313 118.30859,229.26172 118.93652,231.24707 C 119.35645,232.59375 118.20117,234.83203 118.20117,234.83203 z "
   style="fill:#fff200"
   id="path141" />
		<path
   d="M 118.20117,234.83203 C 123.57959,233.00977 124.43848,229.56836 122.68164,228.50684 C 120.92773,227.45313 118.30859,229.26172 118.93652,231.24707 C 119.35645,232.59375 118.20117,234.83203 118.20117,234.83203 z "
   style="fill:none;stroke:black;stroke-width:1.40595925;stroke-linecap:round"
   id="path143" />
		<path
   d="M 165.08545,244.00098 C 165.66455,238.3457 162.89893,236.13379 161.20752,237.29199 C 159.51514,238.44336 160.06787,241.58691 162.13721,241.84668 C 163.52979,242.0166 165.08545,244.00098 165.08545,244.00098 z "
   style="fill:#fff200"
   id="path145" />
		<path
   d="M 165.08545,244.00098 C 165.66455,238.3457 162.89893,236.13379 161.20752,237.29199 C 159.51514,238.44336 160.06787,241.58691 162.13721,241.84668 C 163.52979,242.0166 165.08545,244.00098 165.08545,244.00098 z "
   style="fill:none;stroke:black;stroke-width:1.40595925;stroke-linecap:round"
   id="path147" />
		<path
   d="M 111.23242,213.73633 C 116.88379,214.23047 118.54297,217.36035 117.08887,218.81152 C 115.63086,220.25586 112.65723,219.12402 112.79053,217.04199 C 112.88525,215.63574 111.23242,213.73633 111.23242,213.73633 z "
   style="fill:#fff200"
   id="path149" />
		<path
   d="M 111.23242,213.73633 C 116.88379,214.23047 118.54297,217.36035 117.08887,218.81152 C 115.63086,220.25586 112.65723,219.12402 112.79053,217.04199 C 112.88525,215.63574 111.23242,213.73633 111.23242,213.73633 z "
   style="fill:none;stroke:black;stroke-width:1.40595925;stroke-linecap:round"
   id="path151" />
		<path
   d="M 103.47559,222.14355 C 107.67627,218.30371 111.09229,219.21484 111.18018,221.26465 C 111.25195,223.31445 108.4082,224.7334 106.96045,223.22363 C 105.99414,222.20801 103.47559,222.14355 103.47559,222.14355 z "
   style="fill:#fff200"
   id="path153" />
		<path
   d="M 103.47559,222.14355 C 107.67627,218.30371 111.09229,219.21484 111.18018,221.26465 C 111.25195,223.31445 108.4082,224.7334 106.96045,223.22363 C 105.99414,222.20801 103.47559,222.14355 103.47559,222.14355 z "
   style="fill:none;stroke:black;stroke-width:1.40595925;stroke-linecap:round"
   id="path155" />
		<path
   d="M 108.49268,230.84961 C 110.53906,225.55273 114.01074,224.83691 114.99658,226.64648 C 115.98242,228.44238 114.06592,230.98047 112.09766,230.27734 C 110.77979,229.7959 108.49268,230.84961 108.49268,230.84961 z "
   style="fill:#fff200"
   id="path157" />
		<path
   d="M 108.49268,230.84961 C 110.53906,225.55273 114.01074,224.83691 114.99658,226.64648 C 115.98242,228.44238 114.06592,230.98047 112.09766,230.27734 C 110.77979,229.7959 108.49268,230.84961 108.49268,230.84961 z "
   style="fill:none;stroke:black;stroke-width:1.40595925;stroke-linecap:round"
   id="path159" />
		<path
   d="M 142.87646,252.31738 C 142.54443,246.64941 145.40088,244.56055 147.04736,245.79004 C 148.68701,247.02051 148.00439,250.11719 145.92139,250.29297 C 144.51611,250.4043 142.87646,252.31738 142.87646,252.31738 z "
   style="fill:#fff200"
   id="path161" />
		<path
   d="M 142.87646,252.31738 C 142.54443,246.64941 145.40088,244.56055 147.04736,245.79004 C 148.68701,247.02051 148.00439,250.11719 145.92139,250.29297 C 144.51611,250.4043 142.87646,252.31738 142.87646,252.31738 z "
   style="fill:none;stroke:black;stroke-width:1.40595925;stroke-linecap:round"
   id="path163" />
		<path
   d="M 138.95264,240.87109 C 143.02295,236.90137 146.4751,237.69531 146.62451,239.73828 C 146.76807,241.78809 143.96924,243.30469 142.48291,241.84668 C 141.47754,240.85742 138.95264,240.87109 138.95264,240.87109 z "
   style="fill:#fff200"
   id="path165" />
		<path
   d="M 138.95264,240.87109 C 143.02295,236.90137 146.4751,237.69531 146.62451,239.73828 C 146.76807,241.78809 143.96924,243.30469 142.48291,241.84668 C 141.47754,240.85742 138.95264,240.87109 138.95264,240.87109 z "
   style="fill:none;stroke:black;stroke-width:1.40595925;stroke-linecap:round"
   id="path167" />
		<path
   d="M 153.71729,252.79199 C 150.6333,248.02832 152.07764,244.79492 154.12061,245.05469 C 156.15088,245.30859 157.08154,248.35449 155.36377,249.52539 C 154.19873,250.31934 153.71729,252.79199 153.71729,252.79199 z "
   style="fill:#fff200"
   id="path169" />
		<path
   d="M 153.71729,252.79199 C 150.6333,248.02832 152.07764,244.79492 154.12061,245.05469 C 156.15088,245.30859 157.08154,248.35449 155.36377,249.52539 C 154.19873,250.31934 153.71729,252.79199 153.71729,252.79199 z "
   style="fill:none;stroke:black;stroke-width:1.40595925;stroke-linecap:round"
   id="path171" />
		<path
   d="M 147.44482,204.66504 C 147.78271,207.48926 146.33838,210.06641 149.49463,210.82129 M 147.854,213.43652 C 145.23486,214.16602 144.05127,214.55566 141.56543,214.68652 M 133.43457,224.83691 C 134.67432,225.33789 134.62207,226.03418 135.20801,226.47754 M 131.4043,225.10449 C 132.06152,225.9502 131.91504,226.22949 132.70898,226.58105 M 127.41211,225.9502 C 128.07275,227.65527 128.85693,228.70215 129.771,229.36621 M 129.37744,225.22754 C 130.16455,227.06934 130.68848,227.3291 131.47607,227.84961 M 127.01855,208.27051 C 125.58057,208.33496 124.46777,207.93848 123.08838,207.80762 M 116.99756,220.77637 C 115.16602,221.10254 112.35156,219.52734 111.85352,219.00684 M 158.05811,202.41406 C 159.48291,204.7168 159.61279,207.7627 160.4458,208.62109 M 154.86279,190.64258 C 153.48291,188.18262 152.33154,187.49902 151.84326,185.33203 M 134.375,189.66016 C 133.39551,191.12988 133.76953,192.08008 133.76953,192.08008 M 138.55225,190.44043 C 137.521,190.07617 137.34521,189.60742 137.07227,188.96973 C 135.99512,190.64258 136.84766,191.72266 135.86182,192.7959 M 144.50928,243.44727 C 146.80713,242.6543 146.99561,241.99707 147.69189,241.32617 C 148.42041,240.61035 148.47217,239.77734 149.75439,239.2832 M 150.5415,247.24805 C 150.5415,247.24805 150.36572,245.13281 150.65869,243.46094 C 150.95166,241.79492 152.53955,239.63477 152.37646,240.63672 M 118.37061,223.10645 C 115.97607,223.65918 115.71875,224.31641 113.85156,224.31641 C 111.98682,224.31641 110.9917,224.32324 110.69873,225.00684 M 126.9502,223.75684 C 129.30908,221.79199 130.53564,223.56152 131.9707,222.87207 C 132.78076,222.48145 132.45508,220.91309 132.1626,220.32129 M 159.75635,225.67676 C 161.51904,225.80078 161.9292,226.33398 161.71436,227.46582 C 161.42139,228.11035 161.05713,227.93457 160.63428,228.20117 C 160.37451,228.37695 159.39209,229.14453 159.40479,230.0498 M 157.51709,204.30078 C 157.81006,207.72363 158.9165,208.13379 158.79248,211.39355 M 128.72363,187.59668 C 131.27734,187.99414 132.45508,187.68848 132.36084,186.61426 C 132.26318,185.53418 132.38379,186.12012 132.26318,185.57324 M 121.06104,186.70508 C 122.72705,185.53418 129.70264,183.26953 133.54199,177.66699 M 109.80713,190.83105 C 107.54932,190.96094 108.38232,191.42969 106.51465,191.72266 C 104.65039,192.01563 103.98975,191.16309 103.03662,191.49512 M 110.93311,192.50977 C 109.72607,192.85449 109.6543,193.88965 109.26709,194.37109 C 108.8667,194.86523 107.79346,196.23828 106.51465,196.0498 C 105.23584,195.85449 104.41602,197.12305 104.67627,198.30078 M 124.65967,164.24316 C 127.0835,166.14258 128.39795,168.56348 130.49023,169.68262 M 127.93945,174.91406 C 125.37891,174.45898 125.31348,174.26367 125.24561,171.83691 M 114.89893,153.75342 C 113.71777,152.57568 112.73877,150.67529 113.06396,148.71045 M 114.04346,156.50586 C 111.09229,153.69482 111.61963,155.19775 109.7876,153.30078 C 107.95605,150.47998 107.6958,151.39453 106.51465,151.52783"
   style="fill:none;stroke:black;stroke-width:1.40595925;stroke-linecap:round"
   id="path173" />
		<path
   d="M 138.15234,149.5625 C 137.46582,149.5625 136.5874,150.64941 136.48633,151.23486 C 135.62109,151.40088 128.07275,152.90723 130.42188,156.05371 C 130.55518,158.40576 130.98145,157.81689 132.65723,159.18994 C 134.22217,157.61865 137.66748,156.93213 138.94629,157.42334 C 140.21826,157.91113 140.71289,160.56934 141.78955,161.06396 C 142.87647,161.54883 139.04053,163.42285 137.07227,163.42285 C 135.11328,163.42285 133.04736,167.84082 135.99512,165.18652 C 137.3584,164.21387 138.62744,165.03711 139.99072,164.30176 C 140.41699,164.07324 139.88623,166.18848 140.51758,166.20117 C 141.82568,167.50977 142.28418,166.79395 142.60986,163.64746 C 143.85596,164.82813 144.20361,163.68945 143.79053,161.61719 C 144.18408,162.86328 144.44775,164.24316 147.00244,164.24316 C 145.68799,162.33594 147.13232,160.82959 144.18408,158.99805 C 144.48389,159.29736 148.68115,160.46191 144.44775,157.32568 C 145.62939,157.75195 151.97998,157.68359 143.56299,155.26611 C 141.2041,154.57959 146.01318,148.97705 146.01318,148.97705 L 138.15234,149.5625 z "
   style="fill:white"
   id="path175" />
		<path
   d="M 138.15234,149.5625 C 137.46582,149.5625 136.5874,150.64941 136.48633,151.23486 C 135.62109,151.40088 128.07275,152.90723 130.42188,156.05371 C 130.55518,158.40576 130.98145,157.81689 132.65723,159.18994 C 134.22217,157.61865 137.66748,156.93213 138.94629,157.42334 C 140.21826,157.91113 140.71289,160.56934 141.78955,161.06396 C 142.87647,161.54883 139.04053,163.42285 137.07227,163.42285 C 135.11328,163.42285 133.04736,167.84082 135.99512,165.18652 C 137.3584,164.21387 138.62744,165.03711 139.99072,164.30176 C 140.41699,164.07324 139.88623,166.18848 140.51758,166.20117 C 141.82568,167.50977 142.28418,166.79395 142.60986,163.64746 C 143.85596,164.82813 144.20361,163.68945 143.79053,161.61719 C 144.18408,162.86328 144.44775,164.24316 147.00244,164.24316 C 145.68799,162.33594 147.13232,160.82959 144.18408,158.99805 C 144.48389,159.29736 148.68115,160.46191 144.44775,157.32568 C 145.62939,157.75195 151.97998,157.68359 143.56299,155.26611 C 141.2041,154.57959 146.01318,148.97705 146.01318,148.97705 L 138.15234,149.5625 z "
   style="fill:none;stroke:black;stroke-width:1.40595925;stroke-linecap:round"
   id="path177" />
		<path
   d="M 130.94873,156.05371 C 133.50293,154.08496 135.99512,153.59375 136.28809,153.69482 M 136.38574,151.62891 C 137.85938,152.60791 137.56689,157.12402 138.94629,157.42334"
   style="fill:none;stroke:black;stroke-width:1.40595925;stroke-linecap:round"
   id="path179" />
		<path
   d="M 174.31885,160.76465 C 173.63525,160.07178 167.44775,152.21436 173.43408,150.15479 C 174.02002,147.89014 167.14795,147.59766 168.22803,151.0332 C 167.9292,146.51709 163.70557,143.95996 164.20068,142.38525 C 164.68799,140.82031 161.05713,146.70947 165.87256,150.3501 C 162.43701,146.41016 163.21826,147.40234 163.21826,147.40234 C 163.21826,147.40234 161.44775,151.7749 165.33252,154.33252 C 164.05029,153.24561 163.4126,152.75439 162.87256,152.16895 C 162.42432,152.85547 162.12451,158.29834 166.65381,159.09863 C 165.08545,158.60449 164.84424,158.22363 163.16553,156.97754 C 162.47607,159.04346 164.78564,161.15527 167.24561,161.06396 C 165.76904,161.45752 164.68799,161.15527 163.76416,162.92871 C 162.87256,164.7959 165.67139,166.07813 165.67139,166.07813 C 165.67139,166.07813 164.98779,161.25586 173.18701,164.54883 C 174.27295,163.36719 176.72705,163.2207 174.31885,160.76465 z "
   style="fill:white"
   id="path181" />
		<path
   d="M 174.31885,160.76465 C 173.63525,160.07178 167.44775,152.21436 173.43408,150.15479 C 174.02002,147.89014 167.14795,147.59766 168.22803,151.0332 C 167.9292,146.51709 163.70557,143.95996 164.20068,142.38525 C 164.68799,140.82031 161.05713,146.70947 165.87256,150.3501 C 162.43701,146.41016 163.21826,147.40234 163.21826,147.40234 C 163.21826,147.40234 161.44775,151.7749 165.33252,154.33252 C 164.05029,153.24561 163.4126,152.75439 162.87256,152.16895 C 162.42432,152.85547 162.12451,158.29834 166.65381,159.09863 C 165.08545,158.60449 164.84424,158.22363 163.16553,156.97754 C 162.47607,159.04346 164.78564,161.15527 167.24561,161.06396 C 165.76904,161.45752 164.68799,161.15527 163.76416,162.92871 C 162.87256,164.7959 165.67139,166.07813 165.67139,166.07813 C 165.67139,166.07813 164.98779,161.25586 173.18701,164.54883 C 174.27295,163.36719 176.72705,163.2207 174.31885,160.76465 z "
   style="fill:none;stroke:black;stroke-width:1.40595925;stroke-linecap:round"
   id="path183" />
		<path
   d="M 175.39893,150.05371 C 177.90479,151.62891 182.03662,154.71973 174.07178,162.18945 C 166.11963,169.65625 164.24561,176.39844 163.95264,178.4541 C 160.36768,176.73633 160.07471,175.5127 158.89697,174.91406 C 157.32275,175.76074 158.89697,182.1377 163.21826,182.43652 C 162.47607,182.47559 157.56299,180.0293 158.20752,180.31543 C 157.52393,180.00293 157.76514,185.28711 163.4126,186.70508 C 160.12061,185.42969 159.97705,184.93555 159.18994,185.04004 C 158.40283,185.13672 161.20068,190.0498 164.63623,190.7334 C 163.36084,190.54492 161.9292,189.5625 161.05713,189.66016 C 160.17236,189.75098 161.83838,195.06738 166.16553,195.65234 C 163.70557,194.86523 163.27002,195.1123 162.38525,194.61816 C 161.59131,194.17578 165.76904,198.65234 168.91846,200.07715 C 166.56201,199.29004 166.60107,199.14746 165.57373,198.75 C 165.10498,198.57422 168.28076,202.58301 169.75146,202.87598 C 169.75146,204.65234 170.98779,207.09863 172.354,207.06641 C 173.18701,207.04687 176.84326,207.05371 178.57471,207.02051 C 179.479,207.00781 180.90381,204.79492 180.85889,202.97363 C 182.12744,202.47852 183.22119,201.69824 184.14502,199.87598 C 184.93896,198.33984 184.63916,198.40527 181.49658,199.87598 C 184.93896,198.1123 186.70166,196.34863 186.50732,194.96973 C 186.30518,193.58984 186.75439,194.22754 183.95654,195.45801 C 186.90381,194.52051 188.37451,190.7334 188.56982,189.5625 C 188.76514,188.38379 186.1167,190.98047 185.03662,191.18262 C 187.83447,190.44043 189.3501,187.2002 189.6499,185.53418 C 189.94873,183.86816 187.04736,186.85547 186.05811,186.95312 C 188.27002,185.78125 190.92529,183.95898 190.23584,180.80957 C 189.55225,177.66699 188.51709,182.38477 186.90381,182.28711 C 187.68506,182.52734 190.63916,179.0918 190.2876,175.99512 C 190.14404,174.66699 187.09912,177.86914 185.62158,178.25879 C 185.13428,175.70215 180.22705,165.92773 177.36475,163.96289 C 176.5835,164.35352 175.10596,165.14062 174.65771,165.86914 C 176.03662,167.00781 182.64795,175.85156 181.89307,184.1543 C 181.10596,192.7959 177.85889,198.69824 176.5835,199.58301 C 175.25635,197.12305 178.10596,192.94531 176.33643,190.93555 C 175.646,191.92383 175.47705,192.50977 175.30127,193.78516 C 175.354,192.11328 175.50342,190.7334 174.521,188.5791 C 173.73291,191.76758 171.91162,195.30762 172.95264,199.78516 C 171.61182,197.91113 168.13037,190.61621 167.73389,188.08496 C 166.60107,180.91406 168.54053,166.83887 177.85889,163.71582 C 184.14502,161.59424 184.93896,165.23145 185.08154,166.07813 C 188.81689,161.40234 183.7085,161.00879 182.479,161.35693 C 184.73682,160.72217 187.39795,159.78516 186.46143,156.88623 C 185.91455,157.23145 183.85889,158.85156 182.97314,159.14453 C 182.08838,159.43701 189.50049,155.99805 187.00146,151.42676 C 185.91455,152.31494 184.5874,154.71973 183.7085,155.31152 C 182.82373,155.90039 189.40283,149.75439 186.94971,146.61816 C 186.1167,147.50293 183.81982,150.02148 184.24854,149.5625 C 189.25928,144.2041 185.71924,140.57324 185.86865,142.38525 C 184.88623,143.66406 181.15186,145.83105 180.51416,150.25586 C 179.72607,147.25586 175.0083,148.1377 175.39893,150.05371 z "
   style="fill:white"
   id="path185" />
		<path
   d="M 175.39893,150.05371 C 177.90479,151.62891 182.03662,154.71973 174.07178,162.18945 C 166.11963,169.65625 164.24561,176.39844 163.95264,178.4541 C 160.36768,176.73633 160.07471,175.5127 158.89697,174.91406 C 157.32275,175.76074 158.89697,182.1377 163.21826,182.43652 C 162.47607,182.47559 157.56299,180.0293 158.20752,180.31543 C 157.52393,180.00293 157.76514,185.28711 163.4126,186.70508 C 160.12061,185.42969 159.97705,184.93555 159.18994,185.04004 C 158.40283,185.13672 161.20068,190.0498 164.63623,190.7334 C 163.36084,190.54492 161.9292,189.5625 161.05713,189.66016 C 160.17236,189.75098 161.83838,195.06738 166.16553,195.65234 C 163.70557,194.86523 163.27002,195.1123 162.38525,194.61816 C 161.59131,194.17578 165.76904,198.65234 168.91846,200.07715 C 166.56201,199.29004 166.60107,199.14746 165.57373,198.75 C 165.10498,198.57422 168.28076,202.58301 169.75146,202.87598 C 169.75146,204.65234 170.98779,207.09863 172.354,207.06641 C 173.18701,207.04687 176.84326,207.05371 178.57471,207.02051 C 179.479,207.00781 180.90381,204.79492 180.85889,202.97363 C 182.12744,202.47852 183.22119,201.69824 184.14502,199.87598 C 184.93896,198.33984 184.63916,198.40527 181.49658,199.87598 C 184.93896,198.1123 186.70166,196.34863 186.50732,194.96973 C 186.30518,193.58984 186.75439,194.22754 183.95654,195.45801 C 186.90381,194.52051 188.37451,190.7334 188.56982,189.5625 C 188.76514,188.38379 186.1167,190.98047 185.03662,191.18262 C 187.83447,190.44043 189.3501,187.2002 189.6499,185.53418 C 189.94873,183.86816 187.04736,186.85547 186.05811,186.95312 C 188.27002,185.78125 190.92529,183.95898 190.23584,180.80957 C 189.55225,177.66699 188.51709,182.38477 186.90381,182.28711 C 187.68506,182.52734 190.63916,179.0918 190.2876,175.99512 C 190.14404,174.66699 187.09912,177.86914 185.62158,178.25879 C 185.13428,175.70215 180.22705,165.92773 177.36475,163.96289 C 176.5835,164.35352 175.10596,165.14062 174.65771,165.86914 C 176.03662,167.00781 182.64795,175.85156 181.89307,184.1543 C 181.10596,192.7959 177.85889,198.69824 176.5835,199.58301 C 175.25635,197.12305 178.10596,192.94531 176.33643,190.93555 C 175.646,191.92383 175.47705,192.50977 175.30127,193.78516 C 175.354,192.11328 175.50342,190.7334 174.521,188.5791 C 173.73291,191.76758 171.91162,195.30762 172.95264,199.78516 C 171.61182,197.91113 168.13037,190.61621 167.73389,188.08496 C 166.60107,180.91406 168.54053,166.83887 177.85889,163.71582 C 184.14502,161.59424 184.93896,165.23145 185.08154,166.07813 C 188.81689,161.40234 183.7085,161.00879 182.479,161.35693 C 184.73682,160.72217 187.39795,159.78516 186.46143,156.88623 C 185.91455,157.23145 183.85889,158.85156 182.97314,159.14453 C 182.08838,159.43701 189.50049,155.99805 187.00146,151.42676 C 185.91455,152.31494 184.5874,154.71973 183.7085,155.31152 C 182.82373,155.90039 189.40283,149.75439 186.94971,146.61816 C 186.1167,147.50293 183.81982,150.02148 184.24854,149.5625 C 189.25928,144.2041 185.71924,140.57324 185.86865,142.38525 C 184.88623,143.66406 181.15186,145.83105 180.51416,150.25586 C 179.72607,147.25586 175.0083,148.1377 175.39893,150.05371 z "
   style="fill:none;stroke:black;stroke-width:1.40595925;stroke-linecap:round"
   id="path187" />
		
			<line
   x1="169.75146"
   y1="202.83008"
   x2="181.0083"
   y2="202.83008"
   id="line189"
   stroke-linecap="round"
   stroke-width="1.4059592"
   stroke="#000000"
   fill="none"
   style="fill:none;stroke:black;stroke-width:1.40595925;stroke-linecap:round" />
		<path
   d="M 142.38525,156.05371 C 142.99023,157.46582 144.77686,154.17969 145.49561,153.854 C 146.21436,153.52539 146.7417,153.00146 146.61182,150.74023 C 146.4751,148.48242 144.90381,148.28418 143.4624,150.47998 C 142.02393,152.67285 142.28418,155.81934 142.38525,156.05371 z "
   style="fill:white"
   id="path191" />
		<path
   d="M 142.38525,156.05371 C 142.99023,157.46582 144.77686,154.17969 145.49561,153.854 C 146.21436,153.52539 146.7417,153.00146 146.61182,150.74023 C 146.4751,148.48242 144.90381,148.28418 143.4624,150.47998 C 142.02393,152.67285 142.28418,155.81934 142.38525,156.05371 z "
   style="fill:none;stroke:white;stroke-width:0.69964802"
   id="path193" />
		<path
   d="M 137.76514,154.47217 C 140.12402,153.59375 142.48291,150.94238 144.64307,152.21436 M 136.98096,152.02246 C 139.82471,150.74023 141.49707,150.74023 142.57715,151.72607"
   style="fill:none;stroke:black;stroke-width:1.40595925;stroke-linecap:round"
   id="path195" />
		<path
   d="M 150.76318,149.4292 L 152.91748,142.02734 C 152.91748,142.02734 153.18408,139.44092 150.59424,142.55127 C 150.17725,143.05225 147.74365,144.25928 149.57861,145.92529 C 148.79834,144.87744 147.54834,145.11816 146.85889,145.95752 C 147.48389,145.11182 148.86279,143.89844 146.57275,141.93311 C 145.29053,140.29346 144.40869,138.75439 142.50244,141.59814 C 139.35937,143.76465 140.79736,145.23877 141.65625,145.83105 C 141.65625,145.83105 140.21191,144.41895 138.90039,145.95752 C 140.57275,143.83008 139.04053,142.94482 138.53955,142.38525 C 136.31396,139.86719 136.28125,141.86475 136.28125,141.86475 C 136.54199,143.0459 138.05127,149.4292 138.05127,149.4292 L 150.76318,149.4292 z "
   style="fill:#fff200"
   id="path197" />
		<path
   d="M 150.76318,149.4292 L 152.91748,142.02734 C 152.91748,142.02734 153.18408,139.44092 150.59424,142.55127 C 150.17725,143.05225 147.74365,144.25928 149.57861,145.92529 C 148.79834,144.87744 147.54834,145.11816 146.85889,145.95752 C 147.48389,145.11182 148.86279,143.89844 146.57275,141.93311 C 145.29053,140.29346 144.40869,138.75439 142.50244,141.59814 C 139.35937,143.76465 140.79736,145.23877 141.65625,145.83105 C 141.65625,145.83105 140.21191,144.41895 138.90039,145.95752 C 140.57275,143.83008 139.04053,142.94482 138.53955,142.38525 C 136.31396,139.86719 136.28125,141.86475 136.28125,141.86475 C 136.54199,143.0459 138.05127,149.4292 138.05127,149.4292 L 150.76318,149.4292 z "
   style="fill:none;stroke:black;stroke-width:1.40595925;stroke-linecap:round"
   id="path199" />
		<path
   d="M 149.25342,245.25684 C 150.72412,245.47754 150.3335,245.75098 150.6333,247.22168 M 137.625,147.00879 L 151.34912,147.00879"
   style="fill:none;stroke:black;stroke-width:1.40595925;stroke-linecap:round"
   id="path201" />
	</g>
</svg>