<?xml version="1.0" encoding="UTF-8" standalone="no"?>
<!-- Created with Inkscape (http://www.inkscape.org/) -->
<svg
   xmlns:dc="http://purl.org/dc/elements/1.1/"
   xmlns:cc="http://web.resource.org/cc/"
   xmlns:rdf="http://www.w3.org/1999/02/22-rdf-syntax-ns#"
   xmlns:svg="http://www.w3.org/2000/svg"
   xmlns="http://www.w3.org/2000/svg"
   xmlns:sodipodi="http://sodipodi.sourceforge.net/DTD/sodipodi-0.dtd"
   xmlns:inkscape="http://www.inkscape.org/namespaces/inkscape"
   width="730.02673"
   height="850.02673"
   id="svg2"
   inkscape:label="Pozadí"
   sodipodi:version="0.32"
   inkscape:version="0.45.1"
   version="1.0"
   sodipodi:docbase="F:\Heraldika\Obecní\Hradec Králové"
   sodipodi:docname="Hradec_Králové_CoA_CZ.svg"
   inkscape:output_extension="org.inkscape.output.svg.inkscape">
  <defs
     id="defs3181" />
  <sodipodi:namedview
     id="base"
     pagecolor="#ffffff"
     bordercolor="#666666"
     borderopacity="1.0"
     inkscape:pageopacity="0.0"
     inkscape:pageshadow="2"
     inkscape:zoom="0.35"
     inkscape:cx="375"
     inkscape:cy="520"
     inkscape:document-units="px"
     inkscape:current-layer="svg2"
     inkscape:window-width="757"
     inkscape:window-height="579"
     inkscape:window-x="22"
     inkscape:window-y="22" />
  <metadata
     id="metadata3184">
    <rdf:RDF>
      <cc:Work
         rdf:about="">
        <dc:format>image/svg+xml</dc:format>
        <dc:type
           rdf:resource="http://purl.org/dc/dcmitype/StillImage" />
      </cc:Work>
    </rdf:RDF>
  </metadata>
  <path
     d="M 3,3 L 4.53243,517.93944 C 4.53243,724.401 172.89489,847.02675 365.91031,847.02675 C 565.21853,847.02675 727.02666,715.76308 727.02676,517.93944 L 726.30916,3 L 3,3 z "
     style="fill:#cc0000;fill-opacity:1;stroke:#000000;stroke-width:6;stroke-miterlimit:4;stroke-dasharray:none;stroke-opacity:1;display:inline"
     id="path2959" />
  <path
     style="fill:#fbe404;fill-opacity:1;fill-rule:evenodd;stroke:#000000;stroke-width:3;stroke-linecap:butt;stroke-linejoin:miter;stroke-miterlimit:4;stroke-dasharray:none;stroke-opacity:1"
     d="M 317.91006,169.5792 C 323.87725,161.61698 329.30118,152.86829 344.77185,152.76642 C 360.22951,152.66463 376.24527,158.65401 391.15191,153.53942 C 407.36375,147.977 405.88522,135.7604 406.03218,126.29114 C 414.90314,136.63103 420.40151,150.56886 407.77143,163.20194 C 400.89401,170.081 388.76865,168.94597 378.39739,167.83994 C 362.34186,166.12772 346.64259,164.63291 333.17683,175.56995 L 317.91006,169.5792 z "
     id="path5779"
     sodipodi:nodetypes="csscsscc" />
  <path
     style="font-size:425.87185669px;font-style:normal;font-variant:normal;font-weight:bold;font-stretch:normal;text-align:center;line-height:125%;writing-mode:lr-tb;text-anchor:middle;fill:#fbe404;fill-opacity:1;stroke:#000000;stroke-width:3;stroke-linecap:butt;stroke-linejoin:miter;stroke-miterlimit:4;stroke-dasharray:none;stroke-opacity:1;font-family:Bookman Old Style"
     d="M 597.51988,331.78328 L 691.43969,331.78328 C 677.36558,381.5987 686.26181,438.91007 689.58071,494.84986 L 657.68841,494.84986 L 649.44307,467.05496 C 639.69366,478.54354 629.58148,487.15995 619.10638,492.90423 C 608.63105,498.6485 597.74096,501.52063 586.43616,501.52065 C 566.6265,501.52063 548.58013,492.90423 532.29698,475.67138 C 516.01368,458.43857 503.12709,434.34967 493.63721,403.40462 C 484.14726,372.45974 479.40233,337.80879 479.40233,299.45166 C 479.40233,261.46551 484.09542,227.46311 493.48168,197.44433 C 502.86778,167.42616 515.98772,143.75419 532.84148,126.42834 C 549.69508,109.10324 567.9748,100.4405 587.68077,100.4401 C 597.22242,100.4405 606.73825,102.61776 616.22828,106.97191 C 625.71808,111.32683 633.83377,117.11743 640.57542,124.34372 L 665.6927,152.66167 L 681.86026,121.32233 L 698.17446,127.88146 C 673.36407,169.99201 668.15072,216.02194 672.40922,263.94626 L 648.70331,266.41177 C 646.0596,236.06014 641.63831,204.85661 635.98602,194.66484 C 630.33337,184.47368 623.85124,176.50582 616.53943,170.76122 C 609.2274,165.01727 602.09701,162.14514 595.14827,162.14481 C 585.29517,162.14514 576.09049,167.24086 567.53414,177.43201 C 558.97757,187.62377 552.21019,202.49403 547.2319,222.04284 C 542.25354,241.59217 540.85759,265.26414 540.85766,293.05883 C 540.85759,323.63339 542.48689,350.13118 547.93201,372.55227 C 553.37699,394.97359 560.50737,411.60419 569.32325,422.44413 C 578.1389,433.28421 587.83623,438.70421 598.41525,438.70415 C 605.8826,438.70421 612.96115,436.01737 619.65088,430.64362 C 626.34038,425.27001 630.92978,419.24778 633.41908,412.57693 C 635.90807,405.90624 637.15268,396.91924 637.15282,385.61587 L 637.15282,371.44046 C 634.97169,353.51349 616.97171,354.2816 599.15973,354.82748 L 597.51988,331.78328 z "
     id="text5130"
     sodipodi:nodetypes="cccccssssssscsccccccssssssssssscccc" />
  <path
     style="fill:#ffffff;fill-opacity:1;fill-rule:evenodd;stroke:#000000;stroke-width:3;stroke-linecap:butt;stroke-linejoin:miter;stroke-miterlimit:4;stroke-dasharray:none;stroke-opacity:1"
     d="M 325.44682,535.40194 C 348.33126,541.96149 372.63216,542.04579 388.63966,580.04276 C 407.0181,570.30191 417.6505,585.88873 394.82366,608.64379 C 381.65598,621.77008 387.28691,641.30309 387.28691,641.30309 C 387.28691,641.30309 395.78992,629.70807 408.93094,631.25407 C 421.22773,632.70075 428.25596,613.47505 428.25596,613.47505 C 428.25596,613.47505 434.43997,632.80008 421.29895,641.30309 C 410.31876,648.40792 411.24994,662.94712 411.24994,662.94712 C 411.24994,662.94712 420.41638,655.27843 432.50747,654.83061 C 442.94298,654.44411 454.538,641.30309 454.538,641.30309 C 454.538,641.30309 447.56328,654.789 452.992,663.72012 C 458.98276,673.57588 452.79875,679.37339 452.219,683.04514 C 457.05026,680.33964 467.48577,675.12188 469.99802,666.03912 C 472.84784,655.73591 480.04703,650.5791 480.04703,650.5791 C 480.04703,650.5791 478.10082,663.22932 483.13904,670.67712 C 487.58379,677.24763 485.45804,686.13715 485.45804,686.13715 C 495.01759,678.41779 500.11912,668.86278 500.91806,657.53611 C 512.82916,660.14719 524.30083,660.56114 535.70311,660.62811 C 549.89965,681.7671 574.4799,671.57899 570.48816,647.48709 C 583.6206,670.70139 620.02331,649.72822 601.4082,621.20506 C 607.89972,600.82628 602.86345,589.82604 578.99117,594.15002 C 561.79239,570.87348 541.15443,587.14606 544.97912,609.61004 C 544.97912,609.61004 511.54682,611.92905 496.66655,605.16529 C 481.78628,598.40153 482.12447,589.85021 485.45804,582.55501 C 491.88406,568.49227 482.9941,558.59198 474.05627,546.41721 C 465.11845,534.24244 449.70674,533.85594 449.70674,533.85594 C 449.70674,533.85594 470.38452,537.52769 483.91204,529.99093 C 497.62266,522.35216 506.32907,518.39592 506.32907,518.39592 C 506.32907,518.39592 486.64272,520.40702 473.86302,508.54016 C 463.04101,498.49114 438.30498,502.9359 438.30498,502.9359 C 448.57241,498.2194 455.45126,491.94348 460.14226,476.07411 C 454.79963,476.88594 447.90838,493.96936 422.6517,475.30111 C 390.47485,451.51786 355.97765,440.91083 319.26281,441.86881 L 325.44682,535.40194 z "
     id="path3172"
     sodipodi:nodetypes="ccscscscscscscscccccccssscscsccscc" />
  <path
     style="fill:#fcec04;fill-opacity:1;fill-rule:evenodd;stroke:#000000;stroke-width:3;stroke-linecap:butt;stroke-linejoin:miter;stroke-miterlimit:4;stroke-dasharray:none;stroke-opacity:1"
     d="M 361.19812,167.45344 L 356.94662,157.59768 L 345.3516,170.73869 L 361.19812,167.45344 z "
     id="path3164" />
  <path
     style="fill:#ffffff;fill-opacity:1;fill-rule:evenodd;stroke:#000000;stroke-width:3;stroke-linecap:butt;stroke-linejoin:miter;stroke-miterlimit:4;stroke-dasharray:none;stroke-opacity:1"
     d="M 330.85783,506.8009 C 332.79057,509.37788 359.56503,512.12094 359.45887,495.20589 C 359.40607,486.69695 347.5508,481.61502 340.90684,481.67837 C 335.99109,462.69505 345.72881,455.03486 351.34236,444.18782 L 318.87631,444.38107 C 319.74614,466.74968 310.27111,494.29073 330.85783,506.8009 z "
     id="path5781"
     sodipodi:nodetypes="cscccc" />
  <path
     style="fill:#ffffff;fill-opacity:1;fill-rule:evenodd;stroke:#000000;stroke-width:3;stroke-linecap:butt;stroke-linejoin:miter;stroke-miterlimit:4;stroke-dasharray:none;stroke-opacity:1"
     d="M 121.18129,297.70412 C 118.86228,297.70412 107.84702,315.48314 107.84702,315.48314 C 75.855432,289.4581 61.172074,250.96824 61.466956,203.78449 C 47.546303,190.28029 46.168556,172.51429 54.896447,155.66517 C 61.371639,143.16487 60.307454,130.34939 60.307454,130.34939 C 66.676956,135.94496 71.022804,142.42589 69.196966,151.60692 C 69.196966,151.60692 73.129917,135.5627 83.304236,123.58563 C 94.083402,110.89655 102.43601,89.76683 102.43601,89.76683 C 103.9917,109.74032 108.18918,129.2106 88.908493,153.15292 C 98.85331,146.63548 109.593,142.66164 117.12303,128.41689 C 121.56413,155.40364 111.59878,166.01447 98.571006,175.56995 C 84.430473,185.9416 85.043488,192.96248 85.043488,192.96248 C 96.856164,183.25589 108.13357,181.57839 117.89603,202.62499 C 101.44378,202.24713 94.129632,208.09979 88.908493,215.37951 C 86.121822,235.12381 87.891721,253.53044 96.802787,270.7575 C 102.2071,281.20524 107.66354,289.00231 121.18129,297.70412 z "
     id="path3170"
     sodipodi:nodetypes="cccsccscccscccsc" />
  <path
     style="fill:#ffffff;fill-opacity:1;fill-rule:evenodd;stroke:#000000;stroke-width:3;stroke-linecap:butt;stroke-linejoin:miter;stroke-miterlimit:4;stroke-dasharray:none;stroke-opacity:1"
     d="M 259.09907,740.42122 C 231.92556,746.86278 240.16137,765.47014 254.65107,771.94339 C 264.21487,776.21601 281.17086,774.29856 280.96284,761.1918 C 284.92632,776.61559 282.8135,792.21517 313.73668,787.98469 C 340.71852,784.29341 319.95463,765.16816 314.57839,759.82531 C 328.11265,780.85027 346.1479,773.15418 350.6551,765.62154 C 356.33668,756.12622 351.84205,734.94378 324.41709,742.3343 C 352.72078,737.80893 346.96232,728.26327 341.32372,722.40941 C 337.99099,718.94945 318.39228,710.17961 295.24866,720.74382 C 295.24866,720.74382 293.741,688.31493 279.83976,669.51762 C 266.58259,651.59122 269.54747,645.2197 281.77226,633.18657 C 291.63473,623.47872 307.64862,620.23964 311.1463,601.49353 C 313.79629,614.61674 322.55172,615.52908 330.08483,618.88606 C 324.54515,600.72057 322.67702,583.47297 321.19532,566.32198 C 332.46174,592.92342 348.96907,604.38449 369.50788,604.19904 C 369.50788,604.19904 354.43437,581.58876 357.52637,564.77598 C 361.12257,545.22167 332.40383,533.85594 332.40383,533.85594 C 341.92162,535.10189 352.1071,538.12836 358.68587,531.53693 C 352.76905,524.65267 348.34051,517.35859 345.21591,509.86868 C 314.76227,487.66148 319.58897,452.88999 343.64188,442.52068 C 354.40722,437.87969 359.99243,420.64699 368.73488,412.88128 C 367.73605,418.67879 368.2266,424.47629 373.37289,430.2738 C 382.99784,421.38429 387.23756,412.49477 390.76541,403.60526 C 391.49622,413.39661 395.26847,423.18795 390.37891,432.9793 C 400.42004,428.45435 410.83734,424.68175 415.88795,410.17577 C 417.57427,422.41428 415.6844,434.86315 434.05347,446.12032 C 431.26333,432.07827 437.50948,423.84527 449.12699,419.06528 C 441.96565,453.87992 494.62852,444.10202 513.67258,460.42084 C 509.31309,490.87616 560.54865,480.29765 556.81342,466.41677 C 574.17753,483.36163 625.64349,479.1337 596.89363,448.86239 C 603.18407,440.76071 602.93945,417.58551 583.11176,419.53284 C 581.32898,400.81825 559.27191,395.61392 547.36345,413.01234 C 543.66045,418.42248 526.50408,420.92844 522.17559,416.74629 C 507.51369,402.58005 487.00404,388.04862 466.51951,362.63621 C 444.43585,335.23997 434.43997,325.91866 434.43997,325.91866 C 447.05131,328.44778 453.36925,322.57845 463.04101,341.76518 C 464.08049,332.10267 465.10081,322.44015 461.10851,312.77764 L 477.34153,324.37265 C 472.62076,311.18308 468.69548,297.55961 452.992,290.36061 C 464.07168,285.5974 468.96735,281.80544 480.04703,289.20111 C 484.89168,249.28933 482.78727,214.67206 507.87507,159.33693 C 527.75483,166.34205 532.68468,153.06645 536.60691,143.11669 C 554.72046,143.25031 560.95901,135.88393 559.51067,123.66267 C 583.20585,125.18592 591.55438,98.816 562.72681,102.28337 C 534.38276,105.69258 516.49676,115.67267 490.86905,154.69892 C 470.25475,186.09067 471.59859,191.91015 448.74049,203.78449 C 426.42008,215.37951 404.29293,218.47151 404.29293,218.47151 C 409.87943,209.1955 416.3243,199.91948 413.95544,190.64347 C 401.89352,208.23498 382.66085,202.72075 361.39137,190.64347 C 367.6181,182.14046 368.52348,173.63745 367.57538,165.13444 C 367.57538,165.13444 337.2351,175.95646 328.92533,169.77245 C 317.6165,161.35658 317.0125,140.14968 324.67382,134.2144 C 327.337,132.15122 334.7724,131.47102 340.36104,133.17934 C 346.57002,135.07729 349.68445,140.5875 356.56012,140.39841 C 369.19564,140.05091 375.79162,135.22829 379.76933,128.09881 C 381.61038,124.79898 385.08821,122.29457 384.1949,117.20837 C 383.05217,110.70208 372.21892,108.96774 361.77508,101.36434 C 352.95647,94.94416 347.86385,83.19633 347.86385,83.19633 L 258.58223,82.42332 C 258.58223,82.42332 224.76598,116.26534 228.82169,139.2389 C 232.2473,158.64326 216.97041,163.60884 203.31266,164.74794 C 210.91384,177.88955 218.51501,176.39946 226.11619,180.20796 C 227.66133,194.25038 222.76361,205.07137 209.88317,211.901 C 233.13078,222.68037 236.15853,214.50363 243.89521,210.7415 L 234.2327,220.40401 C 234.2327,220.40401 238.38758,234.2214 235.3922,243.59404 C 232.39682,252.96668 222.25118,257.89456 222.25118,257.89456 C 234.04784,262.73279 243.56366,261.29871 251.23872,254.80256 C 229.53041,271.95984 233.502,293.5832 234.6192,314.71014 C 241.44738,304.84644 248.27555,295.31711 255.10373,291.52011 C 252.4371,308.3973 256.7715,325.27449 264.37974,342.15168 C 273.52059,334.26803 279.7021,322.31529 280.61276,303.11513 C 277.58452,330.55667 280.31831,357.9982 269.01775,385.43974 C 269.01775,385.43974 226.37179,433.55097 220.70518,466.60485 C 216.69299,490.00831 198.11473,489.25483 185.14713,492.88688 C 196.34425,479.31363 209.40277,468.25874 203.69916,431.8198 C 203.69916,431.8198 211.71905,426.98854 215.29418,415.58678 C 218.86931,404.18501 215.87393,400.03013 216.84018,390.46425 C 217.80643,380.89836 221.86468,373.45822 221.86468,373.45822 C 209.33635,380.02096 200.60434,390.19541 196.35565,403.99176 C 195.7857,359.64407 160.21595,338.29416 138.96031,311.81139 L 124.46654,328.43091 C 141.01986,350.60053 168.40036,365.53777 171.23311,400.51326 C 162.98776,390.20657 154.74241,386.08391 146.49707,388.14524 C 146.49707,388.14524 156.89517,397.60659 156.54608,412.88128 C 156.17431,429.14793 166.4488,437.17167 177.41712,443.80132 C 174.18636,463.05477 171.63211,482.7968 150.36207,489.02188 C 128.69499,493.44152 113.92521,466.82333 98.184506,444.57432 C 98.184506,444.57432 109.19976,438.00381 113.25802,421.38429 C 117.31628,404.76477 110.55252,378.86923 110.55252,378.86923 C 105.40697,389.54735 101.01472,400.5483 88.908493,408.24327 C 88.908493,408.24327 86.132933,377.95263 112.09852,344.47068 C 137.80081,311.32826 160.71942,284.58574 185.92013,264.07857 C 194.31277,257.24903 202.66849,259.21211 211.04267,262.53257 C 213.19882,244.42902 210.02464,239.68577 187.46614,243.20754 C 187.46614,243.20754 196.43001,227.58901 197.90165,203.78449 C 199.75705,173.77246 176.74161,147.35427 175.87112,148.51492 C 175.87112,148.51492 169.97699,175.56995 168.91411,192.96248 C 167.85123,210.355 171.61961,218.08501 171.61961,218.08501 C 162.74972,212.26798 156.29277,203.62324 154.61358,187.55147 C 154.61358,187.55147 144.76689,207.30181 146.49707,221.95002 C 148.16362,236.05957 154.09805,243.06287 163.50309,245.91305 C 161.50686,253.75459 130.12343,286.31904 104.75501,313.55064 C 81.371977,338.65105 69.08826,367.14538 66.877963,390.85075 C 59.912143,375.44065 50.221136,375.47329 40.209427,377.32323 C 40.209427,377.32323 48.780145,386.59938 44.847433,404.76476 C 40.789177,423.51004 71.90247,444.57432 71.90247,444.57432 C 91.846411,488.96613 117.34028,523.69031 168.91411,512.98491 L 128.71805,527.67193 C 114.94939,538.37062 105.87496,550.63406 110.55252,567.48149 C 117.8471,556.64558 128.34879,549.37935 145.69007,548.22756 C 161.47189,547.17935 171.27856,548.12815 181.28213,523.80693 C 179.19001,537.26638 189.95063,546.87001 197.51515,557.43247 C 195.44651,544.35917 197.67317,528.96686 207.80498,518.98556 C 211.22032,515.62096 211.5436,510.08945 215.29417,506.0279 C 215.29417,506.0279 210.96669,513.99648 216.9924,519.10627 C 224.72687,525.6651 227.14206,537.42425 226.88919,546.22396 C 226.40606,563.03673 213.36167,573.279 213.36167,573.279 C 190.9938,570.29718 169.56411,563.12489 164.27609,585.26051 C 185.56078,579.3477 195.83855,588.84455 207.17766,596.85553 C 207.17766,596.85553 195.55839,610.33595 180.12263,608.06404 C 146.8019,603.15973 140.4903,613.21809 132.58305,628.16207 C 132.58305,628.16207 150.34727,623.24544 162.73009,631.64057 C 174.13187,639.37058 192.10414,621.97806 192.10414,621.97806 C 184.19908,634.02215 178.7284,647.43559 155.00008,650.5791 C 162.88745,663.49968 178.28472,667.33068 196.74215,649.4196 C 192.96652,671.91287 210.16562,676.67461 185.14713,685.75065 C 194.98253,694.22286 204.1688,695.55474 212.97517,692.70765 C 213.13023,699.10161 202.81782,705.70729 195.96915,710.10018 C 207.42094,713.75139 219.86179,721.76692 232.3002,713.57868 C 240.23472,722.87858 235.63494,736.60236 259.09907,740.42122 z "
     id="path5777"
     sodipodi:nodetypes="cscscscscssccccscccscccccccccccssscccccccccsssccccsssssssccscccccscccccccsccssccccccscccsccssccscsccscsccsccccsccscsscccscscccccccc" />
  <path
     style="fill:#fbe404;fill-opacity:1;fill-rule:evenodd;stroke:#000000;stroke-width:2.99999976;stroke-linecap:butt;stroke-linejoin:miter;stroke-miterlimit:4;stroke-dasharray:none;stroke-opacity:1"
     d="M 303.59932,20.89115 C 300.65914,25.23069 293.04035,24.2576 292.76515,32.28855 C 292.64526,35.78593 296.60896,37.50323 297.7542,42.72362 C 290.86846,33.87688 287.09357,39.86126 283.6385,44.67508 C 286.78165,48.2159 287.37695,63.71687 297.48756,56.53578 C 298.58496,58.51455 295.09043,65.718 294.62311,66.0477 C 290.12253,68.42677 280.14562,69.7346 277.42792,61.99287 C 274.34063,70.196 269.10719,64.66406 266.60683,62.285 C 264.10645,59.90594 263.74706,59.26723 261.74667,55.46072 C 273.41832,54.49065 270.86808,43.29924 272.55922,39.33485 C 268.66914,38.33311 261.12184,26.93 255.59636,39.1362 C 252.00715,30.98474 252.07772,28.47678 243.97316,29.58625 C 245.3344,30.49731 249.93776,41.35713 251.09763,48.01712 C 254.92902,61.16793 255.43268,67.26304 254.73625,80.03514 C 270.8874,83.82041 282.69191,83.07899 303.62066,83.04513 C 324.5497,83.01127 337.34294,83.40475 352.41057,80.03514 C 351.71415,67.26304 353.40032,58.17623 356.79448,48.3348 C 359.2632,41.17663 362.7822,33.13207 364.1434,32.22101 C 356.52038,30.89887 355.14815,31.42737 351.55893,39.1362 C 346.03346,26.93 338.47761,38.33311 334.58752,39.33485 C 336.27866,43.29924 333.72851,54.49065 345.40006,55.46072 C 343.39977,59.26723 343.04893,59.90594 340.54857,62.285 C 338.04828,64.66406 332.80612,70.196 329.71881,61.99287 C 327.00111,69.7346 317.02421,68.42677 312.52372,66.0477 C 312.05632,65.718 308.56178,58.51455 309.65927,56.53578 C 319.76978,63.71687 320.37364,48.2159 323.51688,44.67508 C 320.06182,39.86126 316.27828,33.87688 309.39253,42.72362 C 310.53779,37.50323 314.44093,35.49361 314.39024,32.28855 C 314.24679,23.21499 307.35636,25.61446 303.59932,20.89115 z "
     id="path4256"
     sodipodi:nodetypes="cscccccscccccczcsccccscccccsc" />
  <path
     style="fill:none;fill-rule:evenodd;stroke:#000000;stroke-width:3;stroke-linecap:butt;stroke-linejoin:miter;stroke-miterlimit:4;stroke-dasharray:none;stroke-opacity:1"
     d="M 281.11791,221.45622 C 281.11791,221.45622 271.05641,232.8402 279.55431,244.38865 C 289.71751,258.20023 279.55431,278.7873 279.55431,278.7873 C 286.46921,277.10364 294.63181,279.78677 298.31721,266.7999 C 298.31721,266.7999 294.42711,287.16123 304.70181,295.46544 C 314.21351,303.15301 318.12251,315.79191 318.12251,315.79191 C 324.47771,309.66891 327.54841,299.46855 323.85561,280.87207 C 327.51531,286.87931 330.76371,292.92082 338.44901,298.59259 C 335.99521,291.99083 334.17501,285.38906 335.84301,278.7873"
     id="path3188"
     sodipodi:nodetypes="csccscccc" />
  <path
     style="fill:#fbe404;fill-opacity:1;fill-rule:evenodd;stroke:#000000;stroke-width:3;stroke-linecap:butt;stroke-linejoin:miter;stroke-miterlimit:4;stroke-dasharray:none;stroke-opacity:1"
     d="M 239.14838,789.3414 C 242.22936,781.94599 246.60409,774.61451 254.72631,772.26034 C 252.32573,763.97523 247.50807,762.66811 242.97454,760.78185 C 234.16422,770.76455 237.51888,780.05469 239.14838,789.3414 z "
     id="path5769"
     sodipodi:nodetypes="cccc" />
  <path
     sodipodi:nodetypes="cccc"
     id="path5771"
     d="M 311.66882,810.13911 C 311.95076,802.93185 311.24209,794.41583 304.84032,789.44206 C 310.47578,783.5635 315.65253,786.21145 320.55969,786.36903 C 324.40726,797.843 318.66064,806.59588 311.66882,810.13911 z "
     style="fill:#fbe404;fill-opacity:1;fill-rule:evenodd;stroke:#000000;stroke-width:3;stroke-linecap:butt;stroke-linejoin:miter;stroke-miterlimit:4;stroke-dasharray:none;stroke-opacity:1" />
  <path
     style="fill:#fbe404;fill-opacity:1;fill-rule:evenodd;stroke:#000000;stroke-width:3.00000024;stroke-linecap:butt;stroke-linejoin:miter;stroke-miterlimit:4;stroke-dasharray:none;stroke-opacity:1"
     d="M 360.42086,781.37494 C 356.67735,775.2097 353.24713,770.00395 345.16351,769.39063 C 346.61739,761.37801 349.17017,758.69152 353.34889,756.11404 C 362.89102,763.55739 364.29488,774.56084 360.42086,781.37494 z "
     id="path5773"
     sodipodi:nodetypes="cccc" />
  <path
     sodipodi:nodetypes="cccc"
     id="path5775"
     d="M 361.17194,736.09304 C 354.55476,733.22303 347.88785,731.39626 340.9351,735.56526 C 337.49325,728.18491 337.80279,725.04814 339.72484,720.53031 C 351.81359,721.09394 360.39793,728.293 361.17194,736.09304 z "
     style="fill:#fbe404;fill-opacity:1;fill-rule:evenodd;stroke:#000000;stroke-width:3.00000024;stroke-linecap:butt;stroke-linejoin:miter;stroke-miterlimit:4;stroke-dasharray:none;stroke-opacity:1" />
  <path
     style="fill:none;fill-rule:evenodd;stroke:#000000;stroke-width:3;stroke-linecap:butt;stroke-linejoin:miter;stroke-miterlimit:4;stroke-dasharray:none;stroke-opacity:1"
     d="M 311.1463,602.65303 C 312.38668,596.34019 307.99669,588.86785 304.18929,582.55501 C 304.35839,595.56207 292.56197,603.13026 281.77226,611.15604 C 285.45141,601.62236 286.92298,592.08869 281.38576,582.55501"
     id="path3139"
     sodipodi:nodetypes="cccc" />
  <path
     style="fill:none;fill-rule:evenodd;stroke:#000000;stroke-width:3;stroke-linecap:butt;stroke-linejoin:miter;stroke-miterlimit:4;stroke-dasharray:none;stroke-opacity:1"
     d="M 537.63561,143.10391 C 533.98014,138.90705 528.65074,135.71455 519.85659,134.6009"
     id="path3141"
     sodipodi:nodetypes="cc" />
  <path
     style="fill:none;fill-rule:evenodd;stroke:#000000;stroke-width:3;stroke-linecap:butt;stroke-linejoin:miter;stroke-miterlimit:4;stroke-dasharray:none;stroke-opacity:1"
     d="M 560.05264,123.77888 C 558.74339,119.41946 554.32003,118.17414 550.00363,116.82187"
     id="path3143"
     sodipodi:nodetypes="cc" />
  <path
     style="fill:#ffffff;fill-opacity:1;fill-rule:evenodd;stroke:#000000;stroke-width:3;stroke-linecap:butt;stroke-linejoin:miter;stroke-miterlimit:4;stroke-dasharray:none;stroke-opacity:1"
     d="M 272.10975,126.87089 C 255.56769,127.62477 238.16935,128.92684 233.4597,100.97535 C 236.38149,82.90573 249.48047,83.49431 270.95025,99.42935"
     id="path3145"
     sodipodi:nodetypes="ccc" />
  <path
     style="fill:none;fill-rule:evenodd;stroke:#000000;stroke-width:3;stroke-linecap:butt;stroke-linejoin:miter;stroke-miterlimit:4;stroke-dasharray:none;stroke-opacity:1"
     d="M 246.98722,105.61336 C 247.88898,110.21917 252.04623,114.01112 257.03623,117.59487"
     id="path3147"
     sodipodi:nodetypes="cc" />
  <path
     style="fill:none;fill-rule:evenodd;stroke:#000000;stroke-width:3;stroke-linecap:butt;stroke-linejoin:miter;stroke-miterlimit:4;stroke-dasharray:none;stroke-opacity:1"
     d="M 294.91328,126.09788 C 294.91328,126.09788 281.81869,146.28876 289.11578,160.88293 C 296.65254,175.95645 276.74775,189.48397 276.74775,189.48397 C 295.59044,196.42818 300.84367,187.83274 305.3488,176.34295 C 307.82804,182.91346 313.82052,189.48397 323.51432,196.05448 C 327.10811,190.25697 331.58542,184.45947 326.21982,178.66196 C 331.85024,193.09384 343.0096,197.85007 361.00487,190.64347"
     id="path3149"
     sodipodi:nodetypes="csccccc" />
  <path
     style="fill:none;fill-rule:evenodd;stroke:#000000;stroke-width:3;stroke-linecap:butt;stroke-linejoin:miter;stroke-miterlimit:4;stroke-dasharray:none;stroke-opacity:1"
     d="M 280.54591,303.06082 C 280.54591,303.06082 286.65501,325.29827 285.28741,347.06341 C 283.95291,368.30197 301.44431,387.19517 301.44431,387.19517 C 295.81281,343.09713 311.68861,342.01349 323.33441,332.47005 C 323.33441,332.47005 309.58481,350.57422 319.48901,365.38133 C 328.96551,379.54899 330.63111,403.35211 330.63111,403.35211 C 330.63111,403.35211 352.54281,390.97817 348.05291,373.52331 C 342.89221,353.46071 350.43641,334.03362 350.43641,334.03362 C 350.43641,334.03362 353.86471,355.34123 367.63571,366.8687 C 377.32851,374.98243 384.83501,397.09781 384.83501,397.09781 C 404.50791,374.96183 397.94531,351.03707 385.87741,326.73694 C 397.16991,332.4225 408.46241,345.50333 419.75491,371.55942 C 421.32681,348.27953 434.42271,324.99963 411.93701,301.71974 C 423.75151,300.54378 434.81441,302.56156 443.72971,313.70715 C 440.23781,292.20291 429.36241,273.2743 394.73771,262.63036 C 429.18481,267.7991 441.98881,262.59668 443.20851,238.73175 C 443.20851,238.73175 426.34931,241.55692 412.97941,236.57078 C 399.36171,231.4922 387.26931,231.35886 387.26931,231.35886 C 394.64711,226.49441 401.89251,221.62995 404.98981,216.7655"
     id="path5128"
     sodipodi:nodetypes="csccscscscccccccscc" />
  <path
     sodipodi:nodetypes="cccc"
     id="path3151"
     d="M 582.15249,681.70444 C 575.5482,677.16924 569.27238,671.38106 568.63785,662.94839 C 560.03623,663.59487 557.76684,668.04102 554.98907,672.09007 C 562.94783,682.76405 572.72912,681.39044 582.15249,681.70444 z "
     style="fill:#fbe404;fill-opacity:1;fill-rule:evenodd;stroke:#000000;stroke-width:3;stroke-linecap:butt;stroke-linejoin:miter;stroke-miterlimit:4;stroke-dasharray:none;stroke-opacity:1" />
  <path
     style="fill:#fbe404;fill-opacity:1;fill-rule:evenodd;stroke:#000000;stroke-width:3;stroke-linecap:butt;stroke-linejoin:miter;stroke-miterlimit:4;stroke-dasharray:none;stroke-opacity:1"
     d="M 624.39093,648.64894 C 617.71798,645.91108 609.47581,643.65463 602.60737,647.96108 C 599.01941,640.65065 603.28289,636.69679 605.1147,632.14162 C 617.21228,632.4647 623.46192,640.86582 624.39093,648.64894 z "
     id="path3153"
     sodipodi:nodetypes="cccc" />
  <path
     sodipodi:nodetypes="cccc"
     id="path3155"
     d="M 619.85989,591.96957 C 612.97987,594.1351 607.10637,596.22515 604.58332,603.92938 C 597.14846,600.60694 595.14812,597.48723 593.64133,592.81446 C 603.1452,585.3223 614.16601,586.58256 619.85989,591.96957 z "
     style="fill:#fbe404;fill-opacity:1;fill-rule:evenodd;stroke:#000000;stroke-width:3.00000024;stroke-linecap:butt;stroke-linejoin:miter;stroke-miterlimit:4;stroke-dasharray:none;stroke-opacity:1" />
  <path
     style="fill:#fbe404;fill-opacity:1;fill-rule:evenodd;stroke:#000000;stroke-width:3.00000024;stroke-linecap:butt;stroke-linejoin:miter;stroke-miterlimit:4;stroke-dasharray:none;stroke-opacity:1"
     d="M 582.85486,570.4957 C 577.46067,575.28389 572.99133,580.55738 573.83721,588.62 C 565.69376,588.62621 562.98053,587.02198 559.69563,583.37307 C 565.3076,572.65107 575.45664,567.90611 582.85486,570.4957 z "
     id="path3157"
     sodipodi:nodetypes="cccc" />
  <path
     sodipodi:nodetypes="cccc"
     id="path3159"
     d="M 542.64456,503.27592 C 540.48007,495.56233 539.37063,487.09722 544.28672,480.21648 C 537.26861,475.2013 532.6774,477.1607 527.95033,478.48949 C 527.22129,491.78402 535.611,496.99681 542.64456,503.27592 z "
     style="fill:#fbe404;fill-opacity:1;fill-rule:evenodd;stroke:#000000;stroke-width:3;stroke-linecap:butt;stroke-linejoin:miter;stroke-miterlimit:4;stroke-dasharray:none;stroke-opacity:1" />
  <path
     style="fill:#fbe404;fill-opacity:1;fill-rule:evenodd;stroke:#000000;stroke-width:3;stroke-linecap:butt;stroke-linejoin:miter;stroke-miterlimit:4;stroke-dasharray:none;stroke-opacity:1"
     d="M 595.916,495.74327 C 595.40183,488.54884 593.75882,480.16283 586.84784,475.92497 C 591.80101,469.46109 597.23808,471.5223 602.13271,471.13805 C 607.22153,482.11802 602.47468,491.45097 595.916,495.74327 z "
     id="path3161"
     sodipodi:nodetypes="cccc" />
  <path
     sodipodi:nodetypes="cccc"
     id="path3163"
     d="M 618.97704,440.0409 C 612.21851,437.5217 606.30043,435.56145 599.5758,440.08918 C 595.75179,432.89941 596.09067,429.20901 597.77325,424.59663 C 609.87494,424.52579 617.7952,432.29214 618.97704,440.0409 z "
     style="fill:#fbe404;fill-opacity:1;fill-rule:evenodd;stroke:#000000;stroke-width:3.00000024;stroke-linecap:butt;stroke-linejoin:miter;stroke-miterlimit:4;stroke-dasharray:none;stroke-opacity:1" />
  <path
     style="fill:#fbe404;fill-opacity:1;fill-rule:evenodd;stroke:#000000;stroke-width:3.00000024;stroke-linecap:butt;stroke-linejoin:miter;stroke-miterlimit:4;stroke-dasharray:none;stroke-opacity:1"
     d="M 597.61196,403.98047 C 590.57476,405.56223 584.1123,408.01608 580.95291,415.48197 C 573.8224,411.54855 572.2236,408.83212 571.11343,404.0496 C 581.21132,397.37966 592.38924,398.13556 597.61196,403.98047 z "
     id="path3165"
     sodipodi:nodetypes="cccc" />
  <path
     sodipodi:nodetypes="cccc"
     id="path3167"
     d="M 576.59748,136.74925 C 574.95136,131.19258 572.20134,124.88958 565.96859,122.71819 C 568.80255,116.8229 573.48726,117.53295 577.3196,116.41551 C 583.25992,124.17836 581.08343,132.28939 576.59748,136.74925 z "
     style="fill:#fbe404;fill-opacity:1;fill-rule:evenodd;stroke:#000000;stroke-width:3.00000048;stroke-linecap:butt;stroke-linejoin:miter;stroke-miterlimit:4;stroke-dasharray:none;stroke-opacity:1" />
  <path
     style="fill:#fbe404;fill-opacity:1;fill-rule:evenodd;stroke:#000000;stroke-width:3.00000048;stroke-linecap:butt;stroke-linejoin:miter;stroke-miterlimit:4;stroke-dasharray:none;stroke-opacity:1"
     d="M 533.12811,173.8839 C 530.96452,168.50754 527.63148,162.49246 521.2215,160.91946 C 523.48599,154.78286 528.21682,155.04726 531.92648,153.57285 C 538.57345,160.73994 537.17278,169.02028 533.12811,173.8839 z "
     id="path3169"
     sodipodi:nodetypes="cccc" />
  <path
     sodipodi:nodetypes="cccc"
     id="path3171"
     d="M 557.86414,155.33188 C 555.70055,149.95552 552.36751,143.94044 545.95753,142.36744 C 548.22202,136.23084 552.95285,136.49524 556.66251,135.02083 C 563.30948,142.18792 561.90881,150.46826 557.86414,155.33188 z "
     style="fill:#fbe404;fill-opacity:1;fill-rule:evenodd;stroke:#000000;stroke-width:3.00000048;stroke-linecap:butt;stroke-linejoin:miter;stroke-miterlimit:4;stroke-dasharray:none;stroke-opacity:1" />
  <path
     style="fill:none;fill-opacity:0.75;fill-rule:evenodd;stroke:#000000;stroke-width:3;stroke-linecap:butt;stroke-linejoin:miter;stroke-miterlimit:4;stroke-dasharray:none;stroke-opacity:1"
     d="M 596.38369,449.21232 C 584.0537,453.13862 570.6787,451.83985 557.34714,450.75833"
     id="path3158"
     sodipodi:nodetypes="cc" />
  <path
     style="fill:none;fill-opacity:0.75;fill-rule:evenodd;stroke:#000000;stroke-width:3;stroke-linecap:butt;stroke-linejoin:miter;stroke-miterlimit:4;stroke-dasharray:none;stroke-opacity:1"
     d="M 583.62917,419.83828 C 568.32725,424.12167 560.35904,429.21991 554.25513,434.5253"
     id="path3160"
     sodipodi:nodetypes="cc" />
  <path
     style="fill:#fcec04;fill-opacity:1;fill-rule:evenodd;stroke:#000000;stroke-width:3;stroke-linecap:butt;stroke-linejoin:miter;stroke-miterlimit:4;stroke-dasharray:none;stroke-opacity:1"
     d="M 356.75337,140.20515 L 358.68587,153.53942 L 367.96188,138.65915 L 356.75337,140.20515 z "
     id="path3162" />
  <path
     style="fill:none;fill-opacity:0.75;fill-rule:evenodd;stroke:#000000;stroke-width:3;stroke-linecap:butt;stroke-linejoin:miter;stroke-miterlimit:4;stroke-dasharray:none;stroke-opacity:1"
     d="M 298.00529,101.74835 C 316.19591,91.301 328.83219,91.97325 339.36084,101.1686 C 339.36084,101.1686 330.01972,109.56653 323.12782,110.63787 C 316.23593,111.7092 315.39781,105.99986 308.89449,104.10119 C 301.84877,102.04417 298.00529,101.74835 298.00529,101.74835 z "
     id="path3166"
     sodipodi:nodetypes="ccssc" />
  <path
     style="fill:#000000;fill-opacity:1;fill-rule:evenodd;stroke:#000000;stroke-width:1px;stroke-linecap:butt;stroke-linejoin:miter;stroke-opacity:1"
     d="M 325.64007,94.45315 C 329.76448,97.50383 329.56615,107.76223 326.21983,109.18849 C 322.49181,110.77743 315.24295,110.46176 315.39781,107.93236 C 314.30575,103.73564 313.0889,99.55674 314.62481,94.98459 L 325.64007,94.45315 z "
     id="path3168"
     sodipodi:nodetypes="csccc" />
  <path
     style="fill:none;fill-opacity:0.75;fill-rule:evenodd;stroke:#000000;stroke-width:3;stroke-linecap:butt;stroke-linejoin:miter;stroke-miterlimit:4;stroke-dasharray:none;stroke-opacity:1"
     d="M 601.21495,621.01181 C 593.85011,620.58159 586.22144,621.60241 577.83167,626.80932"
     id="path3174"
     sodipodi:nodetypes="cc" />
  <path
     style="fill:none;fill-opacity:0.75;fill-rule:evenodd;stroke:#000000;stroke-width:3;stroke-linecap:butt;stroke-linejoin:miter;stroke-miterlimit:4;stroke-dasharray:none;stroke-opacity:1"
     d="M 578.60467,594.4399 C 573.64772,599.70832 569.79708,605.80648 568.94215,614.15142"
     id="path3176"
     sodipodi:nodetypes="cc" />
  <path
     style="fill:none;fill-opacity:0.75;fill-rule:evenodd;stroke:#000000;stroke-width:3;stroke-linecap:butt;stroke-linejoin:miter;stroke-miterlimit:4;stroke-dasharray:none;stroke-opacity:1"
     d="M 570.87466,648.45334 C 569.09959,645.79795 567.36361,644.08928 563.53115,642.46259"
     id="path3178"
     sodipodi:nodetypes="cc" />
</svg>
