<?xml version="1.0" encoding="UTF-8" standalone="no"?>
<!-- Created with Inkscape (http://www.inkscape.org/) -->
<svg
   xmlns:dc="http://purl.org/dc/elements/1.1/"
   xmlns:cc="http://web.resource.org/cc/"
   xmlns:rdf="http://www.w3.org/1999/02/22-rdf-syntax-ns#"
   xmlns:svg="http://www.w3.org/2000/svg"
   xmlns="http://www.w3.org/2000/svg"
   xmlns:sodipodi="http://sodipodi.sourceforge.net/DTD/sodipodi-0.dtd"
   xmlns:inkscape="http://www.inkscape.org/namespaces/inkscape"
   width="697.53052"
   height="896.7005"
   id="svg2318"
   sodipodi:version="0.32"
   inkscape:version="0.45pre1"
   sodipodi:docname="Liberec erb.svg"
   inkscape:output_extension="org.inkscape.output.svg.inkscape"
   sodipodi:docbase="C:\Downloads"
   version="1.0"
   sodipodi:modified="true">
  <defs
     id="defs2320" />
  <sodipodi:namedview
     id="base"
     pagecolor="#ffffff"
     bordercolor="#ffffff"
     borderopacity="0.0"
     inkscape:pageopacity="0.0"
     inkscape:pageshadow="0"
     inkscape:zoom="0.98994949"
     inkscape:cx="374.40691"
     inkscape:cy="771.80234"
     inkscape:document-units="px"
     inkscape:current-layer="layer1"
     inkscape:window-width="760"
     inkscape:window-height="573"
     inkscape:window-x="1200"
     inkscape:window-y="232" />
  <metadata
     id="metadata2323">
    <rdf:RDF>
      <cc:Work
         rdf:about="">
        <dc:format>image/svg+xml</dc:format>
        <dc:type
           rdf:resource="http://purl.org/dc/dcmitype/StillImage" />
      </cc:Work>
    </rdf:RDF>
  </metadata>
  <g
     inkscape:label="Layer 1"
     inkscape:groupmode="layer"
     id="layer1"
     transform="translate(-31.234752,-32.583378)">
    <path
       style="fill:#ffffff;fill-opacity:1;stroke:#000000;stroke-width:7.2786417;stroke-miterlimit:4;stroke-dasharray:none;stroke-opacity:1"
       d="M 34.874073,36.222699 L 34.874073,585.96182 L 35.216953,585.96182 C 38.166963,773.96409 191.4683,925.64463 379.9714,925.64453 C 568.47433,925.64453 721.83305,773.96411 724.78305,585.96182 L 725.12593,585.96182 L 725.12593,36.222699 L 34.874073,36.222699 z "
       id="prava_vez"
       inkscape:label="#path6523" />
    <path
       style="fill:#c20f00;fill-opacity:1;stroke:#000000;stroke-width:1.73346233;stroke-miterlimit:4;stroke-opacity:1"
       d="M 600.29827,114.98034 L 682.79322,213.83215 L 682.43769,244.41221 L 516.02531,244.41221 L 516.38084,213.83215 L 600.29827,114.98034 z "
       id="rect1989"
       sodipodi:nodetypes="cccccc" />
    <path
       sodipodi:type="arc"
       style="fill:#ffdd55;fill-opacity:1;stroke:#000000;stroke-width:1;stroke-miterlimit:4;stroke-dasharray:none;stroke-opacity:1"
       id="path2896"
       sodipodi:cx="24.615385"
       sodipodi:cy="442.31091"
       sodipodi:rx="4.1025643"
       sodipodi:ry="4.1025643"
       d="M 28.717949 442.31091 A 4.1025643 4.1025643 0 1 1  20.512821,442.31091 A 4.1025643 4.1025643 0 1 1  28.717949 442.31091 z"
       transform="matrix(1.7334623,0,0,1.7334623,556.91734,-654.59358)" />
    <path
       style="fill:#5d41ad;fill-opacity:1;stroke:#000000;stroke-width:1.93249321;stroke-miterlimit:4;stroke-opacity:1"
       d="M 598.77647,75.965799 L 598.77647,102.79101 L 537.10421,89.378419 L 598.77647,75.965799 z "
       id="rect2898"
       sodipodi:nodetypes="cccc" />
    <path
       style="fill:none;fill-opacity:0.75;fill-rule:evenodd;stroke:#000000;stroke-width:2.6001935;stroke-linecap:butt;stroke-linejoin:miter;stroke-miterlimit:4;stroke-dasharray:none;stroke-opacity:1"
       d="M 599.58703,104.31287 L 598.87597,58.087199"
       id="path2902" />
    <path
       style="fill:#a02c2c;fill-opacity:1;stroke:#000000;stroke-width:1.74205852;stroke-miterlimit:4;stroke-opacity:1"
       d="M 511.16208,257.313 L 687.5729,257.313 L 678.8177,266.05971 L 519.91745,266.05971 L 511.16208,257.313 z "
       id="rect1984"
       sodipodi:nodetypes="ccccc" />
    <path
       style="fill:#c20f00;fill-opacity:1;stroke:#000000;stroke-width:1.73346233;stroke-miterlimit:4;stroke-opacity:1"
       d="M 524.57492,266.89517 L 675.16634,266.89517 L 675.92178,751.14694 C 675.92178,751.14694 668.4769,764.58739 658.84301,778.35618 C 649.2093,792.12495 637.38657,806.22205 637.38657,806.22205 L 524.57492,806.22205 L 524.57492,266.89517 z "
       id="rect3776"
       sodipodi:nodetypes="cccsccc" />
    <rect
       style="fill:#c20f00;fill-opacity:1;stroke:#000000;stroke-width:1.73346233;stroke-miterlimit:4;stroke-dasharray:none;stroke-opacity:1"
       id="rect3784"
       width="150.59126"
       height="14.008492"
       x="524.57507"
       y="266.89517" />
    <rect
       style="fill:#c20f00;fill-opacity:1;stroke:#000000;stroke-width:2.05807638;stroke-miterlimit:4;stroke-dasharray:none;stroke-opacity:1"
       id="rect3786"
       width="22.439182"
       height="62.599827"
       x="536.11914"
       y="302.07867"
       ry="11.186326"
       rx="11.186326" />
    <rect
       rx="11.186326"
       ry="11.186326"
       y="302.07867"
       x="571.1405"
       height="62.599827"
       width="22.439182"
       id="rect3788"
       style="fill:#c20f00;fill-opacity:1;stroke:#000000;stroke-width:2.05807638;stroke-miterlimit:4;stroke-dasharray:none;stroke-opacity:1" />
    <rect
       style="fill:#c20f00;fill-opacity:1;stroke:#000000;stroke-width:2.05807638;stroke-miterlimit:4;stroke-dasharray:none;stroke-opacity:1"
       id="rect3790"
       width="22.439182"
       height="62.599827"
       x="606.16162"
       y="302.07867"
       ry="11.186326"
       rx="11.186326" />
    <rect
       rx="11.186326"
       ry="11.186326"
       y="302.07867"
       x="641.18298"
       height="62.599827"
       width="22.439182"
       id="rect3792"
       style="fill:#c20f00;fill-opacity:1;stroke:#000000;stroke-width:2.05807638;stroke-miterlimit:4;stroke-dasharray:none;stroke-opacity:1" />
    <rect
       style="fill:#c20f00;fill-opacity:1;stroke:#000000;stroke-width:1.73346233;stroke-miterlimit:4;stroke-dasharray:none;stroke-opacity:1"
       id="rect3778"
       width="175.10612"
       height="10.506369"
       x="512.31769"
       y="347.44397" />
    <rect
       style="fill:#c20f00;fill-opacity:1;stroke:#000000;stroke-width:1.73346233;stroke-miterlimit:4;stroke-dasharray:none;stroke-opacity:1"
       id="rect3780"
       width="161.09764"
       height="10.506369"
       x="519.32178"
       y="357.95035" />
    <rect
       style="fill:#ffffff;fill-opacity:1;stroke:#000000;stroke-width:1.85317659;stroke-miterlimit:4;stroke-dasharray:none;stroke-opacity:1"
       id="rect3759"
       width="82.052185"
       height="101.56152"
       x="558.8446"
       y="392.64206" />
    <rect
       style="fill:#030000;fill-opacity:1;stroke:#000000;stroke-width:1.68041575;stroke-miterlimit:4;stroke-dasharray:none;stroke-opacity:1"
       id="rect3761"
       width="26.201231"
       height="33.431763"
       x="568.75867"
       y="401.31656" />
    <rect
       y="401.31656"
       x="604.78156"
       height="33.431763"
       width="26.201231"
       id="rect3763"
       style="fill:#030000;fill-opacity:1;stroke:#000000;stroke-width:1.68041575;stroke-miterlimit:4;stroke-dasharray:none;stroke-opacity:1" />
    <rect
       y="443.43546"
       x="568.86554"
       height="42.000145"
       width="26.111275"
       id="rect3765"
       style="fill:#030000;fill-opacity:1;stroke:#000000;stroke-width:1.88025033;stroke-miterlimit:4;stroke-dasharray:none;stroke-opacity:1" />
    <rect
       style="fill:#030000;fill-opacity:1;stroke:#000000;stroke-width:1.88025033;stroke-miterlimit:4;stroke-dasharray:none;stroke-opacity:1"
       id="rect3767"
       width="26.111275"
       height="42.000145"
       x="604.76465"
       y="443.43546" />
    <path
       style="fill:#c20f00;fill-opacity:1;stroke:#000000;stroke-width:1.73346233;stroke-miterlimit:4;stroke-dasharray:none;stroke-opacity:1"
       d="M 604.26964,519.98172 C 598.71337,518.93795 587.85288,518.51814 589.42686,527.18642 C 588.35836,534.43403 593.49877,544.12457 584.87653,548.15048 C 573.56395,560.93981 587.55993,583.55069 604.10704,578.86527 C 620.18698,576.22153 624.45182,552.04743 610.71586,543.76266 C 608.56567,535.98997 614.46101,525.10869 606.21978,519.33167 L 604.57524,519.87984 L 604.26964,519.98172 z "
       id="path3811" />
    <path
       style="fill:#070707;fill-opacity:1;stroke:#000000;stroke-width:1.73346233;stroke-miterlimit:4;stroke-dasharray:none;stroke-opacity:1"
       d="M 596.50823,526.76405 L 596.50823,548.26981 C 591.46264,549.78762 587.78684,554.48674 587.78684,560.02485 C 587.78684,566.79096 593.26336,572.26747 600.02941,572.26743 C 606.79546,572.26743 612.27199,566.79096 612.27199,560.02485 C 612.27199,554.48485 608.59878,549.78597 603.55042,548.26981 L 603.55042,526.76405 L 596.50823,526.76405 z "
       id="path3804" />
    <path
       style="fill:#c20f00;fill-opacity:1;stroke:#000000;stroke-width:1.70909286;stroke-miterlimit:4;stroke-dasharray:none;stroke-opacity:1"
       d="M 509.58567,210.16612 L 509.58567,255.72368 L 688.18654,255.72368 L 688.18654,210.16612 L 661.31788,210.16612 L 661.31788,237.79318 L 638.51193,237.79318 L 638.51193,210.16612 L 611.15581,210.16612 L 611.15581,238.22654 L 588.34986,238.22654 L 588.34986,210.16612 L 560.3437,210.16612 L 560.3437,238.22654 L 539.32547,238.22654 L 539.32547,210.16612 L 509.58567,210.16612 z "
       id="rect1971" />
    <path
       style="fill:#c20f00;fill-opacity:1;stroke:#000000;stroke-width:1.9710139;stroke-miterlimit:4;stroke-dasharray:none;stroke-opacity:1"
       d="M 598.91133,607.49972 C 572.31603,607.49972 550.8972,628.73301 550.8972,655.08025 L 550.8972,806.12488 L 636.28859,805.36928 L 646.86687,793.31676 L 646.86687,655.08025 C 646.86687,628.73304 625.5068,607.49972 598.91133,607.49972 z "
       id="rect7429"
       sodipodi:nodetypes="ccccccc" />
    <rect
       style="fill:#c20f00;fill-opacity:1;stroke:#000000;stroke-width:1.51641691;stroke-miterlimit:4;stroke-dasharray:none;stroke-opacity:1"
       id="rect8319"
       width="110.33777"
       height="26.870375"
       x="543.71698"
       y="651.19214" />
    <rect
       y="704.33801"
       x="543.71698"
       height="26.870375"
       width="110.33777"
       id="rect8321"
       style="fill:#c20f00;fill-opacity:1;stroke:#000000;stroke-width:1.51641691;stroke-miterlimit:4;stroke-dasharray:none;stroke-opacity:1" />
    <rect
       style="fill:#c20f00;fill-opacity:1;stroke:#000000;stroke-width:1.51641691;stroke-miterlimit:4;stroke-dasharray:none;stroke-opacity:1"
       id="rect8323"
       width="110.33777"
       height="26.870375"
       x="543.71698"
       y="757.48383" />
    <path
       style="fill:#c20f00;fill-opacity:1;stroke:#000000;stroke-width:1.17298901;stroke-miterlimit:4;stroke-opacity:1"
       d="M 611.22463,596.23738 L 601.06464,656.43817 L 585.35704,596.3257 C 594.05018,593.87057 602.95047,593.55596 611.22463,596.23738 z "
       id="rect8329"
       sodipodi:nodetypes="cccc"
       inkscape:transform-center-x="2.999372"
       inkscape:transform-center-y="-27.535034" />
    <path
       inkscape:transform-center-y="-21.541146"
       inkscape:transform-center-x="25.124016"
       sodipodi:nodetypes="cccc"
       id="path8332"
       d="M 565.00845,606.97117 L 599.33655,655.6253 L 547.65285,627.70995 C 551.82685,619.10735 557.60396,611.7804 565.00845,606.97117 z "
       style="fill:#c20f00;fill-opacity:1;stroke:#000000;stroke-width:1.17298901;stroke-miterlimit:4;stroke-opacity:1" />
    <path
       inkscape:transform-center-y="-23.170986"
       inkscape:transform-center-x="-23.659467"
       sodipodi:nodetypes="cccc"
       id="path8334"
       d="M 649.66017,627.40578 L 600.23916,657.23151 L 633.13976,605.88428 C 640.42238,611.57379 646.30939,618.79789 649.66017,627.40578 z "
       style="fill:#c20f00;fill-opacity:1;stroke:#000000;stroke-width:1.17298901;stroke-miterlimit:4;stroke-opacity:1" />
    <path
       id="path6476"
       d="M 596.77518,619.29332 C 576.68193,619.29332 560.5349,636.81007 560.5349,658.53504 L 560.5349,806.13077 L 633.06955,806.13077 L 633.06955,658.53504 C 633.06955,636.81011 616.86827,619.29332 596.77518,619.29332 z "
       style="fill:#280b0b;fill-opacity:1;stroke:#000000;stroke-width:1.80247319;stroke-miterlimit:4;stroke-dasharray:none;stroke-opacity:1" />
    <path
       style="fill:#c20f00;fill-opacity:1;stroke:#000000;stroke-width:1.80247319;stroke-miterlimit:4;stroke-dasharray:none;stroke-opacity:1"
       d="M 599.2608,619.29332 C 587.87542,619.2933 577.72374,624.93317 571.09203,633.76005 C 571.59647,633.71779 572.09658,633.70147 572.60881,633.70147 C 586.68851,633.70147 598.01478,649.92819 598.01478,670.01472 L 598.01478,806.13077 L 635.55516,806.13077 L 635.55516,658.53504 C 635.55516,636.81007 619.35388,619.29332 599.2608,619.29332 z "
       id="rect5578" />
    <path
       sodipodi:nodetypes="cccccc"
       id="path8350"
       d="M 163.25343,114.9804 L 245.74838,213.83222 L 245.39284,244.41228 L 78.980463,244.41228 L 79.335993,213.83222 L 163.25343,114.9804 z "
       style="fill:#c20f00;fill-opacity:1;stroke:#000000;stroke-width:1.73346233;stroke-miterlimit:4;stroke-opacity:1" />
    <path
       transform="matrix(1.7334623,0,0,1.7334623,119.87232,-654.59348)"
       d="M 28.717949 442.31091 A 4.1025643 4.1025643 0 1 1  20.512821,442.31091 A 4.1025643 4.1025643 0 1 1  28.717949 442.31091 z"
       sodipodi:ry="4.1025643"
       sodipodi:rx="4.1025643"
       sodipodi:cy="442.31091"
       sodipodi:cx="24.615385"
       id="path8352"
       style="fill:#ffdd55;fill-opacity:1;stroke:#000000;stroke-width:1;stroke-miterlimit:4;stroke-dasharray:none;stroke-opacity:1"
       sodipodi:type="arc" />
    <path
       sodipodi:nodetypes="cccc"
       id="path8356"
       d="M 161.73145,75.965869 L 161.73145,102.79108 L 100.0592,89.378479 L 161.73145,75.965869 z "
       style="fill:#5d41ad;fill-opacity:1;stroke:#000000;stroke-width:1.93249321;stroke-miterlimit:4;stroke-opacity:1" />
    <path
       id="path8358"
       d="M 162.54219,104.31294 L 161.83095,58.087269"
       style="fill:none;fill-opacity:0.75;fill-rule:evenodd;stroke:#000000;stroke-width:2.6001935;stroke-linecap:butt;stroke-linejoin:miter;stroke-miterlimit:4;stroke-dasharray:none;stroke-opacity:1" />
    <path
       sodipodi:nodetypes="ccccc"
       id="path8362"
       d="M 74.117063,257.31306 L 250.52788,257.31306 L 241.77251,266.05976 L 82.872263,266.05976 L 74.117063,257.31306 z "
       style="fill:#a02c2c;fill-opacity:1;stroke:#000000;stroke-width:1.74205852;stroke-miterlimit:4;stroke-opacity:1" />
    <path
       style="fill:#c20f00;fill-opacity:1;stroke:#000000;stroke-width:1.73346233;stroke-miterlimit:4;stroke-opacity:1"
       d="M 87.529723,266.89522 L 238.12097,266.89522 L 238.12097,806.22211 C 238.12097,806.22211 160.16423,806.73802 123.27199,806.00322 C 109.88845,793.99461 108.57657,790.90009 102.63114,782.13452 C 96.737873,773.44606 87.529723,757.94733 87.529723,757.94733 L 87.529723,266.89522 z "
       id="rect8368"
       sodipodi:nodetypes="ccccscc" />
    <rect
       y="266.8952"
       x="87.529877"
       height="14.008492"
       width="150.59126"
       id="rect8370"
       style="fill:#c20f00;fill-opacity:1;stroke:#000000;stroke-width:1.73346233;stroke-miterlimit:4;stroke-dasharray:none;stroke-opacity:1" />
    <rect
       rx="11.186326"
       ry="11.186326"
       y="302.0787"
       x="99.073944"
       height="62.599827"
       width="22.439182"
       id="rect8372"
       style="fill:#c20f00;fill-opacity:1;stroke:#000000;stroke-width:2.05807638;stroke-miterlimit:4;stroke-dasharray:none;stroke-opacity:1" />
    <rect
       style="fill:#c20f00;fill-opacity:1;stroke:#000000;stroke-width:2.05807638;stroke-miterlimit:4;stroke-dasharray:none;stroke-opacity:1"
       id="rect8374"
       width="22.439182"
       height="62.599827"
       x="134.09529"
       y="302.0787"
       ry="11.186326"
       rx="11.186326" />
    <rect
       rx="11.186326"
       ry="11.186326"
       y="302.0787"
       x="169.11641"
       height="62.599827"
       width="22.439182"
       id="rect8376"
       style="fill:#c20f00;fill-opacity:1;stroke:#000000;stroke-width:2.05807638;stroke-miterlimit:4;stroke-dasharray:none;stroke-opacity:1" />
    <rect
       style="fill:#c20f00;fill-opacity:1;stroke:#000000;stroke-width:2.05807638;stroke-miterlimit:4;stroke-dasharray:none;stroke-opacity:1"
       id="rect8378"
       width="22.439182"
       height="62.599827"
       x="204.13759"
       y="302.0787"
       ry="11.186326"
       rx="11.186326" />
    <rect
       y="347.44403"
       x="75.272247"
       height="10.506369"
       width="175.10612"
       id="rect8380"
       style="fill:#c20f00;fill-opacity:1;stroke:#000000;stroke-width:1.73346233;stroke-miterlimit:4;stroke-dasharray:none;stroke-opacity:1" />
    <rect
       y="357.95041"
       x="82.276581"
       height="10.506369"
       width="161.09764"
       id="rect8382"
       style="fill:#c20f00;fill-opacity:1;stroke:#000000;stroke-width:1.73346233;stroke-miterlimit:4;stroke-dasharray:none;stroke-opacity:1" />
    <rect
       y="392.64212"
       x="121.79941"
       height="101.56152"
       width="82.052185"
       id="rect8386"
       style="fill:#ffffff;fill-opacity:1;stroke:#000000;stroke-width:1.85317659;stroke-miterlimit:4;stroke-dasharray:none;stroke-opacity:1" />
    <rect
       y="401.31662"
       x="131.71346"
       height="33.431763"
       width="26.201231"
       id="rect8388"
       style="fill:#030000;fill-opacity:1;stroke:#000000;stroke-width:1.68041575;stroke-miterlimit:4;stroke-dasharray:none;stroke-opacity:1" />
    <rect
       style="fill:#030000;fill-opacity:1;stroke:#000000;stroke-width:1.68041575;stroke-miterlimit:4;stroke-dasharray:none;stroke-opacity:1"
       id="rect8390"
       width="26.201231"
       height="33.431763"
       x="167.73634"
       y="401.31662" />
    <rect
       style="fill:#030000;fill-opacity:1;stroke:#000000;stroke-width:1.88025033;stroke-miterlimit:4;stroke-dasharray:none;stroke-opacity:1"
       id="rect8392"
       width="26.111275"
       height="42.000145"
       x="131.82014"
       y="443.43552" />
    <rect
       y="443.43552"
       x="167.71944"
       height="42.000145"
       width="26.111275"
       id="rect8394"
       style="fill:#030000;fill-opacity:1;stroke:#000000;stroke-width:1.88025033;stroke-miterlimit:4;stroke-dasharray:none;stroke-opacity:1" />
    <path
       id="path8398"
       d="M 167.22444,519.98177 C 161.66818,518.938 150.80769,518.51819 152.38168,527.18647 C 151.31317,534.43408 156.45358,544.12462 147.83134,548.15053 C 136.51876,560.93986 150.51474,583.55075 167.06184,578.86532 C 183.14179,576.22158 187.40662,552.04748 173.67067,543.76271 C 171.52048,535.99002 177.41581,525.10875 169.17459,519.33172 L 167.53005,519.8799 L 167.22444,519.98177 z "
       style="fill:#c20f00;fill-opacity:1;stroke:#000000;stroke-width:1.73346233;stroke-miterlimit:4;stroke-dasharray:none;stroke-opacity:1" />
    <path
       id="path8400"
       d="M 159.46304,526.7641 L 159.46304,548.26987 C 154.41745,549.78767 150.74165,554.48679 150.74165,560.02491 C 150.74165,566.79101 156.21817,572.26752 162.98422,572.26748 C 169.75027,572.26748 175.2268,566.79101 175.2268,560.02491 C 175.2268,554.4849 171.55359,549.78602 166.50523,548.26987 L 166.50523,526.7641 L 159.46304,526.7641 z "
       style="fill:#070707;fill-opacity:1;stroke:#000000;stroke-width:1.73346233;stroke-miterlimit:4;stroke-dasharray:none;stroke-opacity:1" />
    <path
       id="path8402"
       d="M 72.540653,210.16618 L 72.540653,255.72373 L 251.14135,255.72373 L 251.14135,210.16618 L 224.27269,210.16618 L 224.27269,237.79323 L 201.46691,237.79323 L 201.46691,210.16618 L 174.11062,210.16618 L 174.11062,238.2266 L 151.30485,238.2266 L 151.30485,210.16618 L 123.29851,210.16618 L 123.29851,238.2266 L 102.28028,238.2266 L 102.28028,210.16618 L 72.540653,210.16618 z "
       style="fill:#c20f00;fill-opacity:1;stroke:#000000;stroke-width:1.70909286;stroke-miterlimit:4;stroke-dasharray:none;stroke-opacity:1" />
    <path
       sodipodi:nodetypes="ccccccc"
       id="path8406"
       d="M 161.81535,607.49972 C 188.41082,607.49972 209.82948,628.73301 209.82948,655.08025 L 209.82948,806.12488 L 122.20452,805.79656 L 114.94374,797.92279 L 113.85981,655.08025 C 113.85981,628.73304 135.21988,607.49972 161.81535,607.49972 z "
       style="fill:#c20f00;fill-opacity:1;stroke:#000000;stroke-width:1.9710139;stroke-miterlimit:4;stroke-dasharray:none;stroke-opacity:1" />
    <rect
       y="651.19214"
       x="-217.0099"
       height="26.870375"
       width="110.33777"
       id="rect8408"
       style="fill:#c20f00;fill-opacity:1;stroke:#000000;stroke-width:1.51641691;stroke-miterlimit:4;stroke-dasharray:none;stroke-opacity:1"
       transform="scale(-1,1)" />
    <rect
       style="fill:#c20f00;fill-opacity:1;stroke:#000000;stroke-width:1.51641691;stroke-miterlimit:4;stroke-dasharray:none;stroke-opacity:1"
       id="rect8410"
       width="110.33777"
       height="26.870375"
       x="-217.0099"
       y="704.33801"
       transform="scale(-1,1)" />
    <rect
       y="757.48389"
       x="-217.0099"
       height="26.870375"
       width="110.33777"
       id="rect8412"
       style="fill:#c20f00;fill-opacity:1;stroke:#000000;stroke-width:1.51641691;stroke-miterlimit:4;stroke-dasharray:none;stroke-opacity:1"
       transform="scale(-1,1)" />
    <path
       inkscape:transform-center-y="-27.535034"
       inkscape:transform-center-x="2.9993702"
       sodipodi:nodetypes="cccc"
       id="path8414"
       d="M 149.50222,596.23738 L 159.66222,656.43817 L 175.36981,596.3257 C 166.6765,593.87057 157.77638,593.55596 149.50222,596.23738 z "
       style="fill:#c20f00;fill-opacity:1;stroke:#000000;stroke-width:1.17298901;stroke-miterlimit:4;stroke-opacity:1" />
    <path
       style="fill:#c20f00;fill-opacity:1;stroke:#000000;stroke-width:1.17298901;stroke-miterlimit:4;stroke-opacity:1"
       d="M 195.71823,606.97117 L 161.39013,655.6253 L 213.074,627.70995 C 208.9,619.10735 203.12271,611.7804 195.71823,606.97117 z "
       id="path8416"
       sodipodi:nodetypes="cccc"
       inkscape:transform-center-x="25.124019"
       inkscape:transform-center-y="-21.541146" />
    <path
       style="fill:#c20f00;fill-opacity:1;stroke:#000000;stroke-width:1.17298901;stroke-miterlimit:4;stroke-opacity:1"
       d="M 111.06668,627.40578 L 160.48769,657.23151 L 127.5871,605.88428 C 120.3043,611.57379 114.41746,618.79789 111.06668,627.40578 z "
       id="path8418"
       sodipodi:nodetypes="cccc"
       inkscape:transform-center-x="-23.659466"
       inkscape:transform-center-y="-23.170986" />
    <path
       style="fill:#280b0b;fill-opacity:1;stroke:#000000;stroke-width:1.80247319;stroke-miterlimit:4;stroke-dasharray:none;stroke-opacity:1"
       d="M 163.95167,619.29332 C 184.04492,619.29332 200.19195,636.81007 200.19195,658.53504 L 200.19195,806.13077 L 127.6573,806.13077 L 127.6573,658.53504 C 127.6573,636.81011 143.85859,619.29332 163.95167,619.29332 z "
       id="path8422" />
    <path
       id="path8424"
       d="M 161.46606,619.29332 C 172.85143,619.2933 183.00311,624.93317 189.63482,633.76005 C 189.13038,633.71779 188.63028,633.70147 188.11804,633.70147 C 174.03834,633.70147 162.71207,649.92819 162.71207,670.01472 L 162.71207,806.13077 L 125.17169,806.13077 L 125.17169,658.53504 C 125.17169,636.81007 141.37298,619.29332 161.46606,619.29332 z "
       style="fill:#c20f00;fill-opacity:1;stroke:#000000;stroke-width:1.80247319;stroke-miterlimit:4;stroke-dasharray:none;stroke-opacity:1" />
    <rect
       style="fill:#000000;fill-opacity:1;stroke:#000000;stroke-width:1.73346233;stroke-miterlimit:4;stroke-dasharray:none;stroke-opacity:1"
       id="rect4073"
       width="211.57677"
       height="275.69095"
       x="275.60696"
       y="530.85138" />
    <path
       style="fill:#c20f00;fill-opacity:1;stroke:#000000;stroke-width:1.73346233;stroke-miterlimit:4;stroke-dasharray:none;stroke-opacity:1"
       d="M 238.22203,368.3014 L 238.22203,806.54235 L 315.79447,806.54235 L 315.79447,662.33995 C 315.79447,624.74677 345.03954,594.51824 381.39527,594.51824 C 417.751,594.51824 447.05015,624.74682 447.05015,662.33995 L 447.05015,806.54235 L 524.56833,806.54235 L 524.56833,368.3014 L 238.22203,368.3014 z "
       id="rect8508" />
    <path
       style="fill:#5d41ad;fill-opacity:1;fill-rule:evenodd;stroke:#000000;stroke-width:1.55873942px;stroke-linecap:butt;stroke-linejoin:miter;stroke-opacity:1"
       d="M 380.38501,541.3706 C 476.45401,475.37714 455.6958,380.96036 455.6958,380.96036 L 303.13742,380.96037 C 303.13742,380.96037 280.1238,474.2619 380.38501,541.3706 z "
       id="path2864"
       sodipodi:nodetypes="cccc" />
    <path
       style="fill:#ffffff;fill-opacity:1;stroke:#000000;stroke-width:1.55873942;stroke-miterlimit:4;stroke-dasharray:none;stroke-opacity:1"
       d="M 374.89028,399.82433 L 374.89028,436.02093 L 349.286,410.43031 L 343.72627,415.97657 L 369.33054,441.51853 L 333.09442,441.51853 L 333.09442,449.40005 L 369.33054,449.40005 L 343.72627,474.89335 L 349.286,480.48826 L 374.89028,454.9463 L 374.89028,491.04561 L 382.74234,491.04561 L 382.74234,454.89765 L 408.34645,480.43961 L 413.90618,474.89335 L 388.35079,449.40005 L 424.53802,449.40005 L 424.53802,441.51853 L 388.35079,441.51853 L 413.95506,415.97657 L 408.34645,410.43031 L 382.74234,435.97227 L 382.74234,399.82433 L 374.89028,399.82433 z "
       id="rect2848" />
    <path
       style="fill:#ffffff;fill-opacity:1;stroke:#000000;stroke-width:1.55873942;stroke-miterlimit:4;stroke-dasharray:none;stroke-opacity:1"
       d="M 378.81622,388.80478 C 347.4884,388.80478 322.04811,414.18325 322.04811,445.43496 C 322.04811,476.68663 347.4884,502.06514 378.81622,502.06514 C 410.14405,502.06514 435.58451,476.68662 435.58451,445.43496 C 435.58451,414.18327 410.14422,388.80479 378.81622,388.80478 z M 378.81622,404.56783 C 401.44189,404.56783 419.78296,422.86429 419.78296,445.43496 C 419.78296,468.00559 401.44189,486.35074 378.81622,486.35074 C 356.19055,486.35076 337.80077,468.00561 337.80077,445.43496 C 337.80077,422.86428 356.19055,404.56783 378.81622,404.56783 z "
       id="path1953" />
    <path
       sodipodi:type="arc"
       style="fill:#ffffff;fill-opacity:1;stroke:#000000;stroke-width:1;stroke-miterlimit:4;stroke-dasharray:none;stroke-opacity:1"
       id="path2844"
       sodipodi:cx="-67.680222"
       sodipodi:cy="475.56509"
       sodipodi:rx="10.101525"
       sodipodi:ry="10.101525"
       d="M -57.578696 475.56509 A 10.101525 10.101525 0 1 1  -77.781747,475.56509 A 10.101525 10.101525 0 1 1  -57.578696 475.56509 z"
       transform="matrix(1.5606378,0,0,1.5568433,484.44059,-294.94539)" />
    <path
       sodipodi:type="arc"
       style="fill:#ffffff;fill-opacity:1;stroke:#000000;stroke-width:1;stroke-miterlimit:4;stroke-dasharray:none;stroke-opacity:1"
       id="path2846"
       sodipodi:cx="-67.680222"
       sodipodi:cy="474.55493"
       sodipodi:rx="5.0507627"
       sodipodi:ry="5.0507627"
       d="M -62.629459 474.55493 A 5.0507627 5.0507627 0 1 1  -72.730984,474.55493 A 5.0507627 5.0507627 0 1 1  -62.629459 474.55493 z"
       transform="matrix(1.5606378,0,0,1.5568433,484.44059,-293.37267)" />
    <rect
       style="fill:#c20f00;fill-opacity:1;stroke:#000000;stroke-width:1.80962062;stroke-miterlimit:4;stroke-dasharray:none;stroke-opacity:1"
       id="rect3175"
       width="276.47079"
       height="9.8840504"
       x="243.53853"
       y="358.1821" />
    <rect
       style="fill:#c20f00;fill-opacity:1;stroke:#000000;stroke-width:1.88523233;stroke-miterlimit:4;stroke-dasharray:none;stroke-opacity:1"
       id="rect4062"
       width="261.45877"
       height="10.785339"
       x="250.42244"
       y="347.46609" />
    <path
       id="path4095"
       d="M 238.89479,292.06738 L 238.89479,336.43674 L 523.86593,336.43674 L 523.86593,292.06738 L 497.14323,292.06738 L 497.14323,318.9382 L 473.80788,318.9382 L 473.80788,292.06738 L 446.22468,292.06738 L 446.22468,318.9382 L 422.88933,318.9382 L 422.88933,292.06738 L 392.13407,292.06738 L 392.13407,318.9382 L 368.79872,318.9382 L 368.79872,292.06738 L 339.11855,292.06738 L 339.11855,318.9382 L 315.7832,318.9382 L 315.7832,292.06738 L 288.20018,292.06738 L 288.20018,318.9382 L 264.86483,318.9382 L 264.86483,292.06738 L 238.89479,292.06738 z "
       style="fill:#c20f00;fill-opacity:1;stroke:#000000;stroke-width:0.9705776;stroke-miterlimit:4;stroke-dasharray:none;stroke-opacity:1" />
    <path
       style="fill:#c20f00;fill-opacity:1;stroke:#000000;stroke-width:0.9705776;stroke-miterlimit:4;stroke-dasharray:none;stroke-opacity:1"
       d="M 238.89479,302.75307 L 238.89479,347.12245 L 523.86593,347.12245 L 523.86593,302.75307 L 497.14323,302.75307 L 497.14323,329.62391 L 473.80788,329.62391 L 473.80788,302.75307 L 446.22468,302.75307 L 446.22468,329.62391 L 422.88933,329.62391 L 422.88933,302.75307 L 392.13407,302.75307 L 392.13407,329.62391 L 368.79872,329.62391 L 368.79872,302.75307 L 339.11855,302.75307 L 339.11855,329.62391 L 315.7832,329.62391 L 315.7832,302.75307 L 288.20018,302.75307 L 288.20018,329.62391 L 264.86483,329.62391 L 264.86483,302.75307 L 238.89479,302.75307 z "
       id="path4075" />
    <path
       style="fill:#c20f00;fill-opacity:1;stroke:#000000;stroke-width:2.24589729;stroke-miterlimit:4;stroke-dasharray:none;stroke-opacity:1"
       d="M 381.15137,583.03561 C 335.53444,583.03561 300.38295,619.24802 300.38295,658.65791 L 298.86617,806.27305 L 315.60483,806.27305 L 315.60483,667.32522 C 315.60483,629.73204 344.84972,599.5035 381.20563,599.5035 C 417.56136,599.5035 446.86051,629.73209 446.86051,667.32522 L 446.86051,806.27305 L 463.54509,806.27305 L 463.54509,657.14113 C 463.54509,617.73129 426.7683,583.03561 381.15137,583.03561 z "
       id="path1975" />
    <path
       style="fill:#c20f00;fill-opacity:1;stroke:#000000;stroke-width:1.73346233;stroke-miterlimit:4;stroke-dasharray:none;stroke-opacity:1"
       d="M 386.35176,557.7379 C 376.04234,557.59983 365.93001,558.75833 355.09535,561.15065 L 365.98358,601.29114 C 370.8579,600.10573 375.97023,599.5035 381.20563,599.5035 C 386.09555,599.5035 390.81785,600.03637 395.39835,601.07445 L 405.36576,559.36302 C 398.83026,558.38828 392.53744,557.82074 386.35176,557.7379 z "
       id="path1982" />
    <path
       style="fill:#c20f00;fill-opacity:1;stroke:#000000;stroke-width:1.73346233;stroke-miterlimit:4;stroke-dasharray:none;stroke-opacity:1"
       d="M 315.33406,578.59362 C 302.6862,590.86233 293.72957,603.50286 286.24431,619.60083 L 323.51375,634.8228 C 328.22686,625.86725 334.84383,618.1527 342.79852,612.23362 L 315.33406,578.59362 z "
       id="path1984" />
    <path
       style="fill:#c20f00;fill-opacity:1;stroke:#000000;stroke-width:1.73346233;stroke-miterlimit:4;stroke-dasharray:none;stroke-opacity:1"
       d="M 445.88544,582.38556 L 420.75024,613.15452 C 428.82834,619.45309 435.43769,627.64353 439.98075,637.09797 L 476.54605,622.20103 C 468.51579,606.51654 459.08801,594.25418 445.88544,582.38556 z "
       id="path1986" />
    <path
       style="fill:#e5d857;fill-opacity:1;stroke:#000000;stroke-width:1.95823956;stroke-miterlimit:4;stroke-dasharray:none;stroke-opacity:1"
       d="M 514.4808,593.69304 C 478.12506,593.69303 448.88017,623.92157 448.88017,661.51475 L 448.88017,806.63805 L 514.75174,806.63805 L 514.75174,593.74721 C 514.65813,593.74682 514.57458,593.69304 514.4808,593.69304 z "
       id="path1414" />
    <path
       style="fill:#e5d857;fill-opacity:1;fill-rule:evenodd;stroke:#000000;stroke-width:1.73963583px;stroke-linecap:butt;stroke-linejoin:miter;stroke-opacity:1"
       d="M 505.69006,593.68836 L 505.69006,805.24197"
       id="path1421" />
    <path
       sodipodi:nodetypes="ccsccsscsscssccsc"
       id="path2152"
       d="M 449.68554,762.13656 L 449.68554,786.95372 C 449.68554,786.95372 454.11609,786.52048 455.9761,784.00226 C 457.8361,781.48404 457.12556,776.88081 457.12556,776.88081 L 481.28205,769.17386 C 481.28205,769.17386 480.6762,774.8044 482.75982,776.07798 C 484.84362,777.35153 487.08152,776.732 488.79574,774.34119 C 490.50996,771.95038 489.61671,766.51474 489.61671,766.51474 C 489.61671,766.51474 494.99997,765.87203 496.84906,763.26282 C 498.69814,760.6536 499.1088,757.80642 497.01322,756.0779 C 494.91781,754.34937 489.61671,756.92653 489.61671,756.92653 C 489.61671,756.92653 489.89423,751.98694 488.13893,750.86695 C 486.38363,749.74696 484.67929,749.91291 482.59566,752.44659 C 480.51204,754.98025 481.28205,759.58564 481.28205,759.58564 L 457.12556,767.2926 C 457.12556,767.2926 457.50778,762.46787 455.64778,761.17885 C 453.78777,759.88983 449.68554,762.13656 449.68554,762.13656 z "
       style="fill:#ffffff;fill-opacity:1;stroke:#000000;stroke-width:1.73346233;stroke-opacity:1" />
    <path
       style="fill:#ffffff;fill-opacity:1;stroke:#000000;stroke-width:1.73346233;stroke-opacity:1"
       d="M 449.30781,660.50933 L 449.30781,685.32649 C 449.30781,685.32649 453.73837,684.89325 455.59838,682.37503 C 457.45838,679.85681 456.74783,675.25359 456.74783,675.25359 L 480.90415,667.54663 C 480.90415,667.54663 480.29831,673.17718 482.3821,674.45075 C 484.46572,675.72431 486.7038,675.10477 488.41784,672.71396 C 490.13206,670.32315 489.23898,664.88752 489.23898,664.88752 C 489.23898,664.88752 494.62208,664.2448 496.47134,661.63559 C 498.32042,659.02637 498.7309,656.17919 496.63549,654.45067 C 494.54009,652.72215 489.23898,655.2993 489.23898,655.2993 C 489.23898,655.2993 489.51634,650.35972 487.76103,649.23973 C 486.0059,648.11974 484.30156,648.28568 482.21777,650.81936 C 480.13415,653.35303 480.90415,657.95842 480.90415,657.95842 L 456.74783,665.66537 C 456.74783,665.66537 457.12989,660.84065 455.26988,659.55163 C 453.40988,658.26261 449.30781,660.50933 449.30781,660.50933 z "
       id="path2154"
       sodipodi:nodetypes="ccsccsscsscssccsc" />
    <path
       id="path2167"
       d="M 248.25999,592.87263 C 284.61572,592.87261 313.86062,623.10116 313.86062,660.69434 L 313.86062,805.81764 L 247.98905,805.81764 L 247.98905,592.9268 C 248.08266,592.9264 248.16621,592.87263 248.25999,592.87263 z "
       style="fill:#e5d857;fill-opacity:1;stroke:#000000;stroke-width:1.95823956;stroke-miterlimit:4;stroke-dasharray:none;stroke-opacity:1" />
    <path
       id="path2169"
       d="M 257.05055,592.86795 L 257.05055,804.42156"
       style="fill:#e5d857;fill-opacity:1;fill-rule:evenodd;stroke:#000000;stroke-width:1.73963583px;stroke-linecap:butt;stroke-linejoin:miter;stroke-opacity:1" />
    <path
       style="fill:#ffffff;fill-opacity:1;stroke:#000000;stroke-width:1.73346233;stroke-opacity:1"
       d="M 313.05508,761.31614 L 313.05508,786.13331 C 313.05508,786.13331 308.62452,785.70006 306.76452,783.18184 C 304.90451,780.66363 305.61506,776.0604 305.61506,776.0604 L 281.45857,768.35344 C 281.45857,768.35344 282.06459,773.98399 279.98079,775.25756 C 277.89717,776.53112 275.6591,775.91158 273.94505,773.52077 C 272.23083,771.12997 273.12391,765.69433 273.12391,765.69433 C 273.12391,765.69433 267.74081,765.05161 265.89156,762.44241 C 264.04247,759.83318 263.63199,756.98601 265.7274,755.25748 C 267.82281,753.52896 273.12391,756.10612 273.12391,756.10612 C 273.12391,756.10612 272.84655,751.16653 274.60168,750.04654 C 276.35699,748.92655 278.06133,749.09249 280.14495,751.62617 C 282.22874,754.15984 281.45857,758.76523 281.45857,758.76523 L 305.61506,766.47219 C 305.61506,766.47219 305.233,761.64746 307.09301,760.35844 C 308.95301,759.06942 313.05508,761.31614 313.05508,761.31614 z "
       id="path2171"
       sodipodi:nodetypes="ccsccsscsscssccsc" />
    <path
       sodipodi:nodetypes="ccsccsscsscssccsc"
       id="path2173"
       d="M 313.43297,659.68892 L 313.43297,684.50608 C 313.43297,684.50608 309.00242,684.07284 307.14241,681.55462 C 305.28241,679.0364 305.99295,674.43317 305.99295,674.43317 L 281.83646,666.72622 C 281.83646,666.72622 282.44231,672.35676 280.35869,673.63034 C 278.27489,674.9039 276.03699,674.28436 274.32277,671.89355 C 272.60855,669.50274 273.5018,664.0671 273.5018,664.0671 C 273.5018,664.0671 268.11854,663.42439 266.26945,660.81518 C 264.42019,658.20596 264.00971,655.35878 266.10512,653.63026 C 268.2007,651.90174 273.5018,654.47889 273.5018,654.47889 C 273.5018,654.47889 273.22428,649.5393 274.97958,648.41931 C 276.73488,647.29932 278.43922,647.46527 280.52284,649.99895 C 282.60647,652.53261 281.83646,657.13801 281.83646,657.13801 L 305.99295,664.84496 C 305.99295,664.84496 305.61072,660.02023 307.47073,658.73121 C 309.33073,657.44219 313.43297,659.68892 313.43297,659.68892 z "
       style="fill:#ffffff;fill-opacity:1;stroke:#000000;stroke-width:1.73346233;stroke-opacity:1" />
    <path
       style="fill:#e5d857;fill-opacity:1;stroke:#000000;stroke-width:1.95823956;stroke-miterlimit:4;stroke-dasharray:none;stroke-opacity:1"
       d="M 382.87131,599.06525 C 381.22244,599.06525 379.61344,599.10554 377.99595,599.22776 L 377.99595,608.2201 L 362.9365,608.2201 L 362.9365,602.20715 C 359.21805,603.42279 355.65994,604.9657 352.26496,606.81166 L 352.26496,608.2201 L 349.82719,608.2201 C 340.68924,613.71682 332.97048,621.4152 327.34643,630.64677 L 327.34643,636.17218 L 324.31288,636.17218 C 322.31749,640.24973 320.71923,644.55863 319.54585,649.0648 L 327.34643,649.0648 L 327.34643,664.12426 L 317.37903,664.12426 C 317.34401,665.03706 317.27069,665.96497 317.27069,666.88696 L 317.27069,677.01688 L 327.34643,677.01688 L 327.34643,691.85965 L 337.25959,691.85965 L 337.25959,677.01688 L 352.26496,677.01688 L 352.26496,691.85965 L 362.9365,691.85965 L 362.9365,677.01688 L 377.99595,677.01688 L 377.99595,691.85965 L 388.61341,691.85965 L 388.61341,677.01688 L 403.67286,677.01688 L 403.67286,691.85965 L 413.58618,691.85965 L 413.58618,677.01688 L 428.59138,677.01688 L 428.59138,691.85965 L 438.5047,691.85965 L 438.5047,677.01688 L 448.5262,677.01688 L 448.5262,666.88696 C 448.5262,665.96497 448.4527,665.03705 448.41785,664.12426 L 438.5047,664.12426 L 438.5047,649.0648 L 446.25103,649.0648 C 445.07349,644.55064 443.43294,640.25613 441.42992,636.17218 L 438.5047,636.17218 L 438.5047,630.75511 C 432.87268,621.48634 425.13798,613.73634 415.96969,608.2201 L 413.58618,608.2201 L 413.58618,606.86583 C 410.43683,605.14944 407.10234,603.70866 403.67286,602.53218 L 403.67286,608.2201 L 388.61341,608.2201 L 388.61341,599.3361 C 386.71925,599.16782 384.80898,599.06525 382.87131,599.06525 z M 337.25959,621.11272 L 352.26496,621.11272 L 352.26496,636.17218 L 337.25959,636.17218 L 337.25959,621.11272 z M 362.9365,621.11272 L 377.99595,621.11272 L 377.99595,636.17218 L 362.9365,636.17218 L 362.9365,621.11272 z M 388.61341,621.11272 L 403.67286,621.11272 L 403.67286,636.17218 L 388.61341,636.17218 L 388.61341,621.11272 z M 413.58618,621.11272 L 428.59138,621.11272 L 428.59138,636.17218 L 413.58618,636.17218 L 413.58618,621.11272 z M 337.25959,649.0648 L 352.26496,649.0648 L 352.26496,664.12426 L 337.25959,664.12426 L 337.25959,649.0648 z M 362.9365,649.0648 L 377.99595,649.0648 L 377.99595,664.12426 L 362.9365,664.12426 L 362.9365,649.0648 z M 388.61341,649.0648 L 403.67286,649.0648 L 403.67286,664.12426 L 388.61341,664.12426 L 388.61341,649.0648 z M 413.58618,649.0648 L 428.59138,649.0648 L 428.59138,664.12426 L 413.58618,664.12426 L 413.58618,649.0648 z "
       id="path2123" />
    <path
       style="fill:#ffffff;fill-opacity:1;stroke:#000000;stroke-width:1.27412331;stroke-miterlimit:4;stroke-opacity:1"
       d="M 324.67846,691.6463 L 332.85832,712.44785 L 339.03378,691.6463 L 324.67846,691.6463 z M 350.30129,691.6463 L 358.48098,712.44785 L 364.65644,691.6463 L 350.30129,691.6463 z M 375.92394,691.6463 L 384.15789,712.44785 L 390.27926,691.6463 L 375.92394,691.6463 z M 401.60085,691.6463 L 409.78071,712.44785 L 415.95617,691.6463 L 401.60085,691.6463 z M 426.19435,691.6463 L 434.37421,712.44785 L 440.54967,691.6463 L 426.19435,691.6463 z "
       id="rect2151" />
    <path
       style="fill:#e5d857;fill-opacity:1;fill-rule:evenodd;stroke:#000000;stroke-width:1.73346233px;stroke-linecap:butt;stroke-linejoin:miter;stroke-opacity:1"
       d="M 508.89229,125.88435 C 502.94148,123.07763 503.26616,122.93169 500.4921,118.67152 C 500.33366,118.42812 499.45636,110.47744 499.47768,110.12297 C 499.81588,104.49174 499.54182,98.854249 498.94343,93.292989 C 498.35769,87.848699 495.50129,83.917069 492.53204,80.470149 C 486.56668,75.358149 478.46309,75.006349 470.89358,75.127289 C 464.4893,75.396309 458.96736,77.719039 454.59782,82.340159 C 449.87587,87.177229 449.06842,89.124739 448.18644,90.888689 C 446.47083,94.746379 444.69923,98.546059 443.64511,102.64297 C 442.55078,110.76944 442.23875,116.10251 442.30931,124.28151 C 442.30931,127.30539 445.56995,136.08637 446.8508,137.90576 C 448.83701,140.72707 448.7883,140.39609 451.125,143.24862 C 453.46396,141.88615 453.86093,139.45383 455.39937,137.90576 C 453.57837,136.0574 453.79332,136.56392 452.72794,134.54776 C 451.8593,132.9039 450.31634,125.86431 449.55691,123.7472 C 449.12875,117.75644 448.90998,116.37135 449.82404,110.39009 C 450.85112,103.66825 452.03403,98.707319 454.59782,94.094419 C 457.48456,88.900859 462.8777,85.385259 466.35728,83.942989 C 469.1069,82.803219 474.71465,83.141559 477.03784,84.210129 C 480.51308,85.808589 482.11359,88.216929 483.18209,92.491559 C 483.80233,97.866989 483.44922,103.36127 483.44922,108.78725 C 483.44922,112.23845 485.41861,116.896 486.63047,118.81599 C 490.07902,124.28002 490.23243,123.39049 495.20348,125.88435 C 500.36521,127.05772 503.7283,126.50081 508.89229,125.88435 z "
       id="path2453"
       sodipodi:nodetypes="csssccccccsccscssssccscc" />
    <path
       style="fill:#e5d857;fill-opacity:1;fill-rule:evenodd;stroke:#000000;stroke-width:1.73346233px;stroke-linecap:butt;stroke-linejoin:miter;stroke-opacity:1"
       d="M 458.87219,131.76148 C 460.18737,125.52253 456.46788,117.87007 456.46788,117.87007 C 456.46788,117.87007 464.9348,119.94745 466.61938,126.68577 C 468.22214,133.09718 468.33742,137.43599 463.68082,143.78291 C 460.20783,148.51628 459.5401,149.35933 457.26926,155.50361 C 454.9986,161.64788 455.56873,163.40948 456.73501,167.02429 C 457.90128,170.63909 464.07154,172.09998 464.07154,172.09998 L 463.80424,177.97712 C 463.80424,177.97712 456.3429,176.87366 452.06679,173.26648 C 448.99492,170.67518 447.91931,168.49357 446.8508,163.81858 C 445.78213,159.14358 445.84904,158.87644 447.11793,153.66716 C 448.38683,148.45788 449.85611,146.78823 451.92656,142.98146 C 454.46105,139.24713 457.90908,136.33054 458.87219,131.76148 z "
       id="path3462"
       sodipodi:nodetypes="ccssssccssscs" />
    <path
       style="fill:#e5d857;fill-opacity:1;fill-rule:evenodd;stroke:#000000;stroke-width:1.73346233px;stroke-linecap:butt;stroke-linejoin:miter;stroke-opacity:1"
       d="M 455.29259,279.39333 C 455.29259,279.39333 440.36384,277.16259 432.64213,280.07971 C 424.92025,282.99683 424.40541,291.0618 424.40541,291.0618 C 424.40541,291.0618 426.37879,288.74527 432.98519,287.9731 C 439.59158,287.20093 450.83118,287.9731 450.83118,287.9731 L 455.29259,279.39333 z "
       id="path2370"
       sodipodi:nodetypes="cscscc" />
    <path
       style="fill:#e5d857;fill-opacity:1;fill-rule:evenodd;stroke:#000000;stroke-width:1.73346233px;stroke-linecap:butt;stroke-linejoin:miter;stroke-opacity:1"
       d="M 399.76286,228.60049 L 398.38996,208.00907 L 393.58532,201.14527 C 393.58532,201.14527 387.06473,206.46471 382.60332,207.32269 C 378.14173,208.18067 374.30558,207.20801 369.56196,210.06822 C 359.5058,216.13182 339.36124,227.22773 339.36124,227.22773 L 331.81114,224.4822 L 331.81114,231.34602 C 331.81114,231.34602 317.74028,236.66546 315.33805,243.01447 C 312.93564,249.36349 322.20187,256.74209 322.20187,256.74209 C 322.20187,256.74209 321.00058,248.50553 322.88814,245.76 C 324.77571,243.01447 327.69278,244.12749 329.75196,245.76 C 331.81114,247.3925 331.12469,252.29 331.12469,252.29 L 336.98015,243.62269 C 336.98015,243.62269 342.02626,242.82334 343.47959,246.44638 C 344.93293,250.06942 346.51506,252.75648 342.79314,258.11485 C 336.41452,267.29818 327.03025,272.89331 314.60115,280.59874 C 306.1292,285.85098 296.51923,281.0519 289.82703,282.93945 C 283.13483,284.827 287.19633,290.37472 287.19633,290.37472 L 297.49205,289.68834 L 296.80578,295.62655 L 303.66959,296.55213 L 307.10133,306.84784 L 313.27887,302.04319 C 313.27887,302.04319 325.71195,292.26891 340.04769,285.57005 C 353.26759,279.39263 356.72047,278.87785 368.90377,271.84245 C 378.94935,266.04152 375.97127,268.86062 378.48496,263.60587 C 380.53703,259.316 377.11223,249.87827 377.11223,249.87827 C 377.11223,249.87827 367.84601,243.02035 370.24841,237.70091 C 373.10585,231.37353 399.76286,228.60049 399.76286,228.60049 z "
       id="path3491"
       sodipodi:nodetypes="cccsscccscssccssssccccccssscsc" />
    <path
       style="fill:none;fill-rule:evenodd;stroke:#000000;stroke-width:1.73346233px;stroke-linecap:butt;stroke-linejoin:miter;stroke-opacity:1"
       d="M 298.19151,289.66775 L 309.58867,289.2464 L 298.19151,289.66775 z "
       id="path3493"
       sodipodi:nodetypes="ccc" />
    <path
       sodipodi:nodetypes="ccc"
       style="fill:none;fill-rule:evenodd;stroke:#000000;stroke-width:1.73346233px;stroke-linecap:butt;stroke-linejoin:miter;stroke-opacity:1"
       d="M 303.63614,296.78473 L 313.02058,294.05107 L 303.63614,296.78473 z "
       id="path3495" />
    <path
       style="fill:none;fill-rule:evenodd;stroke:#000000;stroke-width:1.73346233px;stroke-linecap:butt;stroke-linejoin:miter;stroke-opacity:1"
       d="M 367.24467,260.41843 C 338.41667,278.95071 338.41667,278.95071 338.41667,278.95071 L 367.24467,260.41843 z "
       id="path3501" />
    <path
       style="fill:none;fill-rule:evenodd;stroke:#000000;stroke-width:1.73346233px;stroke-linecap:butt;stroke-linejoin:miter;stroke-opacity:1"
       d="M 374.79494,268.655 C 374.79494,268.655 376.85394,261.55746 374.79494,256.98888 C 372.73576,252.42031 366.55822,248.32157 366.55822,248.32157"
       id="path3503"
       sodipodi:nodetypes="csc" />
    <path
       style="fill:none;fill-rule:evenodd;stroke:#000000;stroke-width:1.73346233px;stroke-linecap:butt;stroke-linejoin:miter;stroke-opacity:1"
       d="M 324.00276,244.63169 L 348.02595,235.02234"
       id="path3511"
       sodipodi:nodetypes="cc" />
    <path
       style="fill:none;fill-rule:evenodd;stroke:#000000;stroke-width:1.73346233px;stroke-linecap:butt;stroke-linejoin:miter;stroke-opacity:1"
       d="M 336.99021,243.68028 L 349.39885,239.65426"
       id="path3513"
       sodipodi:nodetypes="cc" />
    <path
       style="fill:#e5d857;fill-opacity:1;fill-rule:evenodd;stroke:#000000;stroke-width:1.73346233px;stroke-linecap:butt;stroke-linejoin:miter;stroke-opacity:1"
       d="M 321.23043,207.5838 C 333.81537,194.32788 381.49252,182.32012 381.49252,182.32012 L 345.60603,151.17344 C 345.60603,151.17344 334.94177,167.25459 323.93879,178.93461 C 312.93599,190.61461 307.77305,196.92859 301.59447,197.89347 C 291.3608,199.4916 290.14893,196.42845 283.7164,198.85104 C 277.28387,201.27362 278.2586,207.82319 278.2586,207.82319 C 278.2586,207.82319 283.39485,204.91552 287.45756,204.1857 C 291.5201,203.45586 292.11503,204.66448 292.11503,204.66448 C 292.11503,204.66448 285.27964,207.03433 281.55547,210.7584 C 277.83147,214.48246 280.09156,219.80012 280.09156,219.80012 C 280.09156,219.80012 285.12293,214.25685 289.09222,214.10283 C 290.66741,219.93359 290.22278,229.71726 290.22278,229.71726 C 290.22278,229.71726 290.79569,225.31608 295.50065,222.26912 C 300.20544,219.22216 309.04263,217.52942 309.04263,217.52942 L 307.5574,227.68595 C 307.5574,227.68595 312.94934,222.39066 316.36755,217.36512 C 319.78577,212.33957 318.59453,210.36025 321.23043,207.5838 z "
       id="path16647"
       sodipodi:nodetypes="cccssscscscccsccss" />
    <path
       style="fill:#e5d857;fill-opacity:1;fill-rule:evenodd;stroke:#000000;stroke-width:1.73346233px;stroke-linecap:butt;stroke-linejoin:miter;stroke-opacity:1"
       d="M 462.99038,145.79353 L 459.41511,150.61472 C 464.71275,161.26269 463.97308,165.09076 463.80303,177.86259 C 463.52324,183.56493 463.86127,187.74913 459.95682,193.62626 C 456.05237,199.50341 454.66508,199.57316 447.11845,201.64352 C 439.57165,203.71387 431.4119,201.00537 427.34606,201.49885 C 425.3323,201.74327 414.43853,192.09339 412.39495,189.6718 C 406.56081,181.41216 404.161,169.68281 404.161,169.68281 L 380.81352,146.17273 L 369.81678,185.55483 C 369.81678,185.55481 383.59209,192.39562 390.4559,199.26001 C 397.31972,206.12438 395.22223,202.55206 397.28141,213.01937 C 399.34042,223.48667 398.68985,241.13396 398.68985,241.13396 L 389.7516,246.6052 L 396.63136,250.72217 C 396.63136,250.72217 385.32711,259.00767 387.04306,267.24424 C 388.75902,275.4808 397.98554,277.53667 397.98554,277.53667 C 397.98554,277.53667 393.69626,269.07254 395.92706,263.77731 C 398.15785,258.4821 406.92379,256.35593 406.92379,256.35593 L 407.57384,265.8358 C 407.57384,265.83581 409.47597,257.10622 418.57041,254.1891 C 427.66502,251.27196 434.53872,250.92878 443.97655,254.1891 C 453.41421,257.44939 450.98026,260.19099 453.56468,266.54002 C 456.14927,272.88905 456.72547,278.0508 454.32307,279.59515 C 447.06991,284.25786 438.99631,286.4187 432.97981,292.59612 C 426.96349,298.77355 430.21719,304.29698 430.21719,304.29698 L 440.50963,296.06304 L 445.58337,302.37104 L 454.62937,297.05496 L 462.99038,287.8291 L 467.97408,300.83006 C 467.97408,300.83004 473.46326,293.81232 474.14954,289.18337 C 474.83599,284.55443 470.73687,287.24598 470.73687,282.35786 C 470.73687,271.9787 474.32115,259.53279 474.14954,247.68861 C 473.97793,235.84444 470.03257,234.9585 470.03257,234.9585 L 476.20803,234.25428 C 476.20803,234.25428 473.30985,229.44663 468.67839,228.07882 C 464.04675,226.71102 457.68165,228.78304 457.68165,228.78304 C 457.68165,228.78308 464.92111,222.54466 469.38252,221.68668 C 473.84411,220.8287 475.55798,225.37029 475.55798,225.37029 C 475.55798,225.37027 475.77605,216.77597 471.65769,214.37364 C 467.5395,211.9713 464.29238,213.90368 459.09009,215.7279 C 453.88797,217.55211 450.85614,221.68668 450.85614,221.68668 L 445.65576,218.49061 L 445.65576,226.02034 L 427.50866,226.02034 C 427.50866,226.02034 428.46432,218.10198 428.48373,211.23174 C 429.68398,211.24912 442.7555,211.41413 451.12708,209.11908 C 459.89702,206.7148 459.59262,205.58911 463.15298,201.91438 C 466.44396,198.51753 467.94964,195.02315 469.00341,190.05099 C 470.17835,184.50717 470.75577,179.49268 470.62853,172.77054 C 470.4148,162.55804 469.24662,155.59292 462.99038,145.79353 z "
       id="path3464"
       sodipodi:nodetypes="cccsssccccsscccscsccsssssccccccsssccscscsscccccssscc" />
    <path
       style="fill:#e5d857;fill-opacity:1;fill-rule:evenodd;stroke:#000000;stroke-width:1.73346233px;stroke-linecap:butt;stroke-linejoin:miter;stroke-opacity:1"
       d="M 470.51846,178.77855 C 470.51846,178.77855 473.12316,178.71176 475.32708,172.90142 C 477.53101,167.09108 475.99499,163.21752 477.99852,156.3386 C 480.00206,149.45968 481.55316,149.61904 482.00559,144.58432 C 482.54002,138.6404 482.94062,138.37327 480.40283,134.16578 C 477.86487,129.95828 473.1899,128.55579 473.1899,128.55579 C 473.1899,128.55579 480.33696,136.07009 476.93002,142.44719 C 471.72061,152.19788 471.32001,165.68857 471.32001,165.68857 L 470.51846,178.77855 z "
       id="path3466"
       sodipodi:nodetypes="csssscscc" />
    <path
       style="fill:none;fill-rule:evenodd;stroke:#000000;stroke-width:1.73346233px;stroke-linecap:butt;stroke-linejoin:miter;stroke-opacity:1"
       d="M 492.87735,124.51816 C 492.87735,124.51816 491.34133,120.6446 490.74034,114.90103 C 490.13917,109.15746 490.47321,101.54392 490.47321,101.54392"
       id="path3468"
       sodipodi:nodetypes="csc" />
    <path
       style="fill:none;fill-rule:evenodd;stroke:#000000;stroke-width:1.73346233px;stroke-linecap:butt;stroke-linejoin:miter;stroke-opacity:1"
       d="M 440.53545,295.86646 L 455.29259,287.62991 L 440.53545,295.86646 z "
       id="path2374" />
    <path
       style="fill:none;fill-rule:evenodd;stroke:#000000;stroke-width:1.73346233px;stroke-linecap:butt;stroke-linejoin:miter;stroke-opacity:1"
       d="M 458.03805,237.44597 C 458.03805,237.44597 460.99915,237.5904 462.28625,242.67199 C 463.57317,247.75358 463.18609,257.77235 463.18609,257.77235"
       id="path2378"
       sodipodi:nodetypes="csc" />
    <path
       style="fill:none;fill-rule:evenodd;stroke:#000000;stroke-width:1.73932195px;stroke-linecap:butt;stroke-linejoin:miter;stroke-opacity:1"
       d="M 407.75118,212.31369 L 405.36801,234.29779 L 407.75118,212.31369 z "
       id="path2380" />
    <path
       style="fill:none;fill-rule:evenodd;stroke:#000000;stroke-width:1.73346233px;stroke-linecap:butt;stroke-linejoin:miter;stroke-opacity:1"
       d="M 397.29354,250.22217 L 403.47091,245.4269 L 397.29354,250.22217 z "
       id="path2384" />
    <path
       style="fill:none;fill-rule:evenodd;stroke:#000000;stroke-width:1.73346233px;stroke-linecap:butt;stroke-linejoin:miter;stroke-opacity:1"
       d="M 406.22833,257.06224 L 414.45291,243.01518"
       id="path2386"
       sodipodi:nodetypes="cc" />
    <path
       style="fill:none;fill-rule:evenodd;stroke:#000000;stroke-width:1.73346233px;stroke-linecap:butt;stroke-linejoin:miter;stroke-opacity:1"
       d="M 473.9313,246.4931 C 467.57192,239.49773 474.56713,245.85716 473.9313,246.4931 z "
       id="path9199" />
    <path
       style="fill:none;fill-rule:evenodd;stroke:#000000;stroke-width:1.73346233px;stroke-linecap:butt;stroke-linejoin:miter;stroke-opacity:1"
       d="M 292.73387,289.92834 C 292.50904,286.3309 290.48557,285.38956 288.2371,283.61183"
       id="path9201"
       sodipodi:nodetypes="cc" />
    <path
       style="fill:none;fill-rule:evenodd;stroke:#000000;stroke-width:1.73346233px;stroke-linecap:butt;stroke-linejoin:miter;stroke-opacity:1"
       d="M 312.51979,302.29452 C 308.6975,298.69708 308.02301,299.59644 304.65039,299.59644"
       id="path9203"
       sodipodi:nodetypes="cs" />
    <path
       style="fill:none;fill-rule:evenodd;stroke:#000000;stroke-width:1.73346233px;stroke-linecap:butt;stroke-linejoin:miter;stroke-opacity:1"
       d="M 300.8281,296.22385 C 301.05293,292.72882 300.15361,291.72705 297.45548,291.72705"
       id="path9205"
       sodipodi:nodetypes="cs" />
    <path
       style="fill:none;fill-rule:evenodd;stroke:#000000;stroke-width:0.86673117;stroke-linecap:butt;stroke-linejoin:miter;stroke-miterlimit:4;stroke-dasharray:none;stroke-opacity:1"
       d="M 315.44275,247.20879 C 317.91605,241.81265 327.80892,236.41648 327.80892,236.41648"
       id="path9207"
       sodipodi:nodetypes="cc" />
    <path
       style="fill:none;fill-rule:evenodd;stroke:#000000;stroke-width:1.73346233px;stroke-linecap:butt;stroke-linejoin:miter;stroke-opacity:1"
       d="M 392.33792,223.39033 C 383.11954,224.94965 371.20303,227.69881 368.72973,232.05764 C 366.2566,236.41648 367.90581,233.49357 367.90581,233.49357"
       id="path10178" />
    <path
       style="fill:none;fill-rule:evenodd;stroke:#000000;stroke-width:1.73346233px;stroke-linecap:butt;stroke-linejoin:miter;stroke-opacity:1"
       d="M 471.91355,295.09965 C 468.33378,292.72882 468.02522,293.97545 465.63564,294.8748"
       id="path10180"
       sodipodi:nodetypes="cs" />
    <path
       style="fill:none;fill-rule:evenodd;stroke:#000000;stroke-width:1.73346233px;stroke-linecap:butt;stroke-linejoin:miter;stroke-opacity:1"
       d="M 434.83271,300.04612 C 433.0339,297.79771 434.15822,297.57288 430.11093,297.34803"
       id="path10182"
       sodipodi:nodetypes="cs" />
    <path
       sodipodi:nodetypes="csscscc"
       id="path16631"
       d="M 306.13856,107.03881 C 306.13856,107.03881 307.4943,101.11415 306.47919,95.528059 C 305.46407,89.941979 305.37879,87.572129 302.07793,84.694439 C 298.77707,81.816759 295.30702,82.663139 295.30702,82.663139 C 295.30702,82.663139 298.35393,84.271249 299.36957,89.772709 C 300.3852,95.274159 299.36957,104.66894 299.36957,104.66894 L 306.13856,107.03881 z "
       style="fill:#d1c556;fill-opacity:1;fill-rule:evenodd;stroke:#000000;stroke-width:1.73346233px;stroke-linecap:butt;stroke-linejoin:miter;stroke-opacity:1" />
    <path
       sodipodi:nodetypes="cccscscscssccssccssccs"
       id="path16633"
       d="M 341.76537,144.15161 C 333.86547,133.31747 315.34134,116.58141 315.34134,116.58141 L 304.46941,100.95491 C 304.46941,100.95491 295.32401,90.851909 289.87366,88.332289 C 284.42331,85.812669 281.6522,89.183639 281.6522,89.183639 C 281.6522,89.183639 285.40029,90.460249 288.47129,93.429619 C 291.54229,96.398989 293.9362,101.06112 293.9362,101.06112 C 293.9362,101.06112 286.37779,100.82046 282.78692,103.76953 C 279.19605,106.71858 279.57273,112.85735 279.57273,112.85735 C 279.57273,112.85735 283.1636,109.0374 287.23325,108.72165 C 291.3029,108.4059 293.05248,108.72165 295.85133,111.59435 C 298.65035,114.46704 298.42882,120.21245 298.42882,120.21245 L 284.36056,123.08514 C 284.36056,123.08514 290.34534,125.02435 295.85133,126.46069 C 301.35733,127.89704 303.57339,127.15481 306.38454,128.83054 C 309.19587,130.50628 307.17829,133.18067 307.09613,135.53352 C 303.96706,134.16229 300.63915,135.53352 300.63915,135.53352 C 300.63915,135.53352 308.11852,141.16219 313.14574,147.86514 C 318.17295,154.56811 316.93231,155.92954 320.74818,162.34538 C 324.56388,168.76121 328.4087,173.52853 328.4087,173.52853 L 346.60243,156.19391 C 346.60243,156.19391 349.66528,154.98575 341.76537,144.15161 z "
       style="fill:#e5d857;fill-opacity:1;fill-rule:evenodd;stroke:#000000;stroke-width:1.73346233px;stroke-linecap:butt;stroke-linejoin:miter;stroke-opacity:1" />
    <path
       sodipodi:nodetypes="cs"
       id="path16635"
       d="M 288.80394,93.158209 C 289.89013,90.788359 290.22867,91.153899 290.56722,88.770539"
       style="fill:none;fill-rule:evenodd;stroke:#000000;stroke-width:1.73346233px;stroke-linecap:butt;stroke-linejoin:miter;stroke-opacity:1" />
    <path
       sodipodi:nodetypes="cs"
       id="path16637"
       d="M 285.33702,109.57209 C 283.60355,106.80651 283.60355,106.95988 281.87009,106.10516"
       style="fill:none;fill-rule:evenodd;stroke:#000000;stroke-width:1.73346233px;stroke-linecap:butt;stroke-linejoin:miter;stroke-opacity:1" />
    <path
       sodipodi:nodetypes="cs"
       id="path16639"
       d="M 299.20471,88.770539 C 300.93818,88.770539 301.83143,87.655179 302.67164,86.099119"
       style="fill:none;fill-rule:evenodd;stroke:#000000;stroke-width:1.73346233px;stroke-linecap:butt;stroke-linejoin:miter;stroke-opacity:1" />
    <path
       sodipodi:nodetypes="cc"
       id="path16641"
       d="M 293.52555,125.82945 C 293.95163,123.56489 293.57599,123.2713 292.62987,121.28952"
       style="fill:none;fill-rule:evenodd;stroke:#000000;stroke-width:1.73346233px;stroke-linecap:butt;stroke-linejoin:miter;stroke-opacity:1" />
    <path
       id="path16643"
       d="M 306.86332,135.57403 L 313.07241,139.84256"
       style="fill:none;fill-rule:evenodd;stroke:#000000;stroke-width:1.73346233px;stroke-linecap:butt;stroke-linejoin:miter;stroke-opacity:1" />
    <path
       sodipodi:nodetypes="cc"
       id="path16645"
       d="M 313.80584,125.17325 C 314.18616,128.20275 319.1983,130.86114 330.40704,142.50788"
       style="fill:none;fill-rule:evenodd;stroke:#000000;stroke-width:1.73346233px;stroke-linecap:butt;stroke-linejoin:miter;stroke-opacity:1" />
    <path
       sodipodi:nodetypes="ccccccccccccscc"
       id="path16553"
       d="M 404.06237,162.92905 C 404.70704,171.09626 395.32138,174.28969 390.17803,179.00568 C 396.01841,156.63764 383.60127,164.02519 383.60127,164.02519 L 385.42817,162.19829 C 385.42817,162.19829 372.63262,176.26865 370.24599,185.49443 C 367.43102,173.50296 366.04806,174.97067 359.07434,179.00568 C 358.16098,174.71248 361.39285,173.61635 357.65932,165.12131 C 353.92596,170.51064 344.14039,180.10182 344.14039,180.10182 C 344.14039,180.10182 350.07785,168.06214 348.1596,160.57189 C 338.20294,161.48534 327.69833,174.98653 327.69833,174.98653 C 327.69833,174.98653 336.83281,163.47712 336.83281,157.44838 C 330.98671,155.80419 324.31288,163.13348 324.31288,163.13348 C 324.31288,163.13348 329.35812,143.8035 335.37132,138.08333 C 338.62382,134.98924 375.56286,138.08333 375.56286,138.08333 L 404.06237,162.92905 z "
       style="fill:#edde56;fill-opacity:1;fill-rule:evenodd;stroke:#000000;stroke-width:1.73346233px;stroke-linecap:butt;stroke-linejoin:miter;stroke-opacity:1" />
    <path
       sodipodi:nodetypes="cccccsccscscccccscscsccscsscc"
       id="path16555"
       d="M 408.81223,106.03626 L 409.90847,111.51693 L 409.90847,118.43766 L 418.67754,119.55526 L 409.17764,124.91269 C 409.17764,124.91269 407.71616,127.52767 409.54306,129.78584 C 411.36995,132.044 416.48523,135.77228 416.48523,135.77228 L 408.08157,137.18292 C 408.08157,137.18292 407.89887,140.45859 410.63912,144.43959 C 413.37955,148.42059 419.04295,153.10691 419.04295,153.10691 C 419.04295,153.10691 415.48051,154.97149 411.00454,152.80466 C 406.52874,150.63783 401.1394,144.43959 401.1394,144.43959 C 401.1394,144.43959 405.79791,149.00607 406.62009,157.12608 C 405.93156,187.88278 405.48554,174.44484 394.65955,159.58194 C 388.86302,164.42321 385.99224,178.38112 385.99224,178.38112 L 381.40896,158.28533 C 381.40896,158.28533 379.76477,164.47946 373.73597,167.51851 C 367.70733,170.55755 357.29408,170.44153 357.29408,170.44153 C 357.29408,170.44153 363.04865,168.26657 367.15921,163.03524 C 371.26977,157.80393 373.73597,149.51625 373.73597,149.51625 C 373.73597,149.51625 362.22664,148.32877 356.92866,149.51625 C 351.63068,150.70372 352.54404,154.26618 352.54404,154.26618 L 351.32299,144.43959 C 351.32299,144.43959 346.20997,142.7664 345.60187,139.28566 C 344.99377,135.80491 348.89025,130.5166 348.89025,130.5166 C 348.89025,130.5166 349.25566,133.16559 353.27487,135.26651 C 357.29408,137.36743 358.93826,137.45875 364.9669,136.36263 C 370.60811,135.33698 371.17842,126.86282 371.17842,126.86282 L 408.81223,106.03626 z "
       style="fill:#e5d857;fill-opacity:1;fill-rule:evenodd;stroke:#000000;stroke-width:1.73346233px;stroke-linecap:butt;stroke-linejoin:miter;stroke-opacity:1" />
    <path
       sodipodi:nodetypes="ccsssccscssc"
       style="fill:#ff5555;fill-opacity:1;fill-rule:evenodd;stroke:#000000;stroke-width:1.42490602;stroke-miterlimit:4;stroke-dasharray:none;stroke-opacity:1"
       id="path16559"
       d="M 352.3941,101.7134 C 352.3941,101.7134 347.94985,103.53198 347.14569,106.33812 C 346.07788,111.61218 347.0507,115.26754 350.48625,117.85182 C 352.36394,119.2641 355.21132,120.03166 358.24003,120.35686 C 363.49398,120.92096 367.1157,119.47529 371.56151,119.15252 C 377.03457,118.75519 380.18133,119.63427 380.18133,119.63427 L 380.83051,116.0131 C 380.83051,116.0131 380.18133,114.2869 376.30444,113.56429 C 372.42755,112.84169 366.44728,113.85333 366.44728,113.85333 C 366.44728,113.85333 361.07424,115.26559 357.76454,114.37439 C 354.45484,113.48313 352.77754,113.58212 351.65824,111.06351 C 350.20942,107.80394 352.72224,104.82814 352.3941,101.7134 z "
       class="fil1" />
    <path
       sodipodi:nodetypes="cssszscscscccssccccccccccccccc"
       id="path16561"
       d="M 377.97896,121.44866 C 382.33151,122.65824 380.35554,120.52542 380.39922,115.4072 C 380.44862,109.61898 378.84916,109.94204 374.2385,109.54458 C 369.62801,109.14711 364.97765,112.38647 362.59275,110.31966 C 360.20803,108.25286 356.23458,102.19465 364.81869,99.826619 C 373.69783,97.377179 370.22414,99.270159 375.31168,96.964859 C 380.39922,94.659579 379.13327,94.204079 383.26099,91.241379 C 384.95753,90.978959 396.85429,99.826619 403.92907,103.96025 C 409.8114,107.39713 413.15022,103.64228 413.15022,103.64228 C 413.15022,103.64228 412.67334,107.85541 410.60654,110.63765 C 408.53973,113.41991 402.02122,112.86345 402.02122,112.86345 L 403.34489,119.85882 L 393.43607,116.59299 C 393.43607,116.59299 397.33116,118.48592 398.84153,121.76665 C 400.35189,125.04738 398.603,126.67568 399.47753,129.71593 C 400.35189,132.75616 400.74938,135.19951 400.74938,135.19951 L 393.00825,129.17928 L 391.84614,138.61913 L 388.98437,132.65572 L 384.10259,137.98319 L 382.30707,129.75413 L 378.27296,137.02927 C 378.27296,137.02927 377.8356,132.00134 376.46426,129.61648 C 374.0596,131.10703 371.49599,135.75739 371.49599,135.75739 C 371.49599,135.75739 372.46984,131.64401 370.97924,128.60296 C 366.90526,129.43731 364.5006,133.92762 364.5006,133.92762 C 364.5006,133.92762 366.18986,131.12665 365.13661,128.12607 C 362.01637,129.51762 359.25427,132.2597 359.25427,132.2597 C 359.25427,132.2597 359.85925,127.35109 364.44097,123.7341 C 369.79789,121.66729 373.08228,122.48491 377.97896,121.44866 z "
       style="fill:#e5d857;fill-opacity:1;fill-rule:evenodd;stroke:#000000;stroke-width:1.73346233px;stroke-linecap:butt;stroke-linejoin:round;stroke-opacity:1" />
    <path
       style="fill:#000000;fill-rule:evenodd"
       id="path16563"
       d="M 363.85939,105.35917 C 363.85939,105.62271 364.00587,105.76913 364.24006,105.79841 C 364.53267,105.85698 364.94246,105.73985 364.76686,105.38845 C 364.59126,105.00776 363.85939,104.7735 363.85939,105.35917 z "
       class="fil3" />
    <path
       style="fill:#000000;fill-rule:evenodd"
       id="path16567"
       d="M 383.95317,98.475069 L 383.86979,98.132519 C 383.86979,98.132519 382.50555,98.767829 381.67592,98.957529 C 380.99085,99.124489 379.75645,99.265179 379.1279,99.263209 C 378.2636,99.268679 378.96773,98.316269 379.20348,98.308809 C 379.95251,98.208879 380.71194,98.213989 381.44866,98.074469 C 382.27829,97.884789 383.45358,97.480699 384.07797,97.115809 C 384.81886,97.343149 385.11424,98.660099 385.71315,99.342479 C 386.31362,99.959399 386.81078,100.52147 387.69727,101.22384 C 388.12162,101.54838 388.67512,101.94151 389.81608,102.41422 C 390.91735,102.89907 391.41035,103.09426 391.94113,103.34277 C 392.0597,104.93054 388.14468,102.754 387.40692,102.39576 C 386.77264,102.09239 384.38532,100.09657 383.95317,98.475069 z "
       class="fil3" />
    <path
       style="fill:#000000;fill-rule:evenodd"
       id="path16571"
       d="M 386.02985,101.6273 L 386.73208,102.36456 C 383.75902,106.15736 378.32947,102.71326 380.47289,99.110159 L 381.64662,98.771539 C 381.40272,99.106239 381.17113,99.480549 381.03072,99.870139 C 380.89031,100.25972 380.88078,100.65246 381.00368,100.98287 C 381.26474,101.55238 381.59618,101.92707 382.05849,102.30491 C 382.52063,102.68277 382.81896,102.80779 383.28752,102.92381 C 383.97674,103.12373 384.43472,103.1347 384.96308,102.95089 C 385.3727,102.80351 385.73516,102.43236 386.02985,101.6273 z "
       class="fil3" />
    <path
       style="fill:#000000;fill-rule:evenodd"
       id="path16573"
       d="M 385.06605,101.94477 L 385.11043,101.73625 C 385.07974,101.91891 382.88709,101.61746 383.20587,100.89159 C 383.33103,100.59331 383.38424,100.55529 383.5959,100.46867 C 384.09999,100.20569 383.44682,99.063559 382.69155,99.425299 C 381.69724,99.925409 381.75358,101.38072 382.7361,101.902 C 383.20154,102.14895 384.81903,102.41039 385.06605,101.94477 z "
       class="fil3" />
    <path
       sodipodi:nodetypes="ccccccccccccscccc"
       style="fill:#e5d857;fill-opacity:1;fill-rule:evenodd;stroke:#000000;stroke-width:1.73346233;stroke-linejoin:round;stroke-opacity:1"
       id="path16577"
       d="M 385.87922,78.053169 L 380.7889,74.400139 L 382.00302,82.630759 L 383.15664,91.216149 L 403.34853,103.30585 L 409.54375,99.887619 L 418.57353,95.573839 L 413.09267,92.958189 L 408.4924,92.120959 L 404.80516,91.044929 L 403.10706,87.950629 C 402.4473,86.295629 402.96387,84.535539 402.82554,82.769089 C 402.3686,81.507249 402.5104,81.498129 400.87037,81.704079 C 399.23034,81.910039 396.26525,83.592919 396.26525,83.592919 L 392.51023,83.772449 L 390.06899,80.609569 L 385.87922,78.053169 z "
       class="fil1" />
    <path
       sodipodi:nodetypes="ccs"
       id="path16579"
       d="M 387.22109,86.610719 C 390.17664,86.989689 391.28242,86.306489 392.86368,83.922899 C 391.08654,86.899619 392.0779,88.620669 393.17449,90.165249"
       style="fill:#e5d857;fill-opacity:1;fill-rule:evenodd;stroke:#000000;stroke-width:1.73346233px;stroke-linecap:butt;stroke-linejoin:miter;stroke-opacity:1" />
    <path
       style="fill:#e5d857;fill-opacity:1;fill-rule:evenodd;stroke:#000000;stroke-width:1.73346233px;stroke-linecap:butt;stroke-linejoin:miter;stroke-opacity:1"
       d="M 399.23364,93.782869 C 402.18919,94.161829 403.29496,93.478639 404.87623,91.095049 C 403.09908,94.071759 404.09045,95.792809 405.18704,97.337399"
       id="path16581"
       sodipodi:nodetypes="ccs" />
    <path
       id="path16583"
       d="M 359.86532,104.61778 C 362.33932,104.17209 362.33932,104.17209 362.33932,104.17209 L 359.86532,104.61778 z "
       style="fill:none;fill-rule:evenodd;stroke:#000000;stroke-width:0.73902696;stroke-linecap:butt;stroke-linejoin:miter;stroke-miterlimit:4;stroke-dasharray:none;stroke-opacity:1" />
    <path
       class="fil3"
       d="M 363.20414,107.48117 C 363.20414,107.74471 363.35062,107.89113 363.58481,107.92041 C 363.87742,107.97899 364.28721,107.86186 364.11161,107.51045 C 363.93601,107.12976 363.20414,106.8955 363.20414,107.48117 z "
       id="path16585"
       style="fill:#000000;fill-rule:evenodd" />
    <path
       style="fill:#000000;fill-rule:evenodd"
       id="path16587"
       d="M 365.9418,107.48117 C 365.9418,107.74471 366.0881,107.89113 366.32229,107.92041 C 366.61508,107.97899 367.02487,107.86186 366.84927,107.51045 C 366.67367,107.12976 365.9418,106.8955 365.9418,107.48117 z "
       class="fil3" />
    <path
       sodipodi:nodetypes="ccc"
       id="path16589"
       d="M 398.82645,128.39513 C 393.39169,121.498 393.39169,121.92904 393.39169,121.92904 L 398.82645,128.39513 z "
       style="fill:none;fill-rule:evenodd;stroke:#000000;stroke-width:2.24100447px;stroke-linecap:butt;stroke-linejoin:round;stroke-opacity:1" />
    <path
       sodipodi:nodetypes="ccc"
       id="path16591"
       d="M 402.43881,112.88886 L 395.46318,108.75509 L 402.43881,112.88886 z "
       style="fill:none;fill-rule:evenodd;stroke:#000000;stroke-width:1.73346233px;stroke-linecap:butt;stroke-linejoin:round;stroke-opacity:1" />
    <path
       sodipodi:nodetypes="cccc"
       id="path16593"
       d="M 364.67065,111.23916 L 369.83793,109.94735 L 368.28769,115.63129 L 364.67065,111.23916 z "
       style="fill:#f9f8f4;fill-opacity:1;stroke:#000000;stroke-width:0.55817485;stroke-linejoin:round;stroke-miterlimit:4;stroke-dasharray:none;stroke-opacity:1" />
    <path
       style="fill:#f9f8f4;fill-opacity:1;stroke:#000000;stroke-width:0.55817485;stroke-linejoin:round;stroke-miterlimit:4;stroke-dasharray:none;stroke-opacity:1"
       d="M 371.46773,122.014 L 366.22089,122.93031 L 368.17641,117.37278 L 371.46773,122.014 z "
       id="path16595"
       sodipodi:nodetypes="cccc" />
    <path
       id="path16597"
       d="M 350.35173,144.29476 L 356.19783,145.3909 L 363.50542,144.29476"
       style="fill:none;fill-rule:evenodd;stroke:#000000;stroke-width:1.73346233px;stroke-linecap:butt;stroke-linejoin:miter;stroke-opacity:1" />
    <path
       id="path16599"
       d="M 405.88926,167.67896 L 402.23547,158.17914 L 398.21627,151.5392"
       style="fill:none;fill-rule:evenodd;stroke:#000000;stroke-width:1.73346233px;stroke-linecap:butt;stroke-linejoin:miter;stroke-opacity:1" />
    <path
       style="fill:none;fill-rule:evenodd;stroke:#000000;stroke-width:1.73346233px;stroke-linecap:butt;stroke-linejoin:miter;stroke-opacity:1"
       d="M 285.59062,214.72302 C 284.69962,212.98955 283.93673,211.25609 281.2327,211.25609 L 281.2327,211.25609"
       id="path16651"
       sodipodi:nodetypes="ccc" />
    <path
       style="fill:none;fill-rule:evenodd;stroke:#000000;stroke-width:1.73346233px;stroke-linecap:butt;stroke-linejoin:miter;stroke-opacity:1"
       d="M 296.83386,221.65686 C 295.1004,219.9234 293.36693,218.09118 289.90001,219.0073"
       id="path16653"
       sodipodi:nodetypes="cs" />
    <path
       style="fill:none;fill-rule:evenodd;stroke:#000000;stroke-width:1.73346233px;stroke-linecap:butt;stroke-linejoin:miter;stroke-opacity:1"
       d="M 284.69962,204.32224 C 283.7951,202.58878 281.2327,200.85532 281.2327,200.85532"
       id="path16655" />
    <path
       style="fill:none;fill-rule:evenodd;stroke:#000000;stroke-width:1.73346233px;stroke-linecap:butt;stroke-linejoin:miter;stroke-opacity:1"
       d="M 312.43502,221.65686 C 310.70156,219.9234 308.96809,219.9234 308.96809,219.9234"
       id="path16657" />
    <path
       style="fill:none;fill-rule:evenodd;stroke:#000000;stroke-width:1.73346233px;stroke-linecap:butt;stroke-linejoin:miter;stroke-opacity:1"
       d="M 315.90194,197.38839 C 340.17042,174.85338 340.17042,174.85338 340.17042,174.85338"
       id="path16659" />
    <path
       style="fill:none;fill-rule:evenodd;stroke:#000000;stroke-width:1px;stroke-linecap:butt;stroke-linejoin:miter;stroke-opacity:1"
       d="M 399.64286,255.80764 C 398.75,252.41478 396.25,250.4505 396.07143,250.62907"
       id="path2303"
       transform="translate(31.234752,32.583378)"
       sodipodi:nodetypes="cs" />
    <path
       style="fill:none;fill-rule:evenodd;stroke:#000000;stroke-width:1px;stroke-linecap:butt;stroke-linejoin:miter;stroke-opacity:1"
       d="M 418.57143,266.7005 C 416.25,264.73621 413.39286,264.02193 411.42857,265.98621"
       id="path2305"
       transform="translate(31.234752,32.583378)"
       sodipodi:nodetypes="cs" />
  </g>
</svg>
