<?xml version="1.0" encoding="UTF-8" standalone="no"?>
<!DOCTYPE svg PUBLIC "-//W3C//DTD SVG 20010904//EN"
"http://www.w3.org/TR/2001/REC-SVG-20010904/DTD/svg10.dtd">
<!-- Created with Sodipodi ("http://www.sodipodi.com/") -->
<svg
   xmlns:dc="http://purl.org/dc/elements/1.1/"
   xmlns:cc="http://web.resource.org/cc/"
   xmlns:rdf="http://www.w3.org/1999/02/22-rdf-syntax-ns#"
   xmlns:svg="http://www.w3.org/2000/svg"
   xmlns="http://www.w3.org/2000/svg"
   xmlns:sodipodi="http://sodipodi.sourceforge.net/DTD/sodipodi-0.dtd"
   xmlns:inkscape="http://www.inkscape.org/namespaces/inkscape"
   xml:space="preserve"
   width="820pt"
   height="787pt"
   style="shape-rendering:geometricPrecision; text-rendering:geometricPrecision; image-rendering:optimizeQuality; fill-rule:evenodd"
   viewBox="0 0 8268 11692"
   id="svg2"
   sodipodi:version="0.34"
   inkscape:version="0.43"
   sodipodi:docname="D:\Dokumenty\Wikipedie\images\svg\Pardubice coat of arms.svg"
   xmlns:xlink="http://www.w3.org/1999/xlink"><metadata
   id="metadata126"><rdf:RDF><cc:Work
   rdf:about=""><dc:format>image/svg+xml</dc:format><dc:type
   rdf:resource="http://purl.org/dc/dcmitype/StillImage" /></cc:Work></rdf:RDF></metadata><sodipodi:namedview
   inkscape:window-height="540"
   inkscape:window-width="767"
   inkscape:pageshadow="2"
   inkscape:pageopacity="0.0"
   borderopacity="1.0"
   bordercolor="#666666"
   pagecolor="#ffffff"
   id="base"
   inkscape:zoom="0.35539137"
   inkscape:cx="372.04742"
   inkscape:cy="526.18048"
   inkscape:window-x="44"
   inkscape:window-y="44"
   inkscape:current-layer="svg2" /><defs
   id="defs4"><style
   type="text/css"
   id="style6">
   
    .str1 {stroke:#1F1A17;stroke-width:3}
    .str0 {stroke:#131516;stroke-width:56}
    .fil4 {fill:#FFFFFF}
    .fil3 {fill:#131516}
    .fil0 {fill:#CD3530}
    .fil2 {fill:#EEA436}
    .fil1 {fill:#FFFFFF}
   
  </style></defs><g
   id="Layer 1"
   transform="matrix(2.20929,0,0,2.035162,-5047.317,-6040.363)"><path
   class="fil0 str0"
   d="M 4158,8640 L 4156,8639 C 3741,8456 3420,8245 3038,8008 C 2569,7718 2070,7235 1804,6811 C 1110,5708 1660,3943 1907,3041 L 6405,3041 C 6652,3943 7201,5708 6508,6811 C 6242,7235 5743,7718 5274,8008 C 4892,8245 4573,8457 4158,8640 z "
   id="path9"
   style="fill:#cd3530;stroke:#131516;stroke-width:56" /><g
   id="g11"><path
   class="fil1"
   d="M 3118,4418 L 3066,4489 C 2990,4514 3177,4602 3210,4621 C 3257,4647 3455,5021 3481,4864 C 3510,4685 3504,4724 3658,4635 C 3732,4592 3809,4506 3902,4575 C 4140,4754 3784,5106 3696,5282 C 3555,5423 3544,5673 3544,5863 C 3530,5854 3505,5864 3490,5872 C 3483,5877 3471,5884 3457,5894 C 3444,5903 3428,5914 3414,5926 C 3399,5938 3386,5950 3376,5961 C 3366,5973 3360,5983 3360,5991 C 3238,5938 3157,5867 3073,5801 C 2989,5734 2903,5672 2824,5582 C 2771,5522 2516,5566 2459,5645 L 2310,5837 L 2071,6056 L 2037,6153 L 2021,6312 L 1956,6413 L 1968,6490 L 1991,6510 L 2146,6512 L 2279,6550 L 2322,6518 L 2331,6446 L 2213,6318 L 2211,6266 L 2301,6273 L 2342,6210 L 2382,6063 L 2597,5874 L 2669,5859 L 2735,5920 L 2914,6352 L 3131,6626 L 3324,6752 L 3454,6779 L 3528,6781 C 3582,6783 3625,6771 3670,6757 L 3441,6879 L 3143,6907 L 3032,6957 L 3001,7021 L 2998,7043 L 2957,7110 L 2945,7246 L 3051,7421 L 3210,7786 L 3288,7910 L 3455,8002 L 3545,8108 L 3626,8152 L 3743,8028 L 3803,7872 L 3748,7814 L 3606,7860 L 3518,7838 L 3549,7755 L 3479,7638 L 3333,7497 L 3245,7276 L 3275,7203 L 3391,7205 L 3754,7274 L 4323,7232 L 4426,7135 C 4430,7135 4434,7139 4437,7141 C 4455,7149 4478,7154 4500,7160 L 4700,7198 L 5223,7277 L 5726,7153 L 6011,6954 L 6215,6665 L 6292,6335 L 6278,6036 L 6165,5774 L 6016,5642 L 5794,5597 L 5563,5575 L 5455,5525 L 5152,5235 L 4972,5070 L 4970,4986 C 4981,4996 4988,5013 5003,5024 C 5026,5041 5046,5055 5069,5070 C 5083,5080 5122,5107 5137,5107 L 5200,5116 L 5296,5089 L 5375,5015 L 5297,5015 L 5222,5002 L 5130,4926 L 5083,4863 L 5317,4903 L 5431,4862 L 5590,4702 L 5424,4709 L 5307,4661 L 5166,4517 L 5079,4476 L 5189,4465 L 5365,4509 L 5510,4482 L 5619,4369 L 5556,4368 L 5424,4310 L 5270,4169 L 5133,4109 L 5361,4042 L 5456,3918 L 5296,3918 L 5060,3807 L 4966,3767 L 5245,3557 L 5189,3537 L 5033,3536 L 4839,3560 L 4644,3545 L 4725,3492 L 4822,3441 L 4873,3365 L 4721,3370 L 4575,3343 L 4445,3356 L 4365,3388 L 4282,3450 L 4217,3509 L 4257,3401 L 4302,3343 L 4383,3302 L 4436,3262 L 4273,3278 L 4179,3325 L 4109,3399 L 4045,3470 L 4001,3501 L 3971,3511 C 3960,3514 3945,3515 3934,3518 C 3929,3520 3920,3519 3915,3519 C 3908,3519 3900,3516 3894,3516 L 3881,3509 L 3773,3359 L 3682,3300 L 3661,3264 L 3631,3250 L 3601,3259 L 3633,3366 L 3650,3507 L 3612,3506 L 3431,3355 L 3405,3348 L 3401,3364 L 3418,3418 L 3435,3526 L 3459,3579 L 3467,3585 L 3501,3616 L 3420,3693 L 3362,3722 L 3303,3693 L 3288,3649 L 3283,3643 C 3273,3688 3283,3714 3295,3736 C 3304,3752 3324,3767 3348,3769 C 3369,3771 3438,3768 3443,3767 L 3358,3887 L 3279,3956 L 3256,4084 L 3253,4114 L 3177,4219 L 3118,4418 z "
   id="path13"
   style="fill:#ffffff" /><path
   class="fil2"
   d="M 3536,5134 L 3551,5151 C 3567,5167 3798,5390 3829,5409 C 3944,5479 4065,5524 4188,5575 C 4394,5650 4892,5535 5063,5429 C 5122,5402 5191,5351 5248,5317 L 5654,5083 C 5974,4897 6265,5092 5925,5322 C 5793,5412 5503,5413 5346,5413 L 5405,5496 C 5603,5503 5755,5489 5942,5415 C 6138,5338 6265,5030 6028,4948 C 5818,4875 5387,5128 5201,5243 C 5014,5358 4808,5445 4566,5445 C 4049,5491 3693,5210 3348,4785 C 3348,4785 3369,4766 3371,4761 C 3376,4750 3384,4738 3388,4726 C 3395,4703 3385,4676 3368,4663 C 3369,4663 3429,4594 3438,4585 C 3465,4558 3501,4511 3530,4476 L 3660,4296 L 3823,4052 C 3841,4052 3864,4058 3881,4056 C 3896,4054 3940,4039 3949,4023 C 3966,3995 3990,3923 3937,3903 C 3943,3891 3975,3837 3986,3823 C 4008,3793 4026,3743 4028,3706 C 4034,3604 3992,3573 3901,3553 L 3904,3561 C 3985,3612 3989,3618 3989,3680 C 3989,3701 3980,3727 3975,3745 C 3972,3755 3949,3802 3945,3808 C 3943,3810 3939,3816 3938,3819 C 3937,3824 3932,3831 3929,3836 C 3922,3848 3909,3863 3897,3869 C 3850,3870 3835,3876 3809,3883 C 3807,3881 3803,3880 3800,3877 C 3767,3844 3728,3807 3691,3781 C 3663,3761 3636,3746 3607,3736 C 3563,3714 3504,3721 3465,3730 L 3459,3751 C 3470,3751 3476,3750 3487,3752 C 3503,3755 3524,3760 3539,3763 C 3543,3763 3578,3777 3589,3781 C 3614,3792 3642,3811 3663,3827 C 3685,3843 3774,3903 3781,3931 C 3777,3931 3766,3952 3766,3957 C 3766,3970 3765,3988 3771,4000 C 3773,4005 3790,4028 3795,4028 L 3527,4405 L 3421,4537 L 3331,4621 C 3285,4578 3245,4635 3231,4605 C 3220,4585 3188,4549 3167,4541 C 3136,4527 3065,4488 3041,4514 C 3037,4518 3024,4526 3021,4531 C 3017,4535 3012,4541 3008,4547 C 3006,4550 3000,4559 2998,4560 C 2996,4560 2992,4566 2991,4568 C 3071,4579 3123,4560 3167,4649 C 3182,4679 3183,4730 3190,4763 C 3198,4795 3274,4807 3304,4816 C 3333,4825 3501,5093 3536,5134 z "
   id="path15"
   style="fill:#eea436" /><path
   class="fil2"
   d="M 3494,4877 L 3490,4875 C 3422,4912 3509,4964 3543,5002 C 3583,5045 3637,5096 3690,5136 C 3744,5178 3746,5178 3787,5117 C 3813,5080 3800,5075 3762,5059 C 3707,5037 3646,4990 3598,4955 C 3579,4942 3513,4877 3494,4877 z "
   id="path17"
   style="fill:#eea436" /><path
   class="fil3"
   d="M 3185,4651 L 3176,4634 C 3158,4617 3144,4605 3123,4590 C 3117,4586 3106,4579 3094,4571 C 3082,4564 3064,4559 3056,4559 C 3039,4559 3019,4558 3003,4564 C 2986,4570 2943,4619 2938,4639 C 2926,4687 2930,4699 2941,4741 C 2948,4770 2955,4802 2971,4840 C 2978,4857 3002,4880 3030,4904 C 3037,4910 3047,4910 3052,4911 C 3058,4913 3059,4918 3065,4923 C 3068,4925 3068,4932 3070,4937 C 3073,4943 3078,4946 3082,4950 C 3089,4958 3102,4961 3106,4964 C 3126,4979 3162,4980 3187,4980 C 3207,4980 3233,4953 3240,4946 C 3248,4944 3256,4927 3262,4927 C 3271,4927 3282,4955 3290,4961 C 3332,4991 3368,4980 3411,4965 C 3408,4943 3387,4915 3368,4887 C 3364,4881 3359,4873 3354,4865 C 3348,4856 3343,4848 3338,4840 C 3333,4832 3328,4825 3323,4820 C 3318,4815 3313,4812 3310,4811 C 3278,4808 3250,4801 3234,4791 C 3219,4782 3214,4779 3202,4761 C 3182,4733 3196,4685 3185,4651 z "
   id="path19"
   style="fill:#131516" /><path
   class="fil1"
   d="M 3034,4574 C 2994,4580 2968,4610 2962,4652 C 2957,4690 2978,4698 2982,4728 C 2984,4747 2981,4774 2983,4794 C 2985,4814 2991,4824 3005,4838 C 3065,4898 3081,4908 3151,4874 C 3135,4890 3104,4927 3134,4947 C 3182,4979 3269,4868 3244,4818 C 3241,4811 3204,4798 3196,4792 C 3185,4783 3178,4767 3177,4743 C 3176,4674 3167,4667 3142,4639 C 3112,4606 3085,4565 3034,4574 z "
   id="path21"
   style="fill:#ffffff" /><path
   class="fil1"
   d="M 3300,4827 L 3307,4826 C 3321,4832 3348,4865 3354,4879 C 3361,4893 3376,4909 3366,4927 C 3348,4956 3301,4918 3290,4902 C 3280,4886 3282,4836 3300,4827 z "
   id="path23"
   style="fill:#ffffff" /><path
   class="fil3"
   d="M 3673,6570 C 3641,6497 3622,6403 3635,6292 C 3645,6210 3677,6117 3711,6052 C 3810,5858 3905,5811 4083,5706 C 4033,5720 4010,5733 3960,5759 C 3913,5782 3866,5815 3823,5856 C 3781,5897 3737,5941 3704,5984 C 3671,6026 3647,6069 3631,6100 C 3581,6202 3566,6317 3567,6432 C 3567,6454 3571,6508 3590,6562 C 3591,6566 3593,6570 3595,6575 C 3597,6580 3600,6585 3603,6591 C 3606,6596 3609,6602 3612,6608 C 3616,6614 3619,6620 3623,6626 C 3626,6632 3630,6638 3633,6643 C 3637,6649 3641,6654 3644,6659 C 3647,6664 3650,6669 3653,6673 C 3656,6677 3659,6680 3661,6683 C 3721,6574 3818,6460 3965,6414 C 4107,6369 4242,6385 4363,6456 C 4248,6362 4130,6356 3992,6378 C 3969,6381 3931,6394 3895,6409 C 3860,6424 3821,6447 3801,6460 C 3777,6476 3763,6484 3732,6516 L 3673,6570 z "
   id="path25"
   style="fill:#131516" /><path
   class="fil3"
   d="M 3351,6237 C 3384,6307 3397,6393 3371,6452 C 3323,6558 3218,6475 3202,6458 C 3081,6330 3021,6150 2942,6011 C 3018,6103 3070,6230 3144,6322 C 3193,6381 3252,6481 3329,6443 C 3397,6410 3363,6285 3351,6237 z "
   id="path27"
   style="fill:#131516" /><path
   class="fil3"
   d="M 3518,7095 C 3600,7095 3680,7093 3758,7091 C 3835,7089 3913,7089 3987,7051 C 3998,7046 4096,6988 4085,6937 C 4077,6904 4038,6879 4008,6867 C 3993,6862 3967,6856 3950,6856 C 3949,6856 3928,6855 3928,6854 C 4039,6837 4209,6930 4086,7033 C 3997,7108 3936,7105 3827,7103 C 3766,7102 3728,7105 3633,7100 C 3607,7099 3575,7098 3550,7096 L 3518,7095 z "
   id="path29"
   style="fill:#131516" /><path
   class="fil3"
   d="M 1977,6487 C 1963,6527 1949,6571 1936,6614 C 1932,6629 1897,6738 1907,6739 L 1965,6740 C 1984,6740 1997,6734 2026,6727 C 2086,6713 2147,6691 2162,6686 C 2174,6682 2204,6672 2233,6661 C 2262,6650 2295,6639 2296,6626 C 2296,6612 2297,6599 2298,6586 C 2298,6572 2299,6559 2299,6545 C 2300,6538 2291,6532 2282,6527 C 2273,6521 2264,6514 2251,6511 C 2232,6506 2205,6499 2191,6496 C 2113,6479 2018,6483 1977,6487 z "
   id="path31"
   style="fill:#131516" /><path
   class="fil2"
   d="M 2009,6524 C 1985,6553 1973,6613 1962,6649 C 1944,6708 1980,6689 2023,6677 C 2090,6659 2152,6643 2216,6619 C 2237,6611 2266,6588 2257,6560 C 2244,6521 2045,6524 2009,6524 z "
   id="path33"
   style="fill:#eea436" /><path
   class="fil3"
   d="M 2439,5863 L 2288,6003 C 2314,5978 2397,5892 2405,5883 C 2417,5871 2428,5859 2437,5849 C 2446,5839 2456,5831 2463,5821 C 2470,5812 2476,5804 2482,5794 C 2487,5783 2493,5763 2495,5748 C 2500,5762 2517,5781 2529,5790 C 2537,5796 2564,5802 2579,5803 C 2545,5801 2513,5811 2481,5832 C 2466,5841 2452,5852 2439,5863 z "
   id="path35"
   style="fill:#131516" /><path
   class="fil3"
   d="M 3333,4090 C 3346,4090 3367,4096 3381,4096 C 3410,4096 3402,4052 3444,4061 C 3450,4062 3455,4065 3459,4068 C 3463,4071 3467,4076 3469,4081 C 3471,4085 3468,4092 3469,4112 C 3470,4117 3445,4115 3443,4121 C 3436,4138 3443,4142 3459,4142 C 3474,4142 3481,4139 3489,4134 C 3496,4128 3502,4124 3504,4115 C 3508,4098 3499,4077 3513,4073 C 3522,4070 3547,4075 3558,4073 C 3569,4071 3583,4059 3593,4057 C 3598,4056 3600,4056 3600,4056 C 3600,4057 3598,4059 3596,4061 C 3593,4063 3589,4066 3585,4069 C 3581,4073 3578,4076 3575,4080 C 3567,4091 3551,4094 3542,4100 C 3534,4107 3526,4109 3521,4124 C 3519,4128 3519,4137 3519,4141 C 3519,4145 3519,4149 3520,4152 C 3520,4156 3520,4160 3519,4163 C 3518,4166 3513,4168 3510,4171 C 3503,4177 3492,4179 3483,4180 C 3474,4181 3463,4183 3452,4179 C 3430,4171 3409,4158 3390,4143 C 3380,4135 3381,4123 3373,4114 C 3364,4106 3340,4099 3333,4090 z "
   id="path37"
   style="fill:#131516" /><path
   class="fil3"
   d="M 3440,4019 C 3454,4019 3467,4018 3479,4023 L 3529,4046 C 3502,4028 3475,3998 3440,3998 C 3401,3998 3380,4029 3370,4066 C 3378,4056 3386,4045 3395,4037 C 3405,4029 3423,4022 3440,4019 z "
   id="path39"
   style="fill:#131516" /><path
   class="fil3"
   d="M 3567,4086 L 3547,4094 C 3556,4106 3560,4134 3553,4148 C 3546,4163 3533,4175 3521,4187 C 3534,4180 3562,4152 3565,4138 C 3570,4119 3567,4104 3567,4086 z "
   id="path41"
   style="fill:#131516" /><path
   class="fil3"
   d="M 3073,4710 C 3068,4708 3057,4703 3054,4705 C 3052,4706 3051,4710 3053,4718 C 3056,4727 3065,4724 3069,4726 C 3075,4728 3082,4728 3081,4735 C 3078,4749 3065,4754 3056,4758 C 3048,4762 3046,4773 3046,4787 C 3046,4798 3053,4810 3060,4816 C 3065,4821 3079,4829 3086,4831 C 3096,4833 3107,4831 3114,4825 C 3121,4819 3130,4814 3132,4800 C 3133,4792 3134,4779 3131,4770 C 3128,4762 3120,4754 3114,4746 C 3100,4729 3084,4714 3073,4710 z "
   id="path43"
   style="fill:#131516" /><path
   class="fil3"
   d="M 3867,8317 C 3860,8316 3734,8228 3715,8212 C 3679,8182 3639,8158 3591,8152 C 3684,8089 3750,7989 3801,7863 C 3809,7867 3819,7872 3828,7877 C 3865,7898 3880,7910 3890,7924 C 3895,7930 3908,7948 3908,7949 C 3913,7969 3913,8006 3911,8039 C 3907,8096 3905,8156 3894,8212 C 3893,8217 3887,8245 3883,8265 C 3879,8285 3874,8304 3867,8317 z "
   id="path45"
   style="fill:#131516" /><path
   class="fil3"
   d="M 3178,7404 L 3241,7564 C 3221,7531 3189,7449 3171,7413 C 3144,7358 3115,7318 3076,7271 C 3095,7271 3108,7269 3125,7262 C 3134,7259 3166,7219 3166,7209 C 3162,7248 3161,7289 3161,7329 C 3161,7348 3171,7387 3178,7404 z "
   id="path47"
   style="fill:#131516" /><path
   class="fil3"
   d="M 3831,3568 C 3809,3581 3777,3581 3751,3566 C 3725,3551 3705,3521 3698,3497 C 3687,3460 3681,3413 3676,3374 C 3706,3456 3708,3570 3831,3568 z "
   id="path49"
   style="fill:#131516" /><path
   class="fil2"
   d="M 3834,8252 C 3832,8252 3844,8201 3845,8194 C 3849,8169 3856,8142 3860,8117 C 3866,8078 3875,8030 3867,7991 C 3867,7988 3851,7966 3848,7964 C 3837,7956 3830,7942 3816,7938 C 3801,7976 3775,8012 3755,8043 C 3734,8075 3710,8106 3682,8134 C 3714,8185 3786,8220 3834,8252 z "
   id="path51"
   style="fill:#eea436" /><path
   class="fil3"
   d="M 3033,4517 C 3047,4489 3078,4457 3096,4424 C 3114,4391 3125,4352 3130,4320 C 3140,4248 3179,4181 3228,4123 C 3244,4104 3248,4059 3248,4034 C 3248,4013 3252,3964 3268,3944 C 3296,3910 3337,3883 3364,3844 C 3389,3809 3427,3773 3459,3748 C 3449,3815 3384,3892 3324,3938 C 3262,3986 3302,4086 3277,4124 C 3265,4143 3238,4160 3210,4213 C 3188,4256 3179,4304 3169,4334 C 3146,4403 3103,4490 3033,4517 z "
   id="path53"
   style="fill:#131516" /><path
   class="fil3"
   d="M 3606,3521 C 3568,3530 3531,3564 3498,3600 C 3467,3634 3439,3667 3406,3688 C 3332,3738 3282,3666 3286,3586 C 3286,3617 3278,3648 3281,3683 C 3286,3741 3354,3757 3403,3739 C 3446,3723 3473,3700 3490,3665 C 3497,3650 3502,3639 3509,3623 C 3518,3602 3532,3590 3540,3580 C 3558,3556 3575,3544 3606,3521 z "
   id="path55"
   style="fill:#131516" /><path
   class="fil3"
   d="M 3499,3599 L 3486,3614 C 3462,3603 3448,3581 3438,3559 C 3427,3536 3420,3509 3418,3479 C 3416,3455 3412,3430 3407,3407 C 3404,3396 3397,3369 3395,3359 C 3394,3348 3398,3352 3398,3342 C 3443,3333 3472,3373 3497,3398 C 3519,3420 3544,3443 3571,3459 C 3588,3469 3603,3482 3621,3490 C 3624,3492 3658,3500 3658,3502 C 3662,3540 3641,3536 3613,3527 C 3601,3523 3601,3513 3593,3506 C 3586,3500 3573,3497 3565,3492 C 3549,3481 3529,3468 3510,3451 C 3491,3434 3428,3357 3409,3357 C 3404,3364 3415,3380 3422,3403 C 3430,3425 3431,3443 3436,3482 C 3442,3535 3468,3585 3499,3599 z "
   id="path57"
   style="fill:#131516" /><path
   class="fil3"
   d="M 3744,3705 L 3754,3713 C 3810,3751 3860,3704 3889,3652 C 3918,3600 3905,3521 3889,3475 C 3883,3458 3842,3397 3814,3371 C 3787,3344 3783,3339 3747,3323 C 3706,3305 3689,3271 3663,3255 C 3638,3239 3613,3248 3596,3254 C 3615,3323 3637,3376 3637,3452 C 3637,3487 3640,3533 3660,3562 C 3709,3633 3740,3628 3809,3628 C 3725,3605 3683,3591 3660,3498 C 3650,3454 3648,3408 3638,3365 C 3632,3341 3606,3283 3606,3263 C 3613,3258 3637,3250 3654,3273 C 3673,3298 3697,3332 3731,3356 C 3759,3376 3792,3404 3811,3434 C 3830,3463 3846,3490 3852,3503 C 3871,3549 3883,3634 3847,3677 C 3819,3711 3802,3709 3777,3709 C 3767,3709 3756,3705 3744,3705 z "
   id="path59"
   style="fill:#131516" /><path
   class="fil3 str1"
   d="M 3529,4411 L 3790,4033 C 3774,4058 3707,4159 3687,4185 C 3623,4267 3418,4568 3334,4612 C 3329,4609 3315,4602 3310,4600 C 3297,4596 3281,4597 3268,4597 C 3258,4597 3248,4604 3239,4606 C 3204,4565 3193,4552 3161,4532 C 3130,4512 3092,4505 3060,4505 C 3094,4507 3148,4529 3176,4548 C 3183,4554 3239,4612 3239,4626 C 3245,4622 3251,4619 3259,4617 C 3270,4615 3287,4616 3299,4617 C 3304,4617 3332,4623 3332,4629 C 3363,4601 3404,4569 3427,4538 C 3452,4505 3509,4437 3529,4411 z "
   id="path61"
   style="fill:#131516;stroke:#1f1a17;stroke-width:3" /><path
   class="fil3"
   d="M 3364,4663 C 3543,4484 3684,4249 3823,4047 C 3843,4049 3864,4051 3883,4050 C 3903,4048 3920,4043 3933,4030 C 3945,4017 3951,4010 3959,3983 C 3963,3965 3965,3947 3959,3929 C 3956,3921 3958,3913 3935,3904 C 3949,3904 3958,3910 3965,3918 C 3971,3925 3975,3932 3976,3943 C 3977,3955 3978,3970 3976,3982 C 3973,3994 3969,4005 3966,4012 C 3950,4056 3904,4066 3864,4065 L 3845,4064 C 3844,4064 3835,4064 3835,4063 C 3821,4070 3794,4122 3764,4167 C 3742,4201 3716,4238 3713,4242 C 3621,4378 3491,4555 3364,4663 z "
   id="path63"
   style="fill:#131516" /><path
   class="fil3"
   d="M 5599,4361 L 5654,4355 C 5607,4410 5559,4492 5468,4524 C 5377,4557 5311,4527 5230,4497 C 5146,4466 5171,4489 5145,4492 C 5177,4480 5319,4660 5386,4685 C 5469,4715 5557,4679 5626,4688 C 5583,4731 5546,4781 5506,4827 C 5424,4929 5306,4933 5185,4903 C 5171,4899 5126,4877 5114,4883 C 5139,4915 5166,4952 5207,4979 C 5265,5017 5338,5005 5398,5005 C 5397,5005 5374,5042 5365,5051 C 5345,5070 5319,5096 5292,5107 C 5271,5115 5256,5118 5239,5121 C 5222,5123 5206,5125 5189,5125 C 5159,5124 5138,5120 5121,5110 C 5104,5099 5092,5083 5069,5072 C 5114,5094 5176,5121 5230,5099 C 5276,5081 5315,5064 5346,5026 C 5273,5026 5199,5018 5147,4967 C 5110,4930 5086,4877 5042,4849 C 5040,4850 5089,4850 5098,4851 C 5174,4860 5203,4881 5314,4879 C 5410,4876 5517,4752 5543,4718 C 5407,4718 5316,4731 5231,4605 C 5179,4526 5128,4488 5028,4489 C 5062,4477 5095,4444 5163,4448 C 5216,4451 5264,4465 5316,4473 C 5439,4491 5491,4471 5575,4383 C 5575,4382 5482,4373 5441,4339 C 5399,4305 5356,4271 5317,4233 C 5245,4163 5193,4130 5082,4130 C 5031,4130 4968,4149 4931,4168 C 5069,4031 5332,4109 5418,3935 C 5378,3933 5340,3932 5299,3929 C 5191,3929 5101,3810 4956,3800 C 4847,3793 4787,3813 4705,3883 C 4710,3872 4727,3849 4747,3827 C 4767,3805 4788,3785 4800,3777 C 4827,3761 4861,3757 4894,3751 C 4926,3744 4960,3740 4988,3721 C 5067,3669 5131,3593 5222,3559 C 5218,3559 5206,3551 5202,3550 C 5192,3547 5180,3545 5170,3544 C 5089,3530 4997,3576 4914,3576 C 4852,3577 4792,3571 4731,3561 C 4624,3544 4547,3563 4464,3632 C 4466,3632 4487,3607 4489,3604 C 4501,3588 4533,3564 4551,3554 C 4589,3535 4622,3510 4663,3502 C 4732,3488 4811,3438 4849,3380 C 4779,3380 4697,3384 4630,3373 C 4537,3362 4440,3352 4357,3407 C 4311,3437 4243,3513 4196,3530 C 4213,3513 4216,3483 4225,3452 C 4234,3421 4248,3388 4266,3366 C 4302,3321 4374,3309 4404,3273 C 4276,3273 4197,3313 4117,3406 C 4066,3465 4014,3519 3931,3519 C 3960,3509 3986,3504 4007,3492 C 4027,3479 4042,3460 4058,3444 C 4088,3411 4112,3370 4155,3328 C 4194,3290 4239,3273 4289,3266 C 4313,3262 4339,3261 4365,3261 C 4379,3260 4400,3261 4414,3259 C 4437,3256 4448,3251 4461,3246 C 4441,3288 4374,3315 4337,3342 C 4317,3357 4276,3390 4265,3412 C 4261,3420 4250,3442 4249,3452 C 4266,3452 4319,3400 4337,3389 C 4505,3291 4643,3353 4826,3363 C 4854,3359 4880,3349 4902,3339 C 4885,3371 4854,3433 4825,3458 C 4789,3488 4721,3516 4678,3529 C 4693,3540 4713,3543 4752,3545 C 4792,3546 4841,3547 4889,3540 C 5018,3520 5104,3511 5180,3526 C 5188,3528 5213,3536 5237,3545 C 5261,3554 5284,3565 5288,3574 C 5241,3574 5189,3609 5146,3657 C 5079,3731 5047,3745 5009,3770 C 5154,3823 5328,3971 5492,3889 C 5431,3971 5375,4127 5244,4127 C 5311,4171 5363,4220 5418,4275 C 5462,4319 5537,4361 5599,4361 z "
   id="path65"
   style="fill:#131516" /><path
   class="fil3"
   d="M 4296,3592 L 4260,3605 C 4301,3594 4387,3506 4426,3483 C 4468,3458 4496,3447 4535,3443 C 4573,3439 4625,3443 4665,3443 C 4633,3447 4581,3444 4548,3451 C 4495,3461 4462,3481 4417,3510 C 4392,3526 4318,3592 4296,3592 z "
   id="path67"
   style="fill:#131516" /><path
   class="fil3"
   d="M 4962,3652 C 4933,3657 4910,3657 4858,3661 C 4817,3664 4776,3664 4735,3667 C 4671,3672 4609,3723 4561,3763 C 4586,3751 4612,3733 4638,3718 C 4665,3702 4692,3689 4720,3686 C 4750,3683 4792,3682 4833,3678 C 4875,3673 4923,3671 4962,3652 z "
   id="path69"
   style="fill:#131516" /><path
   class="fil3"
   d="M 5171,3991 L 5210,3991 C 5155,3991 5099,3949 5045,3944 C 4976,3937 4936,3942 4879,3964 C 4849,3976 4819,4005 4804,4022 C 4818,4020 4856,3988 4877,3981 C 4924,3966 4986,3959 5038,3960 C 5066,3961 5104,3974 5131,3982 C 5137,3983 5171,3990 5171,3991 z "
   id="path71"
   style="fill:#131516" /><path
   class="fil3"
   d="M 5391,4395 C 5337,4383 5254,4310 5185,4296 C 5099,4280 5047,4292 4985,4331 C 5007,4331 5047,4315 5072,4310 C 5127,4299 5207,4313 5254,4340 C 5291,4362 5341,4394 5391,4395 z "
   id="path73"
   style="fill:#131516" /><path
   class="fil3"
   d="M 5365,4786 C 5311,4791 5274,4782 5235,4757 C 5213,4743 5155,4688 5117,4671 C 5086,4657 5055,4661 5026,4669 C 5056,4676 5099,4670 5121,4687 C 5181,4734 5281,4829 5365,4786 z "
   id="path75"
   style="fill:#131516" /><path
   class="fil3"
   d="M 4010,5131 L 3976,5178 C 4131,5003 4293,4799 4331,4532 C 4355,4363 4203,4078 4067,3984 C 4176,4165 4288,4294 4288,4513 C 4288,4623 4253,4714 4214,4816 C 4186,4891 4032,5108 4010,5131 z "
   id="path77"
   style="fill:#131516" /><path
   class="fil3"
   d="M 3608,4507 L 3581,4496 C 3610,4516 3629,4532 3657,4541 C 3682,4550 3686,4560 3745,4562 C 3840,4565 3882,4548 3961,4490 C 4068,4411 4090,4157 3984,4070 C 4035,4165 4034,4317 3974,4407 C 3933,4469 3885,4518 3799,4529 C 3742,4537 3670,4530 3638,4518 L 3608,4507 z "
   id="path79"
   style="fill:#131516" /><path
   class="fil3"
   d="M 3724,5167 L 3750,5189 C 3947,4939 4007,4883 4010,4729 C 4011,4691 4009,4656 3992,4614 C 3981,4587 3962,4565 3940,4552 C 3917,4540 3892,4539 3867,4536 C 3816,4531 3766,4539 3749,4546 C 3699,4567 3686,4581 3650,4607 C 3614,4633 3540,4674 3505,4686 C 3493,4691 3469,4701 3468,4711 C 3464,4739 3467,4770 3467,4790 C 3467,4840 3470,4850 3433,4874 L 3471,4914 C 3477,4907 3482,4899 3487,4892 C 3492,4886 3502,4880 3508,4876 C 3511,4849 3505,4737 3527,4731 C 3528,4725 3638,4671 3653,4663 C 3680,4648 3759,4594 3767,4591 C 3834,4561 3909,4596 3920,4623 C 3975,4760 3943,4872 3861,4985 L 3794,5077 C 3783,5092 3736,5153 3724,5167 z "
   id="path81"
   style="fill:#131516" /><path
   class="fil3"
   d="M 3551,5880 C 3553,5907 3553,5925 3555,5947 L 3564,6013 C 3545,5972 3530,5851 3529,5809 C 3526,5733 3526,5679 3539,5589 C 3543,5557 3552,5529 3576,5464 C 3600,5400 3649,5301 3678,5292 C 3683,5295 3708,5323 3708,5320 C 3675,5347 3645,5391 3629,5423 C 3600,5482 3570,5547 3561,5613 C 3548,5709 3546,5795 3551,5880 z "
   id="path83"
   style="fill:#131516" /><path
   class="fil3"
   d="M 5013,5872 L 5037,5934 C 5036,5934 5015,5853 5015,5852 C 5008,5824 4982,5783 4961,5762 C 4914,5714 4845,5655 4772,5646 C 4816,5661 4884,5708 4918,5741 C 4938,5761 4960,5782 4976,5807 C 4989,5828 5003,5850 5013,5872 z "
   id="path85"
   style="fill:#131516" /><path
   class="fil3"
   d="M 3393,6009 L 3356,5974 L 3374,5956 C 3391,5939 3407,5922 3426,5907 C 3450,5888 3483,5872 3508,5861 C 3494,5870 3467,5900 3440,5931 C 3415,5960 3393,5993 3393,6009 z "
   id="path87"
   style="fill:#131516" /><path
   class="fil3"
   d="M 3509,6777 L 3530,6779 C 3178,6833 2936,6479 2848,6275 C 2813,6189 2727,5878 2660,5876 C 2598,5875 2433,6035 2396,6092 C 2389,6100 2373,6121 2373,6139 C 2373,6158 2367,6197 2363,6215 C 2354,6257 2340,6285 2299,6293 C 2272,6298 2248,6286 2223,6286 C 2231,6307 2268,6349 2272,6354 C 2292,6378 2324,6400 2340,6425 C 2347,6437 2349,6450 2349,6462 C 2350,6475 2348,6494 2342,6505 C 2331,6527 2309,6546 2282,6548 C 2298,6528 2311,6517 2307,6482 C 2303,6441 2239,6388 2219,6353 C 2203,6325 2191,6317 2186,6283 C 2184,6271 2186,6256 2186,6243 C 2199,6238 2233,6252 2251,6252 C 2289,6252 2333,6206 2339,6170 C 2342,6150 2340,6125 2344,6105 C 2349,6081 2353,6077 2357,6063 C 2360,6055 2372,6037 2378,6031 C 2400,6001 2512,5895 2548,5874 C 2707,5781 2770,5942 2805,6028 L 2881,6217 C 2898,6258 2918,6298 2940,6334 L 2976,6392 C 3045,6503 3134,6607 3245,6678 C 3345,6741 3350,6764 3509,6777 z "
   id="path89"
   style="fill:#131516" /><path
   class="fil3"
   d="M 3513,6252 C 3463,6108 3364,6027 3247,5947 C 3187,5906 3125,5866 3061,5830 C 2996,5795 2937,5749 2891,5688 C 2850,5633 2832,5620 2814,5601 C 2764,5548 2760,5555 2693,5575 C 2602,5585 2578,5586 2550,5603 C 2488,5641 2446,5695 2409,5749 C 2326,5867 2241,5918 2105,6051 C 2037,6113 2070,6235 2046,6295 C 2028,6341 1990,6378 1973,6422 C 1965,6444 1978,6486 1996,6493 L 1975,6516 C 1944,6490 1945,6449 1949,6414 C 1952,6386 1968,6364 1983,6340 C 1994,6321 2005,6294 2009,6274 C 2022,6245 2011,6179 2019,6148 C 2035,6085 2075,6022 2126,5983 C 2148,5981 2321,5805 2343,5775 C 2395,5705 2466,5570 2564,5554 C 2598,5552 2631,5548 2664,5549 C 2688,5550 2700,5540 2712,5534 C 2733,5525 2757,5528 2777,5529 C 2878,5574 2938,5690 3029,5751 C 3071,5778 3290,5896 3322,5927 C 3356,5961 3434,6039 3460,6104 C 3463,6112 3484,6151 3490,6166 C 3504,6198 3507,6218 3513,6252 z "
   id="path91"
   style="fill:#131516" /><path
   class="fil3"
   d="M 3792,3881 L 3804,3882 L 3815,3881 C 3730,3804 3668,3747 3614,3732 C 3548,3715 3513,3713 3467,3730 C 3498,3722 3540,3726 3575,3732 C 3668,3747 3733,3823 3792,3881 z "
   id="path93"
   style="fill:#131516" /><path
   class="fil3"
   d="M 3795,3927 L 3785,3939 C 3702,3856 3603,3773 3484,3753 C 3586,3749 3687,3823 3795,3927 z "
   id="path95"
   style="fill:#131516" /><path
   class="fil3"
   d="M 3785,3939 L 3776,3929 C 3753,3959 3765,4006 3790,4025 C 3780,4015 3771,3996 3769,3981 C 3768,3972 3769,3967 3771,3955 C 3772,3950 3780,3939 3785,3939 z "
   id="path97"
   style="fill:#131516" /><path
   class="fil3"
   d="M 3935,3904 L 3947,3907 L 3979,3849 C 3990,3827 4013,3794 4020,3773 C 4041,3708 4053,3644 3992,3590 C 4039,3642 4031,3690 4016,3753 C 4008,3791 3947,3881 3935,3904 z "
   id="path99"
   style="fill:#131516" /><path
   class="fil3"
   d="M 3983,3634 L 3974,3615 C 4005,3646 3990,3722 3977,3754 C 3961,3796 3916,3874 3906,3878 C 3902,3877 3897,3874 3891,3874 C 3881,3875 3865,3872 3855,3875 C 3852,3876 3832,3881 3832,3883 C 3834,3877 3843,3869 3855,3867 C 3866,3864 3880,3865 3886,3865 C 3895,3866 3900,3867 3905,3861 C 3916,3848 3915,3849 3916,3847 C 3931,3826 3943,3807 3955,3785 C 3969,3761 3980,3729 3985,3700 C 3989,3672 3987,3646 3983,3634 z "
   id="path101"
   style="fill:#131516" /><path
   class="fil4"
   d="M 3284,4666 C 3263,4666 3244,4679 3236,4700 C 3222,4739 3266,4776 3302,4755 C 3321,4743 3326,4726 3326,4704 C 3326,4678 3307,4667 3284,4666 z "
   id="path103"
   style="fill:#ffffff" /><path
   class="fil4"
   d="M 3881,3916 C 3856,3916 3836,3929 3829,3950 C 3814,3989 3864,4026 3900,4005 C 3919,3993 3924,3976 3924,3954 C 3924,3928 3904,3917 3881,3916 z "
   id="path105"
   style="fill:#ffffff" /><path
   class="fil3"
   d="M 4634,6674 C 4634,6671 4677,6653 4683,6651 C 4709,6641 4731,6624 4751,6610 C 4779,6590 4809,6564 4832,6541 C 4910,6463 4936,6386 4959,6279 C 4932,6310 4926,6368 4904,6406 C 4792,6594 4705,6621 4634,6674 z "
   id="path107"
   style="fill:#131516" /><path
   class="fil3"
   d="M 5757,6911 L 5970,6771 C 5922,6825 5831,6890 5730,6943 C 5629,6995 5516,7042 5438,7056 C 5248,7089 5139,7084 5044,7072 C 4829,7043 4760,7030 4681,7030 C 4729,7012 4837,7027 4956,7031 C 5072,7035 5191,7051 5260,7046 C 5363,7038 5476,7032 5571,6999 C 5616,6983 5728,6930 5757,6911 z "
   id="path109"
   style="fill:#131516" /><path
   class="fil3"
   d="M 3830,5237 C 3965,5338 4074,5363 4153,5388 C 4202,5403 4380,5439 4495,5437 C 4680,5433 4809,5406 4963,5351 C 5036,5325 5243,5204 5312,5161 C 5413,5098 5559,5018 5676,4972 C 5780,4930 5951,4886 6059,4940 C 6152,4987 6204,5077 6177,5179 C 6162,5235 6123,5325 6007,5406 C 5815,5504 5691,5505 5410,5503 L 5389,5488 C 5402,5488 5416,5489 5429,5490 C 5608,5490 5878,5480 6019,5362 C 6058,5343 6125,5252 6143,5190 C 6164,5120 6148,5032 6080,4990 C 6087,4991 6026,4954 6006,4950 C 5965,4942 5931,4939 5886,4945 C 5832,4952 5778,4966 5728,4982 C 5711,4987 5689,4994 5671,5002 C 5654,5009 5633,5014 5614,5023 C 5584,5037 5554,5052 5525,5067 C 5503,5080 5409,5130 5380,5150 C 5254,5213 5135,5311 5001,5361 C 4835,5423 4693,5446 4523,5458 C 4378,5469 4229,5433 4098,5395 C 3971,5359 3880,5296 3781,5227 C 3636,5124 3459,4939 3345,4785 C 3353,4781 3367,4766 3372,4758 C 3378,4747 3383,4737 3386,4728 C 3392,4708 3385,4680 3371,4666 C 3391,4676 3398,4709 3398,4729 C 3398,4740 3391,4756 3388,4766 C 3386,4770 3382,4780 3379,4791 C 3510,4963 3663,5114 3830,5237 z "
   id="path111"
   style="fill:#131516" /><path
   class="fil3"
   d="M 4021,5494 C 4177,5550 4230,5565 4388,5570 C 4527,5575 4623,5556 4754,5527 C 4923,5490 5046,5420 5177,5353 C 5221,5331 5453,5185 5535,5139 C 5616,5094 5708,5044 5794,5016 C 5865,4992 5927,4995 5997,5010 C 6020,5015 6055,5041 6070,5059 C 6107,5101 6078,5174 6067,5191 C 6015,5268 5991,5292 5914,5339 C 5859,5373 5757,5396 5697,5406 C 5531,5432 5471,5410 5374,5430 L 5345,5407 L 5557,5402 C 5632,5402 5736,5385 5807,5362 C 5921,5324 6071,5254 6071,5115 C 6071,5024 5954,5013 5863,5018 C 5768,5023 5540,5161 5459,5209 C 5324,5290 5158,5403 5015,5478 C 4950,5512 4816,5563 4736,5582 C 4611,5612 4488,5630 4355,5632 C 4295,5633 4049,5598 3875,5467 C 3769,5388 3673,5308 3582,5202 C 3518,5128 3452,5040 3397,4962 L 3400,4937 C 3509,5104 3831,5426 4021,5494 z "
   id="path113"
   style="fill:#131516" /><path
   class="fil3"
   d="M 3808,5093 L 3811,5079 C 3757,5049 3693,5011 3638,4974 C 3595,4945 3542,4901 3499,4874 L 3494,4881 C 3540,4917 3581,4957 3629,4989 C 3664,5012 3775,5084 3808,5093 z "
   id="path115"
   style="fill:#131516" /><path
   class="fil3"
   d="M 4912,4633 L 4920,4914 C 4928,5150 5046,5181 5147,5270 L 5203,5242 C 5170,5212 5144,5198 5125,5179 L 5034,5092 C 4989,5048 4987,4983 4978,4923 C 4966,4842 4974,4756 4972,4664 C 4969,4494 4917,4279 4838,4153 C 4714,3956 4444,3657 4095,3605 C 4203,3625 4321,3700 4411,3760 C 4476,3804 4544,3854 4594,3911 L 4712,4047 C 4827,4178 4905,4429 4912,4633 z "
   id="path117"
   style="fill:#131516" /><path
   class="fil3"
   d="M 4506,7143 L 4467,7156 C 4721,7203 5223,7481 5843,7118 C 6416,6783 6375,6090 6238,5825 C 6149,5652 5944,5581 5823,5569 C 5664,5555 5557,5560 5488,5510 C 5411,5454 5354,5363 5287,5303 L 5232,5334 C 5320,5438 5446,5602 5604,5606 C 5727,5610 5910,5633 6017,5686 C 6213,5825 6262,6040 6262,6280 C 6262,6461 6188,6664 6136,6747 C 6097,6810 5913,6997 5908,7000 C 5696,7144 5473,7247 5159,7238 C 5025,7234 4880,7213 4767,7192 C 4700,7179 4508,7142 4506,7143 z "
   id="path119"
   style="fill:#131516" /><path
   class="fil3"
   d="M 4132,6724 L 4173,6737 C 3969,6556 3727,6716 3541,6808 C 3425,6866 3326,6868 3214,6875 C 3137,6881 3080,6911 3047,6928 C 2983,6962 2984,7016 2984,7029 C 2985,7065 2938,7101 2929,7145 C 2906,7270 2972,7329 3032,7431 C 3060,7478 3081,7528 3105,7576 C 3116,7599 3170,7749 3172,7749 C 3207,7869 3262,7950 3392,7988 C 3472,8011 3518,8147 3611,8160 L 3635,8135 C 3524,8136 3521,7981 3395,7936 C 3227,7877 3231,7794 3175,7662 L 3118,7519 C 3100,7473 3085,7409 3056,7368 C 3040,7346 3006,7305 2983,7256 C 2967,7222 2947,7126 2994,7079 C 3005,7069 3014,7058 3018,7047 C 3022,7037 3020,7026 3023,7018 C 3028,7002 3037,6992 3051,6978 C 3068,6960 3104,6925 3159,6926 C 3219,6927 3279,6921 3340,6915 C 3404,6909 3450,6898 3493,6886 C 3528,6868 3599,6840 3638,6815 C 3687,6783 3742,6741 3868,6705 C 3906,6694 3947,6691 4000,6692 C 4030,6693 4057,6699 4132,6724 z "
   id="path121"
   style="fill:#131516" /><path
   class="fil3"
   d="M 4601,6702 L 4606,6702 C 4603,6714 4594,6734 4588,6744 C 4577,6762 4570,6782 4559,6802 C 4546,6828 4529,6857 4517,6888 C 4510,6908 4498,6940 4494,6960 C 4455,7161 4411,7284 4186,7278 C 4117,7276 4081,7269 4012,7280 C 3947,7291 3881,7301 3784,7305 C 3730,7300 3596,7286 3497,7259 C 3458,7249 3291,7184 3278,7236 C 3254,7332 3393,7549 3462,7605 C 3534,7664 3552,7693 3556,7708 C 3570,7750 3569,7760 3555,7790 C 3508,7886 3673,7820 3699,7807 C 3739,7789 3815,7815 3814,7873 L 3773,7939 C 3773,7921 3779,7902 3780,7883 C 3780,7818 3703,7857 3673,7865 C 3630,7876 3582,7893 3533,7869 C 3483,7843 3473,7833 3497,7812 C 3541,7772 3536,7756 3516,7722 C 3503,7700 3438,7635 3413,7628 C 3320,7559 3240,7356 3231,7321 C 3189,7153 3312,7174 3458,7199 C 3580,7219 3730,7246 3919,7233 C 4122,7219 4321,7241 4378,7132 C 4416,7058 4435,6991 4454,6920 C 4474,6846 4544,6788 4601,6702 z "
   id="path123"
   style="fill:#131516" /></g></g></svg>
