<svg xmlns="http://www.w3.org/2000/svg" viewBox="0 0 977.1 1067.6" xmlns:xlink="http://www.w3.org/1999/xlink"><defs><path id="0" d="m-774.5 479.91h55.1v76.53h-55.1z" stroke-width="5.067" stroke="#000" stroke-linecap="round" fill="#fcdd09"/><path id="1" d="m-743.85 489.83h12.662v25.787h-12.662z" stroke="#000" stroke-width="1.013" stroke-linecap="round"/><path id="2" d="m-760.66 489.83h12.662v25.787h-12.662z" stroke="#000" stroke-width="1.013" stroke-linecap="round"/><path id="3" d="m-741.81 489.83h12.662v25.787h-12.662z" stroke="#000" stroke-width="1.013" stroke-linecap="round"/><use id="4" stroke="#000" stroke-width="1.013" xlink:href="#5"/><path id="5" d="m-762.7 489.83h12.662v25.787h-12.662z" stroke-linecap="round"/></defs><g transform="translate(217.31 14.853)"><path d="m581.07-4.83c-26.15.035-51.02.213-70.795.461-79.09 1.134-156.69-.213-235.03 0-2.657.035-5.315.035-7.972.071-78.34.213-155.94 1.098-235.06 0-79.09-1.134-239.53 0-239.53 0 0 0 4.996 48.15 6.803 72.32 3.047 41.35 4.252 82.88 6.768 124.26 3.402 55.772 7.902 111.51 11.303 167.28 2.551 41.39 3.933 82.88 6.803 124.26 4.323 62.61 5.03 125.75 15.768 187.58 6.02 34.547 14.421 68.953 27.14 101.66 15.343 39.472 33.484 78.73 58.854 112.64 18.283 24.449 41.634 45.04 65.87 63.64 27.744 21.26 57.969 39.791 89.93 53.965 33.839 14.953 69.909 25.05 106.23 32.07 27.354 5.28 55.38 7.264 83.2 7.37 27.673.071 55.56-1.524 82.74-6.732 36.461-7.02 72.53-17.646 106.44-32.776 31.925-14.209 62.22-32.669 89.96-53.965 24.24-18.567 47.622-39.15 65.906-63.6 25.37-33.945 43.476-73.17 58.819-112.64 12.72-32.705 21.12-67.15 27.14-101.73 10.772-61.795 11.445-124.97 15.803-187.55 2.87-41.39 4.252-82.88 6.768-124.3 3.402-55.772 7.902-111.44 11.303-167.21 2.551-41.42 3.72-82.913 6.803-124.3 1.772-24.13 6.768-72.32 6.768-72.32 0 0-90.21-.638-168.73-.461" fill="#0f47af"/><g stroke="#000"><g stroke-width="5"><g fill="#fcdd09"><g stroke-linecap="round"><path d="m135.73 12.92l21.271 28.915 18.258-13.432 7.639 10.384-18.258 13.432 42.817 58.2-10.384 7.639-42.817-58.2-18.234 13.413-7.639-10.384 18.234-13.413-21.271-28.915 10.384-7.639z"/><path d="m406.76 12.92l-21.271 28.915-18.258-13.432-7.639 10.384 18.258 13.432-42.817 58.2 10.384 7.639 42.817-58.2 18.234 13.413 7.639-10.384-18.234-13.413 21.271-28.915-10.384-7.639z"/></g><path d="m79.42 883.46h383.65v16.235h-383.65z"/></g><path d="m142.65 684.37h257.19v199.09h-257.19z"/><g fill="#fcdd09"><path d="m142.65 609.37h257.19v29.05h-257.19z"/><path d="m79.42 638.42h383.65v20.507h-383.65z"/><path d="m79.42 658.93h383.65v20.507h-383.65z"/></g><path d="m183.56 899.22l-139.25 76.72-2.344 6.938c12.964 7.52 26.312 14.381 39.969 20.438 33.839 14.953 69.9 25.05 106.22 32.06 27.354 5.28 55.37 7.269 83.19 7.375 27.673.071 55.57-1.51 82.75-6.719 36.461-7.02 72.53-17.651 106.44-32.781 13.43-5.977 26.559-12.717 39.34-20.09-.423-1.815-1.688-7.219-1.688-7.219l-139.28-76.72h-175.34z" fill="#078930"/><g fill="#fcdd09" stroke-linecap="round"><path d="m44.31 603.38v372.57l139.27-76.73v-218.68l-139.27-77.16z" stroke-linejoin="round"/><path d="m82.75 624.75v327.26"/><path d="m107.55 639.68v300.54"/><path d="m134.02 654.45v271.07"/><path d="m156.88 666.64v244.78"/></g></g><g transform="matrix(-.98685 0 0 .98685-432.32 13.465)" fill="#fcdd09" stroke-width="5.067" stroke-linecap="round"><path d="m-942.91 597.78v377.53l141.12-77.75v-221.59l-141.12-78.19z" stroke-linejoin="round"/><path d="m-903.95 619.44v331.62"/><path d="m-878.83 634.56v304.55"/><path d="m-852 649.53v274.69"/><path d="m-828.84 661.89v248.04"/></g><path fill="#fcdd09" stroke-width="5" d="m165 446.19h212.48v163.18h-212.48z"/></g><g transform="matrix(.98685 0 0 .98685 969.68 13.465)"><use xlink:href="#0"/><g transform="translate(0 .59)"><use stroke="#000" stroke-width="1.013" xlink:href="#5"/><use xlink:href="#1"/><g transform="translate(-2.039 29.725)"><use xlink:href="#2"/><use xlink:href="#3"/></g></g></g><g transform="matrix(.98685 0 0 .98685 1047.05 13.465)"><use xlink:href="#0"/><g transform="translate(0 .59)"><use stroke="#000" stroke-width="1.013" xlink:href="#5"/><use xlink:href="#1"/><g transform="translate(-2.039 29.725)"><use xlink:href="#2"/><use xlink:href="#3"/></g></g></g><g stroke="#000"><g fill="#fcdd09" stroke-linecap="round" stroke-width="5"><path d="m96.63 424.07h349.23v22.12h-349.23z"/><path d="m118.48 304.34h305.53v119.73h-305.53z"/></g><g transform="matrix(.98685 0 0 .98685 956.55 13.465)" stroke-width="1.013"><g transform="translate(-65.1-162.62)"><use xlink:href="#0"/><g transform="translate(0 .59)"><use xlink:href="#5"/><use xlink:href="#1"/><g transform="translate(-2.039 29.725)"><use xlink:href="#2"/><use xlink:href="#3"/></g></g><g transform="translate(78.4)"><use xlink:href="#0"/><g transform="translate(0 .59)"><use xlink:href="#4"/><use xlink:href="#1"/><g transform="translate(-2.039 29.725)"><use xlink:href="#2"/><use xlink:href="#3"/></g></g></g></g><g transform="translate(13.308-162.62)"><use xlink:href="#0"/><g transform="translate(0 .59)"><use xlink:href="#4"/><use xlink:href="#1"/><g transform="translate(-2.039 29.725)"><use xlink:href="#2"/><use xlink:href="#3"/></g></g><g transform="translate(78.4)"><use xlink:href="#0"/><g transform="translate(0 .59)"><use xlink:href="#4"/><use xlink:href="#1"/><g transform="translate(-2.039 29.725)"><use xlink:href="#2"/><use xlink:href="#3"/></g></g></g></g><g transform="translate(91.71-162.62)"><use xlink:href="#0"/><g transform="translate(0 .59)"><use xlink:href="#4"/><use xlink:href="#1"/><g transform="translate(-2.039 29.725)"><use xlink:href="#2"/><use xlink:href="#3"/></g></g><g transform="translate(78.4)"><use xlink:href="#0"/><g transform="translate(0 .59)"><use xlink:href="#4"/><use xlink:href="#1"/><g transform="translate(-2.039 29.725)"><use xlink:href="#2"/><use xlink:href="#3"/></g></g></g></g></g><g stroke-width="5"><path d="m203.51 106.47l-110 197.86h175.07 5.335 175.07l-110-197.86-67.753 91.78-67.72-91.78z" fill="#fcdd09"/><g fill="none"><path d="m271.24 197.17v107.16"/><g stroke-linecap="round"><path d="m283.12 181.9l38 122.34"/><path d="m299.63 162.56l64.55 141.78"/><path d="m314.56 141.44l84.86 161.35"/><path d="m258.85 183.35l-37.481 120.8"/><path d="m242.86 162.47l-64.55 141.78"/><path d="m227.93 141.34l-84.86 161.35"/></g></g></g><path d="m581.07-4.83c-26.15.035-51.02.213-70.795.461-79.09 1.134-156.69-.213-235.03 0-2.657.035-5.315.035-7.972.071-78.34.213-155.94 1.098-235.06 0-79.09-1.134-239.53 0-239.53 0 0 0 4.996 48.15 6.803 72.32 3.047 41.35 4.252 82.88 6.768 124.26 3.402 55.772 7.902 111.51 11.303 167.28 2.551 41.39 3.933 82.88 6.803 124.26 4.323 62.61 5.03 125.75 15.768 187.58 6.02 34.547 14.421 68.953 27.14 101.66 15.343 39.472 33.484 78.73 58.854 112.64 18.283 24.449 41.634 45.04 65.87 63.64 27.744 21.26 57.969 39.791 89.93 53.965 33.839 14.953 69.909 25.05 106.23 32.07 27.354 5.28 55.38 7.264 83.2 7.37 27.673.071 55.56-1.524 82.74-6.732 36.461-7.02 72.53-17.646 106.44-32.776 31.925-14.209 62.22-32.669 89.96-53.965 24.24-18.567 47.622-39.15 65.906-63.6 25.37-33.945 43.476-73.17 58.819-112.64 12.72-32.705 21.12-67.15 27.14-101.73 10.772-61.795 11.445-124.97 15.803-187.55 2.87-41.39 4.252-82.88 6.768-124.3 3.402-55.772 7.902-111.44 11.303-167.21 2.551-41.42 3.72-82.913 6.803-124.3 1.772-24.13 6.768-72.32 6.768-72.32 0 0-90.21-.638-168.73-.461z" fill="none" stroke-width="19.984"/></g><path d="m203.18 1037.22l.709.284c-.248.532-.567.957-.992 1.205-.425.248-.921.354-1.488.284-.567-.106-1.028-.284-1.346-.567-.354-.283-.567-.673-.709-1.134-.106-.461-.142-.957-.071-1.453.071-.567.248-1.027.531-1.417.248-.39.602-.673 1.028-.815.425-.177.886-.213 1.346-.177.531.071.957.283 1.276.602.354.319.531.744.602 1.276l-.709.071c-.071-.425-.213-.744-.425-.957-.213-.177-.496-.319-.85-.39-.425-.035-.78 0-1.063.177-.319.142-.531.39-.709.709-.142.319-.248.638-.283.992-.071.461-.071.886.035 1.24.071.354.248.638.496.85.248.177.567.319.886.354.39.071.744 0 1.063-.213.283-.177.531-.496.673-.921" fill="#060505" stroke="none" id="6"/><path d="m204.42 1039.31l.744-5.35.673.071-.283 1.913c.354-.319.78-.425 1.24-.354.283.035.531.106.709.248.213.177.354.354.39.532.071.213.071.532.035.921l-.354 2.445-.638-.106.319-2.445c.071-.319.035-.567-.106-.744-.106-.177-.319-.284-.567-.319-.213-.035-.39 0-.567.071-.177.106-.319.213-.425.39-.106.142-.177.39-.213.673l-.283 2.126z" fill="#060505" stroke="none" id="7"/><path d="m208.6 1039.88l.531-3.898.567.106-.071.567c.177-.248.354-.425.496-.496.142-.071.283-.071.425-.071.248.035.461.142.638.319l-.283.567c-.142-.106-.319-.177-.461-.213-.142 0-.283.035-.425.106-.106.071-.213.177-.283.319-.106.213-.177.461-.213.744l-.283 2.02z" fill="#060505" stroke="none" id="8"/><path d="m211.72 1035.62l.106-.78.673.106-.106.744zm-.638 4.571l.531-3.862.673.106-.531 3.862z" fill="#060505" stroke="none" id="9"/><path d="m212.64 1039.24h.673c0 .248.071.461.213.638.142.142.39.248.673.319.319.035.531 0 .709-.106.142-.106.248-.248.283-.39 0-.177-.035-.283-.142-.39-.106-.071-.319-.177-.673-.319-.461-.177-.78-.354-.957-.461-.142-.106-.283-.248-.354-.425-.071-.177-.106-.354-.071-.532.035-.177.071-.319.177-.461.106-.142.213-.248.39-.319.106-.071.248-.106.425-.142.177-.035.39-.035.567 0 .319.035.567.106.815.248.213.106.354.248.461.425.071.142.106.354.142.638h-.673c0-.213-.071-.39-.177-.532-.142-.106-.319-.213-.567-.248-.319-.035-.531 0-.673.071-.142.071-.213.177-.248.319 0 .106 0 .177.035.248.071.071.142.142.248.213.071.035.248.106.567.248.425.177.744.319.921.425.177.106.283.248.39.425.071.142.106.354.071.567-.035.213-.106.425-.283.602-.142.177-.354.283-.602.354-.248.106-.531.106-.85.071-.496-.071-.85-.248-1.098-.496-.248-.213-.354-.567-.39-.992" fill="#060505" stroke="none" id="A"/><path d="m217.99 1040.55l.035.602c-.213 0-.354 0-.496 0-.248-.035-.425-.106-.567-.213-.106-.071-.177-.177-.213-.319-.035-.142-.035-.39 0-.78l.319-2.232-.496-.071.071-.496.496.035.142-.957.709-.284-.213 1.347.673.106-.071.496-.638-.106-.319 2.268c-.035.213-.035.319-.035.39.035.035.071.106.106.142.035.036.106.071.213.071.071 0 .177 0 .283 0" fill="#060505" stroke="none" id="B"/><path d="m219.19 1036.65l.106-.78.673.106-.106.744zm-.638 4.571l.531-3.862.673.106-.531 3.862z" fill="#060505" stroke="none" id="C"/><path d="m222.81 1041.33c-.248.177-.496.284-.744.354-.248.035-.496.071-.744.035-.425-.071-.744-.213-.957-.461-.177-.248-.248-.532-.213-.85.035-.177.071-.354.177-.496.142-.142.248-.248.425-.319.142-.071.319-.142.496-.177.106 0 .319 0 .602 0 .531 0 .921 0 1.169-.071.035-.106.035-.142.035-.177.035-.248 0-.461-.106-.567-.142-.177-.39-.284-.709-.354-.319-.035-.531 0-.709.071-.177.106-.283.284-.39.532l-.638-.177c.071-.248.213-.461.354-.602.177-.177.39-.284.638-.319.283-.071.567-.071.921-.035.319.071.602.142.78.248.213.106.319.213.425.354.071.142.106.284.142.461 0 .106 0 .319-.071.602l-.106.886c-.071.602-.106.992-.106 1.169 0 .177.035.319.106.496l-.709-.106c-.035-.142-.071-.319-.071-.496m.142-1.453c-.248.035-.602.071-1.098.071-.283 0-.461.035-.567.071-.142.035-.213.071-.319.177-.071.071-.106.177-.106.283-.035.177 0 .354.142.461.106.142.283.248.531.283.248.035.496 0 .709-.071.213-.106.39-.213.496-.425.106-.106.142-.319.213-.638z" fill="#060505" stroke="none" id="D"/><path d="m224.4 1042.04l.531-3.862.567.071-.071.532c.354-.354.78-.532 1.311-.461.248.035.461.106.638.213.177.106.319.248.39.39.071.177.142.319.142.532 0 .106 0 .319-.035.638l-.354 2.374-.638-.071.319-2.374c.035-.248.035-.461 0-.602-.035-.142-.106-.248-.213-.354-.142-.106-.283-.177-.461-.177-.283-.035-.531 0-.744.142-.248.177-.39.496-.461.992l-.283 2.126z" fill="#060505" stroke="none" id="E"/><path d="m230.71 1042.89l.744-5.35 1.843.284c.39.035.709.106.921.177.319.142.531.284.744.496.248.284.425.638.496 1.028.106.39.106.815.035 1.275-.035.425-.142.78-.283 1.063-.142.319-.283.567-.461.744-.177.177-.39.319-.567.425-.177.071-.425.142-.673.177-.248 0-.567 0-.886-.035zm.78-.532l1.169.177c.319.035.602.035.815 0 .213-.035.39-.106.531-.213.177-.142.354-.354.496-.602.106-.284.213-.602.283-1.028.071-.567.035-.992-.106-1.311-.142-.354-.354-.567-.602-.709-.177-.106-.461-.177-.886-.248l-1.134-.142z" fill="#060505" stroke="none" id="F"/><path d="m238.58 1043.99l.071-.567c-.354.39-.815.567-1.311.496-.248-.035-.461-.106-.638-.248-.177-.106-.319-.213-.39-.39-.071-.142-.142-.319-.142-.496 0-.142 0-.354.035-.638l.354-2.374.638.071-.283 2.161c-.071.354-.071.567-.071.709.035.177.106.319.213.425.106.106.283.177.461.213.213.035.39 0 .602-.071.177-.071.319-.213.425-.354.071-.177.142-.425.213-.744l.283-2.091.638.106-.531 3.862z" fill="#060505" stroke="none" id="G"/><path d="m240.06 1043.03l.673-.035c0 .284.071.496.213.638.177.177.39.284.673.319.319.035.531 0 .709-.106.177-.106.248-.213.283-.39 0-.142-.035-.283-.142-.39-.106-.071-.319-.177-.638-.319-.461-.177-.78-.319-.957-.425-.177-.142-.319-.284-.39-.425-.071-.177-.106-.354-.071-.567.035-.177.071-.319.177-.461.106-.142.248-.248.39-.319.106-.071.248-.106.425-.142.213 0 .39 0 .602 0 .283.035.567.142.78.248.213.106.354.248.461.425.071.177.142.39.142.638h-.673c0-.213-.035-.39-.177-.496-.142-.142-.319-.213-.567-.248-.319-.035-.531-.035-.673.035-.142.106-.213.213-.248.354 0 .071 0 .142.071.213.035.106.106.177.213.213.071.035.248.142.567.248.425.213.744.354.921.461.177.106.319.213.39.39.071.177.106.354.071.602-.035.213-.106.39-.283.567-.142.177-.354.319-.602.39-.248.071-.531.071-.85.035-.496-.071-.85-.213-1.098-.461-.248-.248-.354-.602-.39-.992" fill="#060505" stroke="none" id="H"/><path d="m246.65 1043.63l.638.177c-.142.461-.39.78-.709.992-.319.213-.673.283-1.098.213-.531-.071-.957-.284-1.24-.673-.248-.39-.354-.921-.248-1.559.035-.425.177-.78.354-1.098.177-.284.425-.496.709-.602.319-.106.638-.142.957-.106.425.071.78.213.992.461.248.248.39.567.39.992h-.638c-.035-.284-.106-.496-.248-.638-.142-.142-.319-.248-.531-.284-.319-.035-.602.035-.85.248-.248.213-.39.567-.461 1.099-.071.496-.035.921.142 1.169.177.248.39.425.709.461.283.035.496 0 .709-.142.177-.142.319-.354.425-.709" fill="#060505" stroke="none" id="I"/><path d="m247.65 1045.23l.744-5.35.673.106-.283 1.913c.354-.319.78-.425 1.24-.39.283.071.531.142.709.284.213.142.354.319.39.532.071.213.071.496.035.886l-.354 2.445-.638-.071.319-2.445c.071-.354.035-.602-.106-.744-.106-.177-.319-.283-.567-.319-.213-.035-.39 0-.567.071-.177.071-.319.213-.425.354-.106.177-.177.39-.213.709l-.283 2.126z" fill="#060505" stroke="none" id="J"/><path d="m254.41 1045.69c-.283.177-.531.284-.78.319-.213.071-.461.071-.709.035-.461-.071-.744-.213-.957-.461-.213-.213-.283-.496-.248-.815.035-.213.106-.354.213-.532.106-.142.248-.248.39-.319.142-.071.319-.106.496-.142.142-.035.354-.035.602-.035.531.035.957 0 1.205-.035.035-.106.035-.177.035-.177.035-.284 0-.461-.106-.602-.142-.177-.39-.283-.709-.319-.319-.035-.567-.035-.709.071-.177.071-.319.248-.425.532l-.638-.177c.106-.283.248-.496.39-.638.177-.142.39-.248.638-.319.283-.035.567-.035.886 0 .354.035.602.106.815.213.177.106.319.248.39.354.106.142.142.319.142.496.035.106 0 .319-.035.602l-.106.886c-.106.602-.142.992-.142 1.169 0 .142.035.319.106.461l-.673-.071c-.071-.142-.071-.319-.071-.496m.142-1.488c-.248.071-.602.106-1.098.106-.283 0-.461 0-.602.035-.106.035-.213.106-.283.177-.071.106-.106.213-.142.319 0 .177.035.319.142.461.106.142.319.213.567.248.248.035.496 0 .709-.071.213-.071.354-.213.496-.39.071-.142.142-.354.177-.638z" fill="#060505" stroke="none" id="K"/><path d="m297.13 1043.32l-.058-.485 1.725-.224.201 1.508c-.244.251-.499.452-.762.586-.265.15-.557.247-.841.28-.402.051-.778.023-1.14-.118-.348-.124-.62-.337-.831-.643-.211-.305-.352-.652-.403-1.054-.051-.402-.023-.778.104-1.159.126-.364.325-.654.612-.851.289-.213.652-.351 1.054-.403.3-.03.564-.032.819.048.256.064.458.17.622.321.147.149.287.364.388.623l-.47.208c-.091-.209-.187-.369-.291-.463-.102-.111-.241-.194-.434-.233-.175-.054-.372-.06-.573-.035-.252.037-.456.094-.633.189-.162.113-.291.229-.39.366-.099.137-.165.277-.2.438-.08.254-.098.549-.05.835.039.367.152.661.306.894.154.233.366.39.621.469.253.095.515.11.783.077.233-.022.456-.094.669-.218.213-.123.374-.236.471-.356l-.09-.769z" fill="#0d0307" stroke="none" id="L"/><path d="m299.8 1044.59l-.538-4.088.487-.074.552 4.106z" fill="#0d0307" stroke="none" id="M"/><path d="m302.98 1043.21h.528c-.037.309-.165.558-.371.764-.188.192-.467.324-.802.367-.434.047-.805-.03-1.09-.261-.284-.248-.457-.598-.531-1.085-.058-.485.008-.906.242-1.208.217-.304.519-.483.939-.548.402-.051.738.038 1.022.286.286.232.457.598.531 1.085-.004.033.009.067.017.134l-2.212.299c.061.321.182.549.378.704.18.153.404.213.655.176.185-.027.324-.093.437-.212.129-.117.214-.272.257-.497zm-1.759-.604l1.658-.216c-.054-.237-.149-.413-.267-.526-.178-.169-.4-.245-.668-.211-.217.024-.412.133-.549.314-.135.165-.195.389-.175.639" fill="#0d0307" stroke="none" id="N"/><path d="m303.8 1040.5l-.079-.586.503-.072.079.587zm.459 3.501l-.391-2.965.501-.056.391 2.965z" fill="#0d0307" stroke="none" id="O"/><path d="m306.08 1043.77l-1.296-2.842.52-.07.695 1.649.258.608c.004-.033.029-.244.075-.634l.247-1.801.503-.072.677 1.664.215.553.104-.598.277-1.781.485-.058-.531 3.087-.52.07-.704-1.716-.188-.501-.298 2.372z" fill="#0d0307" stroke="none" id="P"/><path d="m309.19 1039.77l-.065-.568.503-.072.063.585zm.473 3.519l-.391-2.965.501-.056.393 2.949z" fill="#0d0307" stroke="none" id="Q"/><path d="m311.97 1042.52l.129.444c-.138.049-.255.068-.373.088-.185.027-.315.012-.425-.034-.112-.029-.202-.107-.241-.193-.055-.089-.116-.278-.146-.578l-.226-1.709-.367.039-.053-.386.367-.039-.094-.737.457-.375.141 1.039.503-.072.051.402-.501.056.222 1.742c.017.134.038.236.067.272.029.037.059.056.106.079.031.02.096.027.163.019.067-.001.136-.033.221-.056z" fill="#0d0307" stroke="none" id="R"/><path d="m312.25 1042.95l-.049-.418 1.604-2.399c-.217.024-.404.068-.57.081l-1.206.154-.051-.402 2.43-.322.043.335-1.37 2.097-.26.382c.219-.04.438-.08.639-.106l1.358-.185.064.436z" fill="#0d0307" stroke="none" id="S"/><path d="m315.01 1041.33l-.056-.501 1.542-.213.07.52z" fill="#0d0307" stroke="none" id="T"/><path d="m317.36 1042.27l-.538-4.088 2.965-.391.058.485-2.413.324.166 1.24 2.261-.293.058.485-2.261.293.182 1.39 2.513-.329.058.485z" fill="#0d0307" stroke="none" id="U"/><path d="m320.78 1040.91l.495-.139c.042.203.14.346.279.429.155.084.332.122.567.083.233-.022.389-.086.486-.206.095-.104.143-.23.124-.348-.019-.118-.076-.19-.184-.253-.063-.024-.256-.064-.533-.096-.374-.044-.649-.093-.791-.143-.159-.052-.281-.132-.367-.241-.086-.109-.138-.231-.169-.383-.017-.134-.002-.264.044-.374.048-.126.127-.232.219-.32.073-.058.164-.129.302-.179.123-.068.259-.101.426-.114.219-.041.433-.031.626.001.175.054.316.12.418.231.104.095.186.236.23.423l-.478.141c-.048-.154-.117-.261-.24-.342-.124-.064-.271-.081-.472-.056-.233.022-.389.086-.482.174-.077.09-.121.184-.1.285.009.066.035.12.078.174.045.039.122.08.202.107.065.001.21.041.47.072.374.044.616.089.777.125.142.05.267.114.369.225.086.109.152.249.165.415.029.168-.006.329-.074.486-.086.171-.217.304-.377.4-.178.111-.383.169-.618.207-.386.053-.695.016-.909-.124-.216-.124-.386-.359-.482-.667z" fill="#0d0307" stroke="none" id="V"/><path d="m323.65 1040.54l.479-.141c.06.189.159.332.295.431.139.082.334.105.551.081.235-.038.408-.1.502-.204.097-.12.143-.23.126-.364-.021-.101-.076-.19-.186-.236-.077-.042-.254-.08-.531-.112-.39-.046-.651-.077-.809-.129-.142-.05-.265-.13-.351-.239-.102-.111-.152-.249-.169-.383-.017-.134-.002-.264.046-.39.046-.11.108-.218.201-.306.075-.074.18-.127.303-.195.138-.049.276-.099.426-.114.233-.022.449-.029.624.025.193.039.332.122.436.217.086.109.168.251.228.439l-.477.125c-.05-.138-.134-.263-.242-.326-.122-.08-.285-.099-.47-.072-.235.039-.389.086-.484.19-.093.088-.121.184-.116.283.009.066.035.12.08.158.059.056.12.097.218.108.047.022.21.041.453.07.372.06.632.091.775.141.161.035.283.116.369.225.104.095.154.233.183.401.013.166-.008.345-.092.5-.068.157-.199.29-.377.401-.176.094-.367.171-.602.209-.384.037-.693 0-.909-.124-.23-.143-.386-.359-.482-.667" fill="#0d0307" stroke="none" id="W"/><path d="m328.71 1039.81l.53-.02c-.039.325-.167.574-.357.782-.204.19-.465.308-.816.349-.436.064-.788-.027-1.09-.261-.286-.232-.459-.582-.517-1.067-.072-.503.008-.906.226-1.21.219-.32.537-.497.939-.548.402-.051.738.038 1.024.27.284.248.473.6.529 1.102.014.018.009.068.017.134l-2.21.282c.061.321.18.566.376.721.182.137.406.196.655.176.185-.027.324-.093.454-.21.113-.119.199-.29.241-.499m-1.759-.604l1.658-.216c-.052-.254-.147-.43-.265-.543-.178-.169-.402-.229-.653-.193-.233.022-.412.133-.547.298-.137.182-.195.389-.193.653" fill="#0d0307" stroke="none" id="X"/><path d="m330 1040.6l-.407-2.967.453-.062.066.42c.173-.342.462-.555.88-.605.168-.029.347-.001.508.027.159.052.267.114.371.209.088.093.156.216.189.352.039.087.069.255.107.491l.231 1.809-.503.072-.231-1.808c-.026-.201-.073-.355-.129-.444-.037-.103-.129-.164-.239-.21-.108-.062-.222-.076-.356-.058-.219.041-.395.135-.528.284-.135.165-.182.424-.129.809l.222 1.609z" fill="#0d0307" stroke="none" id="Y"/><path d="m332.82 1038.98l-.072-.503 1.557-.195.056.501z" fill="#0d0307" stroke="none" id="Z"/><path d="m335.13 1039.93l-.538-4.088.536-.068.48 3.603 2.01-.273.058.485z" fill="#0d0307" stroke="none" id="a"/><path d="m340.15 1038.89c-.17.178-.335.323-.493.403-.16.096-.346.14-.531.168-.335.043-.593 0-.793-.127-.198-.139-.307-.333-.343-.585-.017-.134 0-.28.048-.407.048-.126.127-.232.219-.32.093-.088.216-.156.34-.224.103-.037.239-.07.444-.129.391-.102.683-.199.876-.292-.009-.067-.019-.118-.017-.134-.026-.201-.091-.341-.2-.403-.153-.101-.346-.14-.598-.104-.235.039-.408.1-.502.204-.109.086-.177.243-.204.471h-.494c.009-.213.063-.389.147-.543.099-.137.228-.254.404-.348.192-.093.415-.165.667-.201.252-.036.465-.027.626 0 .161.035.301.101.375.176.088.093.158.2.209.322.023.085.054.237.076.471l.102.672c.06.469.108.755.144.875.035.12.087.241.175.334l-.52.07c-.072-.091-.123-.213-.157-.348m-.182-1.11c-.176.094-.452.194-.811.3-.187.043-.343.108-.413.149-.089.055-.146.115-.188.192-.026.08-.036.161-.029.244.017.134.087.241.193.32.122.08.269.097.47.072.185-.027.357-.09.501-.188.129-.117.226-.237.278-.396.048-.126.051-.291.011-.51z" fill="#0d0307" stroke="none" id="b"/><path d="m341.45 1039.09l-.391-2.965.453-.062.049.418c.173-.342.478-.554.88-.605.185-.027.349-.025.508.027.159.052.283.116.371.209.088.093.156.216.205.354.039.087.069.255.091.489l.247 1.81-.503.072-.247-1.811c-.026-.201-.057-.353-.113-.442-.053-.105-.129-.164-.237-.226-.11-.046-.224-.06-.358-.042-.219.039-.395.134-.528.284-.149.147-.182.424-.145.807l.222 1.61z" fill="#0d0307" stroke="none" id="c"/><path d="m346.56 1038.41l-.055-.37c-.152.312-.405.496-.775.551-.233.022-.461-.001-.679-.114-.202-.107-.382-.26-.521-.474-.138-.231-.239-.49-.269-.791-.047-.302-.032-.564.031-.821.063-.256.186-.456.37-.616.184-.16.392-.25.644-.286.183-.012.347-.001.488.058.159.052.281.132.383.243l-.19-1.457.487-.074.554 4.09zm-1.796-1.268c.053.386.169.663.365.818.178.169.383.243.601.22.219-.039.397-.151.52-.351.139-.198.174-.491.118-.86-.051-.402-.167-.679-.345-.849-.178-.169-.383-.243-.617-.222-.219.04-.397.151-.52.351-.123.2-.159.509-.122.893" fill="#0d0307" stroke="none" id="d"/><path d="m347.49 1037.38l.495-.139c.058.205.157.348.295.431.139.082.316.12.551.082.233-.022.391-.102.502-.204.095-.104.127-.232.124-.348-.019-.118-.091-.209-.184-.253-.077-.042-.256-.064-.549-.098-.374-.044-.632-.091-.791-.143-.159-.052-.265-.13-.367-.242-.086-.109-.138-.231-.153-.381-.017-.134-.002-.264.044-.374.032-.128.11-.234.203-.322.073-.058.164-.129.302-.179.123-.068.276-.099.428-.131.233-.022.43-.014.624.025.193.039.332.122.42.215.102.111.184.253.245.441l-.495.139c-.031-.152-.117-.261-.24-.342-.108-.062-.271-.082-.472-.056-.217.024-.389.086-.466.176-.093.088-.137.182-.116.283.009.066.035.12.078.174.045.039.122.081.218.108.049.001.195.023.454.07.374.044.632.091.777.125.142.05.267.114.369.225.086.109.152.249.181.417.013.166-.006.329-.09.484-.086.171-.201.306-.377.401-.178.111-.383.169-.618.207-.369.055-.676 0-.909-.124-.216-.124-.37-.357-.482-.667z" fill="#0d0307" stroke="none" id="e"/><path d="m350.66 1037.88l-.538-4.088.503-.072.204 1.476c.185-.308.47-.489.821-.529.219-.04.414-.016.587.053.175.054.31.169.408.312.082.142.155.365.187.649l.239 1.876-.503.072-.239-1.875c-.036-.252-.113-.442-.233-.539-.12-.097-.281-.132-.482-.107-.15.015-.29.081-.415.165-.111.102-.192.225-.239.351-.034.145-.039.325 0 .561l.203 1.624z" fill="#0d0307" stroke="none" id="f"/><path d="m355.79 1037.2l-.048-.435c-.191.357-.48.57-.882.621-.168.029-.347.001-.508-.027-.159-.052-.283-.116-.371-.209-.088-.093-.156-.216-.205-.354-.021-.101-.052-.254-.092-.473l-.229-1.825.503-.072.218 1.642c.034.268.064.436.087.522.05.138.138.231.246.293.108.062.254.08.405.064.152-.031.274-.083.401-.183.125-.084.206-.207.24-.351.032-.128.039-.325.002-.577l-.207-1.591.503-.072.391 2.965z" fill="#0d0307" stroke="none" id="g"/><path d="m358.07 1036.44l.131.428c-.138.05-.257.085-.373.088-.185.027-.333.026-.443-.019-.11-.046-.184-.12-.239-.21-.055-.089-.099-.276-.146-.578l-.21-1.707-.369.055-.051-.402.367-.039-.11-.739.473-.373.124 1.037.52-.07.051.402-.518.054.239 1.743c.017.134.038.236.05.27.029.037.057.073.106.079.047.022.096.027.179.021.051 0 .134-.017.219-.04" fill="#0d0307" stroke="none" id="h"/><use xlink:href="#6"/><use xlink:href="#7"/><use xlink:href="#8"/><use xlink:href="#9"/><use xlink:href="#A"/><use xlink:href="#B"/><use xlink:href="#C"/><use xlink:href="#D"/><use xlink:href="#E"/><use xlink:href="#F"/><use xlink:href="#G"/><use xlink:href="#H"/><use xlink:href="#I"/><use xlink:href="#J"/><use xlink:href="#K"/><use xlink:href="#L"/><use xlink:href="#M"/><use xlink:href="#N"/><use xlink:href="#O"/><use xlink:href="#P"/><use xlink:href="#Q"/><use xlink:href="#R"/><use xlink:href="#S"/><use xlink:href="#T"/><use xlink:href="#U"/><use xlink:href="#V"/><use xlink:href="#W"/><use xlink:href="#X"/><use xlink:href="#Y"/><use xlink:href="#Z"/><use xlink:href="#a"/><use xlink:href="#b"/><use xlink:href="#c"/><use xlink:href="#d"/><use xlink:href="#e"/><use xlink:href="#f"/><use xlink:href="#g"/><use xlink:href="#h"/><path d="m-840.32 60.42l-9.899 3.52 4.51 9.488-9.488-4.51-3.52 9.899-3.52-9.899-9.488 4.51 4.51-9.488-9.899-3.52 9.899-3.52-4.51-9.488 9.488 4.51 3.52-9.899 3.52 9.899 9.488-4.51-4.51 9.488z" transform="matrix(3.25806 0 0 3.25806 3068.99-119.7)" fill="#fcdd09" stroke="#000" stroke-linecap="round" stroke-width="1.535"/></g></svg>